G04 #@! TF.GenerationSoftware,KiCad,Pcbnew,(5.1.4)-1*
G04 #@! TF.CreationDate,2019-11-18T15:59:16-05:00*
G04 #@! TF.ProjectId,teh,7465682e-6b69-4636-9164-5f7063625858,rev?*
G04 #@! TF.SameCoordinates,Original*
G04 #@! TF.FileFunction,Soldermask,Bot*
G04 #@! TF.FilePolarity,Negative*
%FSLAX46Y46*%
G04 Gerber Fmt 4.6, Leading zero omitted, Abs format (unit mm)*
G04 Created by KiCad (PCBNEW (5.1.4)-1) date 2019-11-18 15:59:16*
%MOMM*%
%LPD*%
G04 APERTURE LIST*
%ADD10C,0.150000*%
G04 APERTURE END LIST*
D10*
G36*
X255604421Y-54164540D02*
G01*
X256114169Y-54375685D01*
X256114171Y-54375686D01*
X256572934Y-54682221D01*
X256963079Y-55072366D01*
X257269614Y-55531129D01*
X257269615Y-55531131D01*
X257480760Y-56040879D01*
X257588400Y-56582024D01*
X257588400Y-57133776D01*
X257480760Y-57674921D01*
X257269615Y-58184669D01*
X257269614Y-58184671D01*
X256963079Y-58643434D01*
X256572934Y-59033579D01*
X256114171Y-59340114D01*
X256114170Y-59340115D01*
X256114169Y-59340115D01*
X255604421Y-59551260D01*
X255063276Y-59658900D01*
X254511524Y-59658900D01*
X253970379Y-59551260D01*
X253460631Y-59340115D01*
X253460630Y-59340115D01*
X253460629Y-59340114D01*
X253001866Y-59033579D01*
X252611721Y-58643434D01*
X252305186Y-58184671D01*
X252305185Y-58184669D01*
X252094040Y-57674921D01*
X251986400Y-57133776D01*
X251986400Y-56582024D01*
X252094040Y-56040879D01*
X252305185Y-55531131D01*
X252305186Y-55531129D01*
X252611721Y-55072366D01*
X253001866Y-54682221D01*
X253460629Y-54375686D01*
X253460631Y-54375685D01*
X253970379Y-54164540D01*
X254511524Y-54056900D01*
X255063276Y-54056900D01*
X255604421Y-54164540D01*
X255604421Y-54164540D01*
G37*
G36*
X241774121Y-54164540D02*
G01*
X242283869Y-54375685D01*
X242283871Y-54375686D01*
X242742634Y-54682221D01*
X243132779Y-55072366D01*
X243439314Y-55531129D01*
X243439315Y-55531131D01*
X243650460Y-56040879D01*
X243758100Y-56582024D01*
X243758100Y-57133776D01*
X243650460Y-57674921D01*
X243439315Y-58184669D01*
X243439314Y-58184671D01*
X243132779Y-58643434D01*
X242742634Y-59033579D01*
X242283871Y-59340114D01*
X242283870Y-59340115D01*
X242283869Y-59340115D01*
X241774121Y-59551260D01*
X241232976Y-59658900D01*
X240681224Y-59658900D01*
X240140079Y-59551260D01*
X239630331Y-59340115D01*
X239630330Y-59340115D01*
X239630329Y-59340114D01*
X239171566Y-59033579D01*
X238781421Y-58643434D01*
X238474886Y-58184671D01*
X238474885Y-58184669D01*
X238263740Y-57674921D01*
X238156100Y-57133776D01*
X238156100Y-56582024D01*
X238263740Y-56040879D01*
X238474885Y-55531131D01*
X238474886Y-55531129D01*
X238781421Y-55072366D01*
X239171566Y-54682221D01*
X239630329Y-54375686D01*
X239630331Y-54375685D01*
X240140079Y-54164540D01*
X240681224Y-54056900D01*
X241232976Y-54056900D01*
X241774121Y-54164540D01*
X241774121Y-54164540D01*
G37*
G36*
X251497400Y-54698200D02*
G01*
X249695400Y-54698200D01*
X249695400Y-52896200D01*
X251497400Y-52896200D01*
X251497400Y-54698200D01*
X251497400Y-54698200D01*
G37*
G36*
X250706842Y-50362718D02*
G01*
X250773027Y-50369237D01*
X250942866Y-50420757D01*
X251099391Y-50504422D01*
X251135129Y-50533752D01*
X251236586Y-50617014D01*
X251319848Y-50718471D01*
X251349178Y-50754209D01*
X251432843Y-50910734D01*
X251484363Y-51080573D01*
X251501759Y-51257200D01*
X251484363Y-51433827D01*
X251432843Y-51603666D01*
X251349178Y-51760191D01*
X251319848Y-51795929D01*
X251236586Y-51897386D01*
X251135129Y-51980648D01*
X251099391Y-52009978D01*
X250942866Y-52093643D01*
X250773027Y-52145163D01*
X250706842Y-52151682D01*
X250640660Y-52158200D01*
X250552140Y-52158200D01*
X250485958Y-52151682D01*
X250419773Y-52145163D01*
X250249934Y-52093643D01*
X250093409Y-52009978D01*
X250057671Y-51980648D01*
X249956214Y-51897386D01*
X249872952Y-51795929D01*
X249843622Y-51760191D01*
X249759957Y-51603666D01*
X249708437Y-51433827D01*
X249691041Y-51257200D01*
X249708437Y-51080573D01*
X249759957Y-50910734D01*
X249843622Y-50754209D01*
X249872952Y-50718471D01*
X249956214Y-50617014D01*
X250057671Y-50533752D01*
X250093409Y-50504422D01*
X250249934Y-50420757D01*
X250419773Y-50369237D01*
X250485957Y-50362719D01*
X250552140Y-50356200D01*
X250640660Y-50356200D01*
X250706842Y-50362718D01*
X250706842Y-50362718D01*
G37*
G36*
X250706842Y-47822718D02*
G01*
X250773027Y-47829237D01*
X250942866Y-47880757D01*
X251099391Y-47964422D01*
X251135129Y-47993752D01*
X251236586Y-48077014D01*
X251319848Y-48178471D01*
X251349178Y-48214209D01*
X251432843Y-48370734D01*
X251484363Y-48540573D01*
X251501759Y-48717200D01*
X251484363Y-48893827D01*
X251432843Y-49063666D01*
X251349178Y-49220191D01*
X251319848Y-49255929D01*
X251236586Y-49357386D01*
X251135129Y-49440648D01*
X251099391Y-49469978D01*
X250942866Y-49553643D01*
X250773027Y-49605163D01*
X250706843Y-49611681D01*
X250640660Y-49618200D01*
X250552140Y-49618200D01*
X250485958Y-49611682D01*
X250419773Y-49605163D01*
X250249934Y-49553643D01*
X250093409Y-49469978D01*
X250057671Y-49440648D01*
X249956214Y-49357386D01*
X249872952Y-49255929D01*
X249843622Y-49220191D01*
X249759957Y-49063666D01*
X249708437Y-48893827D01*
X249691041Y-48717200D01*
X249708437Y-48540573D01*
X249759957Y-48370734D01*
X249843622Y-48214209D01*
X249872952Y-48178471D01*
X249956214Y-48077014D01*
X250057671Y-47993752D01*
X250093409Y-47964422D01*
X250249934Y-47880757D01*
X250419773Y-47829237D01*
X250485958Y-47822718D01*
X250552140Y-47816200D01*
X250640660Y-47816200D01*
X250706842Y-47822718D01*
X250706842Y-47822718D01*
G37*
G36*
X250706843Y-45282719D02*
G01*
X250773027Y-45289237D01*
X250942866Y-45340757D01*
X251099391Y-45424422D01*
X251135129Y-45453752D01*
X251236586Y-45537014D01*
X251319848Y-45638471D01*
X251349178Y-45674209D01*
X251432843Y-45830734D01*
X251484363Y-46000573D01*
X251501759Y-46177200D01*
X251484363Y-46353827D01*
X251432843Y-46523666D01*
X251349178Y-46680191D01*
X251319848Y-46715929D01*
X251236586Y-46817386D01*
X251135129Y-46900648D01*
X251099391Y-46929978D01*
X250942866Y-47013643D01*
X250773027Y-47065163D01*
X250706843Y-47071681D01*
X250640660Y-47078200D01*
X250552140Y-47078200D01*
X250485957Y-47071681D01*
X250419773Y-47065163D01*
X250249934Y-47013643D01*
X250093409Y-46929978D01*
X250057671Y-46900648D01*
X249956214Y-46817386D01*
X249872952Y-46715929D01*
X249843622Y-46680191D01*
X249759957Y-46523666D01*
X249708437Y-46353827D01*
X249691041Y-46177200D01*
X249708437Y-46000573D01*
X249759957Y-45830734D01*
X249843622Y-45674209D01*
X249872952Y-45638471D01*
X249956214Y-45537014D01*
X250057671Y-45453752D01*
X250093409Y-45424422D01*
X250249934Y-45340757D01*
X250419773Y-45289237D01*
X250485958Y-45282718D01*
X250552140Y-45276200D01*
X250640660Y-45276200D01*
X250706843Y-45282719D01*
X250706843Y-45282719D01*
G37*
G36*
X255604421Y-40334240D02*
G01*
X256114169Y-40545385D01*
X256114171Y-40545386D01*
X256572934Y-40851921D01*
X256963079Y-41242066D01*
X257269614Y-41700829D01*
X257269615Y-41700831D01*
X257480760Y-42210579D01*
X257588400Y-42751724D01*
X257588400Y-43303476D01*
X257480760Y-43844621D01*
X257269615Y-44354369D01*
X257269614Y-44354371D01*
X256963079Y-44813134D01*
X256572934Y-45203279D01*
X256114171Y-45509814D01*
X256114170Y-45509815D01*
X256114169Y-45509815D01*
X255604421Y-45720960D01*
X255063276Y-45828600D01*
X254511524Y-45828600D01*
X253970379Y-45720960D01*
X253460631Y-45509815D01*
X253460630Y-45509815D01*
X253460629Y-45509814D01*
X253001866Y-45203279D01*
X252611721Y-44813134D01*
X252305186Y-44354371D01*
X252305185Y-44354369D01*
X252094040Y-43844621D01*
X251986400Y-43303476D01*
X251986400Y-42751724D01*
X252094040Y-42210579D01*
X252305185Y-41700831D01*
X252305186Y-41700829D01*
X252611721Y-41242066D01*
X253001866Y-40851921D01*
X253460629Y-40545386D01*
X253460631Y-40545385D01*
X253970379Y-40334240D01*
X254511524Y-40226600D01*
X255063276Y-40226600D01*
X255604421Y-40334240D01*
X255604421Y-40334240D01*
G37*
G36*
X241774121Y-40334240D02*
G01*
X242283869Y-40545385D01*
X242283871Y-40545386D01*
X242742634Y-40851921D01*
X243132779Y-41242066D01*
X243439314Y-41700829D01*
X243439315Y-41700831D01*
X243650460Y-42210579D01*
X243758100Y-42751724D01*
X243758100Y-43303476D01*
X243650460Y-43844621D01*
X243439315Y-44354369D01*
X243439314Y-44354371D01*
X243132779Y-44813134D01*
X242742634Y-45203279D01*
X242283871Y-45509814D01*
X242283870Y-45509815D01*
X242283869Y-45509815D01*
X241774121Y-45720960D01*
X241232976Y-45828600D01*
X240681224Y-45828600D01*
X240140079Y-45720960D01*
X239630331Y-45509815D01*
X239630330Y-45509815D01*
X239630329Y-45509814D01*
X239171566Y-45203279D01*
X238781421Y-44813134D01*
X238474886Y-44354371D01*
X238474885Y-44354369D01*
X238263740Y-43844621D01*
X238156100Y-43303476D01*
X238156100Y-42751724D01*
X238263740Y-42210579D01*
X238474885Y-41700831D01*
X238474886Y-41700829D01*
X238781421Y-41242066D01*
X239171566Y-40851921D01*
X239630329Y-40545386D01*
X239630331Y-40545385D01*
X240140079Y-40334240D01*
X240681224Y-40226600D01*
X241232976Y-40226600D01*
X241774121Y-40334240D01*
X241774121Y-40334240D01*
G37*
M02*
