G04 #@! TF.GenerationSoftware,KiCad,Pcbnew,(5.1.4)-1*
G04 #@! TF.CreationDate,2019-11-18T15:59:16-05:00*
G04 #@! TF.ProjectId,teh,7465682e-6b69-4636-9164-5f7063625858,rev?*
G04 #@! TF.SameCoordinates,Original*
G04 #@! TF.FileFunction,Soldermask,Top*
G04 #@! TF.FilePolarity,Negative*
%FSLAX46Y46*%
G04 Gerber Fmt 4.6, Leading zero omitted, Abs format (unit mm)*
G04 Created by KiCad (PCBNEW (5.1.4)-1) date 2019-11-18 15:59:16*
%MOMM*%
%LPD*%
G04 APERTURE LIST*
%ADD10C,0.150000*%
G04 APERTURE END LIST*
D10*
G36*
X216674091Y-62216085D02*
G01*
X216708069Y-62226393D01*
X216739390Y-62243134D01*
X216766839Y-62265661D01*
X216789366Y-62293110D01*
X216806107Y-62324431D01*
X216816415Y-62358409D01*
X216820500Y-62399890D01*
X216820500Y-63076110D01*
X216816415Y-63117591D01*
X216806107Y-63151569D01*
X216789366Y-63182890D01*
X216766839Y-63210339D01*
X216739390Y-63232866D01*
X216708069Y-63249607D01*
X216674091Y-63259915D01*
X216632610Y-63264000D01*
X216031390Y-63264000D01*
X215989909Y-63259915D01*
X215955931Y-63249607D01*
X215924610Y-63232866D01*
X215897161Y-63210339D01*
X215874634Y-63182890D01*
X215857893Y-63151569D01*
X215847585Y-63117591D01*
X215843500Y-63076110D01*
X215843500Y-62399890D01*
X215847585Y-62358409D01*
X215857893Y-62324431D01*
X215874634Y-62293110D01*
X215897161Y-62265661D01*
X215924610Y-62243134D01*
X215955931Y-62226393D01*
X215989909Y-62216085D01*
X216031390Y-62212000D01*
X216632610Y-62212000D01*
X216674091Y-62216085D01*
X216674091Y-62216085D01*
G37*
G36*
X215099091Y-62216085D02*
G01*
X215133069Y-62226393D01*
X215164390Y-62243134D01*
X215191839Y-62265661D01*
X215214366Y-62293110D01*
X215231107Y-62324431D01*
X215241415Y-62358409D01*
X215245500Y-62399890D01*
X215245500Y-63076110D01*
X215241415Y-63117591D01*
X215231107Y-63151569D01*
X215214366Y-63182890D01*
X215191839Y-63210339D01*
X215164390Y-63232866D01*
X215133069Y-63249607D01*
X215099091Y-63259915D01*
X215057610Y-63264000D01*
X214456390Y-63264000D01*
X214414909Y-63259915D01*
X214380931Y-63249607D01*
X214349610Y-63232866D01*
X214322161Y-63210339D01*
X214299634Y-63182890D01*
X214282893Y-63151569D01*
X214272585Y-63117591D01*
X214268500Y-63076110D01*
X214268500Y-62399890D01*
X214272585Y-62358409D01*
X214282893Y-62324431D01*
X214299634Y-62293110D01*
X214322161Y-62265661D01*
X214349610Y-62243134D01*
X214380931Y-62226393D01*
X214414909Y-62216085D01*
X214456390Y-62212000D01*
X215057610Y-62212000D01*
X215099091Y-62216085D01*
X215099091Y-62216085D01*
G37*
G36*
X111594091Y-62216085D02*
G01*
X111628069Y-62226393D01*
X111659390Y-62243134D01*
X111686839Y-62265661D01*
X111709366Y-62293110D01*
X111726107Y-62324431D01*
X111736415Y-62358409D01*
X111740500Y-62399890D01*
X111740500Y-63076110D01*
X111736415Y-63117591D01*
X111726107Y-63151569D01*
X111709366Y-63182890D01*
X111686839Y-63210339D01*
X111659390Y-63232866D01*
X111628069Y-63249607D01*
X111594091Y-63259915D01*
X111552610Y-63264000D01*
X110951390Y-63264000D01*
X110909909Y-63259915D01*
X110875931Y-63249607D01*
X110844610Y-63232866D01*
X110817161Y-63210339D01*
X110794634Y-63182890D01*
X110777893Y-63151569D01*
X110767585Y-63117591D01*
X110763500Y-63076110D01*
X110763500Y-62399890D01*
X110767585Y-62358409D01*
X110777893Y-62324431D01*
X110794634Y-62293110D01*
X110817161Y-62265661D01*
X110844610Y-62243134D01*
X110875931Y-62226393D01*
X110909909Y-62216085D01*
X110951390Y-62212000D01*
X111552610Y-62212000D01*
X111594091Y-62216085D01*
X111594091Y-62216085D01*
G37*
G36*
X110019091Y-62216085D02*
G01*
X110053069Y-62226393D01*
X110084390Y-62243134D01*
X110111839Y-62265661D01*
X110134366Y-62293110D01*
X110151107Y-62324431D01*
X110161415Y-62358409D01*
X110165500Y-62399890D01*
X110165500Y-63076110D01*
X110161415Y-63117591D01*
X110151107Y-63151569D01*
X110134366Y-63182890D01*
X110111839Y-63210339D01*
X110084390Y-63232866D01*
X110053069Y-63249607D01*
X110019091Y-63259915D01*
X109977610Y-63264000D01*
X109376390Y-63264000D01*
X109334909Y-63259915D01*
X109300931Y-63249607D01*
X109269610Y-63232866D01*
X109242161Y-63210339D01*
X109219634Y-63182890D01*
X109202893Y-63151569D01*
X109192585Y-63117591D01*
X109188500Y-63076110D01*
X109188500Y-62399890D01*
X109192585Y-62358409D01*
X109202893Y-62324431D01*
X109219634Y-62293110D01*
X109242161Y-62265661D01*
X109269610Y-62243134D01*
X109300931Y-62226393D01*
X109334909Y-62216085D01*
X109376390Y-62212000D01*
X109977610Y-62212000D01*
X110019091Y-62216085D01*
X110019091Y-62216085D01*
G37*
G36*
X137807091Y-62216085D02*
G01*
X137841069Y-62226393D01*
X137872390Y-62243134D01*
X137899839Y-62265661D01*
X137922366Y-62293110D01*
X137939107Y-62324431D01*
X137949415Y-62358409D01*
X137953500Y-62399890D01*
X137953500Y-63076110D01*
X137949415Y-63117591D01*
X137939107Y-63151569D01*
X137922366Y-63182890D01*
X137899839Y-63210339D01*
X137872390Y-63232866D01*
X137841069Y-63249607D01*
X137807091Y-63259915D01*
X137765610Y-63264000D01*
X137164390Y-63264000D01*
X137122909Y-63259915D01*
X137088931Y-63249607D01*
X137057610Y-63232866D01*
X137030161Y-63210339D01*
X137007634Y-63182890D01*
X136990893Y-63151569D01*
X136980585Y-63117591D01*
X136976500Y-63076110D01*
X136976500Y-62399890D01*
X136980585Y-62358409D01*
X136990893Y-62324431D01*
X137007634Y-62293110D01*
X137030161Y-62265661D01*
X137057610Y-62243134D01*
X137088931Y-62226393D01*
X137122909Y-62216085D01*
X137164390Y-62212000D01*
X137765610Y-62212000D01*
X137807091Y-62216085D01*
X137807091Y-62216085D01*
G37*
G36*
X136232091Y-62216085D02*
G01*
X136266069Y-62226393D01*
X136297390Y-62243134D01*
X136324839Y-62265661D01*
X136347366Y-62293110D01*
X136364107Y-62324431D01*
X136374415Y-62358409D01*
X136378500Y-62399890D01*
X136378500Y-63076110D01*
X136374415Y-63117591D01*
X136364107Y-63151569D01*
X136347366Y-63182890D01*
X136324839Y-63210339D01*
X136297390Y-63232866D01*
X136266069Y-63249607D01*
X136232091Y-63259915D01*
X136190610Y-63264000D01*
X135589390Y-63264000D01*
X135547909Y-63259915D01*
X135513931Y-63249607D01*
X135482610Y-63232866D01*
X135455161Y-63210339D01*
X135432634Y-63182890D01*
X135415893Y-63151569D01*
X135405585Y-63117591D01*
X135401500Y-63076110D01*
X135401500Y-62399890D01*
X135405585Y-62358409D01*
X135415893Y-62324431D01*
X135432634Y-62293110D01*
X135455161Y-62265661D01*
X135482610Y-62243134D01*
X135513931Y-62226393D01*
X135547909Y-62216085D01*
X135589390Y-62212000D01*
X136190610Y-62212000D01*
X136232091Y-62216085D01*
X136232091Y-62216085D01*
G37*
G36*
X164096091Y-62216085D02*
G01*
X164130069Y-62226393D01*
X164161390Y-62243134D01*
X164188839Y-62265661D01*
X164211366Y-62293110D01*
X164228107Y-62324431D01*
X164238415Y-62358409D01*
X164242500Y-62399890D01*
X164242500Y-63076110D01*
X164238415Y-63117591D01*
X164228107Y-63151569D01*
X164211366Y-63182890D01*
X164188839Y-63210339D01*
X164161390Y-63232866D01*
X164130069Y-63249607D01*
X164096091Y-63259915D01*
X164054610Y-63264000D01*
X163453390Y-63264000D01*
X163411909Y-63259915D01*
X163377931Y-63249607D01*
X163346610Y-63232866D01*
X163319161Y-63210339D01*
X163296634Y-63182890D01*
X163279893Y-63151569D01*
X163269585Y-63117591D01*
X163265500Y-63076110D01*
X163265500Y-62399890D01*
X163269585Y-62358409D01*
X163279893Y-62324431D01*
X163296634Y-62293110D01*
X163319161Y-62265661D01*
X163346610Y-62243134D01*
X163377931Y-62226393D01*
X163411909Y-62216085D01*
X163453390Y-62212000D01*
X164054610Y-62212000D01*
X164096091Y-62216085D01*
X164096091Y-62216085D01*
G37*
G36*
X162521091Y-62216085D02*
G01*
X162555069Y-62226393D01*
X162586390Y-62243134D01*
X162613839Y-62265661D01*
X162636366Y-62293110D01*
X162653107Y-62324431D01*
X162663415Y-62358409D01*
X162667500Y-62399890D01*
X162667500Y-63076110D01*
X162663415Y-63117591D01*
X162653107Y-63151569D01*
X162636366Y-63182890D01*
X162613839Y-63210339D01*
X162586390Y-63232866D01*
X162555069Y-63249607D01*
X162521091Y-63259915D01*
X162479610Y-63264000D01*
X161878390Y-63264000D01*
X161836909Y-63259915D01*
X161802931Y-63249607D01*
X161771610Y-63232866D01*
X161744161Y-63210339D01*
X161721634Y-63182890D01*
X161704893Y-63151569D01*
X161694585Y-63117591D01*
X161690500Y-63076110D01*
X161690500Y-62399890D01*
X161694585Y-62358409D01*
X161704893Y-62324431D01*
X161721634Y-62293110D01*
X161744161Y-62265661D01*
X161771610Y-62243134D01*
X161802931Y-62226393D01*
X161836909Y-62216085D01*
X161878390Y-62212000D01*
X162479610Y-62212000D01*
X162521091Y-62216085D01*
X162521091Y-62216085D01*
G37*
G36*
X188759091Y-62216085D02*
G01*
X188793069Y-62226393D01*
X188824390Y-62243134D01*
X188851839Y-62265661D01*
X188874366Y-62293110D01*
X188891107Y-62324431D01*
X188901415Y-62358409D01*
X188905500Y-62399890D01*
X188905500Y-63076110D01*
X188901415Y-63117591D01*
X188891107Y-63151569D01*
X188874366Y-63182890D01*
X188851839Y-63210339D01*
X188824390Y-63232866D01*
X188793069Y-63249607D01*
X188759091Y-63259915D01*
X188717610Y-63264000D01*
X188116390Y-63264000D01*
X188074909Y-63259915D01*
X188040931Y-63249607D01*
X188009610Y-63232866D01*
X187982161Y-63210339D01*
X187959634Y-63182890D01*
X187942893Y-63151569D01*
X187932585Y-63117591D01*
X187928500Y-63076110D01*
X187928500Y-62399890D01*
X187932585Y-62358409D01*
X187942893Y-62324431D01*
X187959634Y-62293110D01*
X187982161Y-62265661D01*
X188009610Y-62243134D01*
X188040931Y-62226393D01*
X188074909Y-62216085D01*
X188116390Y-62212000D01*
X188717610Y-62212000D01*
X188759091Y-62216085D01*
X188759091Y-62216085D01*
G37*
G36*
X190334091Y-62216085D02*
G01*
X190368069Y-62226393D01*
X190399390Y-62243134D01*
X190426839Y-62265661D01*
X190449366Y-62293110D01*
X190466107Y-62324431D01*
X190476415Y-62358409D01*
X190480500Y-62399890D01*
X190480500Y-63076110D01*
X190476415Y-63117591D01*
X190466107Y-63151569D01*
X190449366Y-63182890D01*
X190426839Y-63210339D01*
X190399390Y-63232866D01*
X190368069Y-63249607D01*
X190334091Y-63259915D01*
X190292610Y-63264000D01*
X189691390Y-63264000D01*
X189649909Y-63259915D01*
X189615931Y-63249607D01*
X189584610Y-63232866D01*
X189557161Y-63210339D01*
X189534634Y-63182890D01*
X189517893Y-63151569D01*
X189507585Y-63117591D01*
X189503500Y-63076110D01*
X189503500Y-62399890D01*
X189507585Y-62358409D01*
X189517893Y-62324431D01*
X189534634Y-62293110D01*
X189557161Y-62265661D01*
X189584610Y-62243134D01*
X189615931Y-62226393D01*
X189649909Y-62216085D01*
X189691390Y-62212000D01*
X190292610Y-62212000D01*
X190334091Y-62216085D01*
X190334091Y-62216085D01*
G37*
G36*
X237273291Y-62089085D02*
G01*
X237307269Y-62099393D01*
X237338590Y-62116134D01*
X237366039Y-62138661D01*
X237388566Y-62166110D01*
X237405307Y-62197431D01*
X237415615Y-62231409D01*
X237419700Y-62272890D01*
X237419700Y-62949110D01*
X237415615Y-62990591D01*
X237405307Y-63024569D01*
X237388566Y-63055890D01*
X237366039Y-63083339D01*
X237338590Y-63105866D01*
X237307269Y-63122607D01*
X237273291Y-63132915D01*
X237231810Y-63137000D01*
X236630590Y-63137000D01*
X236589109Y-63132915D01*
X236555131Y-63122607D01*
X236523810Y-63105866D01*
X236496361Y-63083339D01*
X236473834Y-63055890D01*
X236457093Y-63024569D01*
X236446785Y-62990591D01*
X236442700Y-62949110D01*
X236442700Y-62272890D01*
X236446785Y-62231409D01*
X236457093Y-62197431D01*
X236473834Y-62166110D01*
X236496361Y-62138661D01*
X236523810Y-62116134D01*
X236555131Y-62099393D01*
X236589109Y-62089085D01*
X236630590Y-62085000D01*
X237231810Y-62085000D01*
X237273291Y-62089085D01*
X237273291Y-62089085D01*
G37*
G36*
X238848291Y-62089085D02*
G01*
X238882269Y-62099393D01*
X238913590Y-62116134D01*
X238941039Y-62138661D01*
X238963566Y-62166110D01*
X238980307Y-62197431D01*
X238990615Y-62231409D01*
X238994700Y-62272890D01*
X238994700Y-62949110D01*
X238990615Y-62990591D01*
X238980307Y-63024569D01*
X238963566Y-63055890D01*
X238941039Y-63083339D01*
X238913590Y-63105866D01*
X238882269Y-63122607D01*
X238848291Y-63132915D01*
X238806810Y-63137000D01*
X238205590Y-63137000D01*
X238164109Y-63132915D01*
X238130131Y-63122607D01*
X238098810Y-63105866D01*
X238071361Y-63083339D01*
X238048834Y-63055890D01*
X238032093Y-63024569D01*
X238021785Y-62990591D01*
X238017700Y-62949110D01*
X238017700Y-62272890D01*
X238021785Y-62231409D01*
X238032093Y-62197431D01*
X238048834Y-62166110D01*
X238071361Y-62138661D01*
X238098810Y-62116134D01*
X238130131Y-62099393D01*
X238164109Y-62089085D01*
X238205590Y-62085000D01*
X238806810Y-62085000D01*
X238848291Y-62089085D01*
X238848291Y-62089085D01*
G37*
G36*
X155248000Y-62566000D02*
G01*
X153696000Y-62566000D01*
X153696000Y-56164000D01*
X155248000Y-56164000D01*
X155248000Y-62566000D01*
X155248000Y-62566000D01*
G37*
G36*
X229994700Y-62566000D02*
G01*
X228442700Y-62566000D01*
X228442700Y-56164000D01*
X229994700Y-56164000D01*
X229994700Y-62566000D01*
X229994700Y-62566000D01*
G37*
G36*
X207780000Y-62566000D02*
G01*
X206228000Y-62566000D01*
X206228000Y-56164000D01*
X207780000Y-56164000D01*
X207780000Y-62566000D01*
X207780000Y-62566000D01*
G37*
G36*
X213680000Y-62566000D02*
G01*
X212128000Y-62566000D01*
X212128000Y-56164000D01*
X213680000Y-56164000D01*
X213680000Y-62566000D01*
X213680000Y-62566000D01*
G37*
G36*
X181514000Y-62566000D02*
G01*
X179962000Y-62566000D01*
X179962000Y-56164000D01*
X181514000Y-56164000D01*
X181514000Y-62566000D01*
X181514000Y-62566000D01*
G37*
G36*
X187414000Y-62566000D02*
G01*
X185862000Y-62566000D01*
X185862000Y-56164000D01*
X187414000Y-56164000D01*
X187414000Y-62566000D01*
X187414000Y-62566000D01*
G37*
G36*
X161148000Y-62566000D02*
G01*
X159596000Y-62566000D01*
X159596000Y-56164000D01*
X161148000Y-56164000D01*
X161148000Y-62566000D01*
X161148000Y-62566000D01*
G37*
G36*
X102716000Y-62566000D02*
G01*
X101164000Y-62566000D01*
X101164000Y-56164000D01*
X102716000Y-56164000D01*
X102716000Y-62566000D01*
X102716000Y-62566000D01*
G37*
G36*
X108616000Y-62566000D02*
G01*
X107064000Y-62566000D01*
X107064000Y-56164000D01*
X108616000Y-56164000D01*
X108616000Y-62566000D01*
X108616000Y-62566000D01*
G37*
G36*
X128982000Y-62566000D02*
G01*
X127430000Y-62566000D01*
X127430000Y-56164000D01*
X128982000Y-56164000D01*
X128982000Y-62566000D01*
X128982000Y-62566000D01*
G37*
G36*
X134882000Y-62566000D02*
G01*
X133330000Y-62566000D01*
X133330000Y-56164000D01*
X134882000Y-56164000D01*
X134882000Y-62566000D01*
X134882000Y-62566000D01*
G37*
G36*
X235894700Y-62566000D02*
G01*
X234342700Y-62566000D01*
X234342700Y-56164000D01*
X235894700Y-56164000D01*
X235894700Y-62566000D01*
X235894700Y-62566000D01*
G37*
G36*
X185239000Y-61516000D02*
G01*
X182137000Y-61516000D01*
X182137000Y-57214000D01*
X185239000Y-57214000D01*
X185239000Y-61516000D01*
X185239000Y-61516000D01*
G37*
G36*
X132707000Y-61516000D02*
G01*
X129605000Y-61516000D01*
X129605000Y-57214000D01*
X132707000Y-57214000D01*
X132707000Y-61516000D01*
X132707000Y-61516000D01*
G37*
G36*
X106441000Y-61516000D02*
G01*
X103339000Y-61516000D01*
X103339000Y-57214000D01*
X106441000Y-57214000D01*
X106441000Y-61516000D01*
X106441000Y-61516000D01*
G37*
G36*
X211505000Y-61516000D02*
G01*
X208403000Y-61516000D01*
X208403000Y-57214000D01*
X211505000Y-57214000D01*
X211505000Y-61516000D01*
X211505000Y-61516000D01*
G37*
G36*
X233719700Y-61516000D02*
G01*
X230617700Y-61516000D01*
X230617700Y-57214000D01*
X233719700Y-57214000D01*
X233719700Y-61516000D01*
X233719700Y-61516000D01*
G37*
G36*
X158973000Y-61516000D02*
G01*
X155871000Y-61516000D01*
X155871000Y-57214000D01*
X158973000Y-57214000D01*
X158973000Y-61516000D01*
X158973000Y-61516000D01*
G37*
G36*
X124014591Y-60438085D02*
G01*
X124048569Y-60448393D01*
X124079890Y-60465134D01*
X124107339Y-60487661D01*
X124129866Y-60515110D01*
X124146607Y-60546431D01*
X124156915Y-60580409D01*
X124161000Y-60621890D01*
X124161000Y-61298110D01*
X124156915Y-61339591D01*
X124146607Y-61373569D01*
X124129866Y-61404890D01*
X124107339Y-61432339D01*
X124079890Y-61454866D01*
X124048569Y-61471607D01*
X124014591Y-61481915D01*
X123973110Y-61486000D01*
X123371890Y-61486000D01*
X123330409Y-61481915D01*
X123296431Y-61471607D01*
X123265110Y-61454866D01*
X123237661Y-61432339D01*
X123215134Y-61404890D01*
X123198393Y-61373569D01*
X123188085Y-61339591D01*
X123184000Y-61298110D01*
X123184000Y-60621890D01*
X123188085Y-60580409D01*
X123198393Y-60546431D01*
X123215134Y-60515110D01*
X123237661Y-60487661D01*
X123265110Y-60465134D01*
X123296431Y-60448393D01*
X123330409Y-60438085D01*
X123371890Y-60434000D01*
X123973110Y-60434000D01*
X124014591Y-60438085D01*
X124014591Y-60438085D01*
G37*
G36*
X150202091Y-60438085D02*
G01*
X150236069Y-60448393D01*
X150267390Y-60465134D01*
X150294839Y-60487661D01*
X150317366Y-60515110D01*
X150334107Y-60546431D01*
X150344415Y-60580409D01*
X150348500Y-60621890D01*
X150348500Y-61298110D01*
X150344415Y-61339591D01*
X150334107Y-61373569D01*
X150317366Y-61404890D01*
X150294839Y-61432339D01*
X150267390Y-61454866D01*
X150236069Y-61471607D01*
X150202091Y-61481915D01*
X150160610Y-61486000D01*
X149559390Y-61486000D01*
X149517909Y-61481915D01*
X149483931Y-61471607D01*
X149452610Y-61454866D01*
X149425161Y-61432339D01*
X149402634Y-61404890D01*
X149385893Y-61373569D01*
X149375585Y-61339591D01*
X149371500Y-61298110D01*
X149371500Y-60621890D01*
X149375585Y-60580409D01*
X149385893Y-60546431D01*
X149402634Y-60515110D01*
X149425161Y-60487661D01*
X149452610Y-60465134D01*
X149483931Y-60448393D01*
X149517909Y-60438085D01*
X149559390Y-60434000D01*
X150160610Y-60434000D01*
X150202091Y-60438085D01*
X150202091Y-60438085D01*
G37*
G36*
X99402091Y-60438085D02*
G01*
X99436069Y-60448393D01*
X99467390Y-60465134D01*
X99494839Y-60487661D01*
X99517366Y-60515110D01*
X99534107Y-60546431D01*
X99544415Y-60580409D01*
X99548500Y-60621890D01*
X99548500Y-61298110D01*
X99544415Y-61339591D01*
X99534107Y-61373569D01*
X99517366Y-61404890D01*
X99494839Y-61432339D01*
X99467390Y-61454866D01*
X99436069Y-61471607D01*
X99402091Y-61481915D01*
X99360610Y-61486000D01*
X98759390Y-61486000D01*
X98717909Y-61481915D01*
X98683931Y-61471607D01*
X98652610Y-61454866D01*
X98625161Y-61432339D01*
X98602634Y-61404890D01*
X98585893Y-61373569D01*
X98575585Y-61339591D01*
X98571500Y-61298110D01*
X98571500Y-60621890D01*
X98575585Y-60580409D01*
X98585893Y-60546431D01*
X98602634Y-60515110D01*
X98625161Y-60487661D01*
X98652610Y-60465134D01*
X98683931Y-60448393D01*
X98717909Y-60438085D01*
X98759390Y-60434000D01*
X99360610Y-60434000D01*
X99402091Y-60438085D01*
X99402091Y-60438085D01*
G37*
G36*
X125589591Y-60438085D02*
G01*
X125623569Y-60448393D01*
X125654890Y-60465134D01*
X125682339Y-60487661D01*
X125704866Y-60515110D01*
X125721607Y-60546431D01*
X125731915Y-60580409D01*
X125736000Y-60621890D01*
X125736000Y-61298110D01*
X125731915Y-61339591D01*
X125721607Y-61373569D01*
X125704866Y-61404890D01*
X125682339Y-61432339D01*
X125654890Y-61454866D01*
X125623569Y-61471607D01*
X125589591Y-61481915D01*
X125548110Y-61486000D01*
X124946890Y-61486000D01*
X124905409Y-61481915D01*
X124871431Y-61471607D01*
X124840110Y-61454866D01*
X124812661Y-61432339D01*
X124790134Y-61404890D01*
X124773393Y-61373569D01*
X124763085Y-61339591D01*
X124759000Y-61298110D01*
X124759000Y-60621890D01*
X124763085Y-60580409D01*
X124773393Y-60546431D01*
X124790134Y-60515110D01*
X124812661Y-60487661D01*
X124840110Y-60465134D01*
X124871431Y-60448393D01*
X124905409Y-60438085D01*
X124946890Y-60434000D01*
X125548110Y-60434000D01*
X125589591Y-60438085D01*
X125589591Y-60438085D01*
G37*
G36*
X202907091Y-60438085D02*
G01*
X202941069Y-60448393D01*
X202972390Y-60465134D01*
X202999839Y-60487661D01*
X203022366Y-60515110D01*
X203039107Y-60546431D01*
X203049415Y-60580409D01*
X203053500Y-60621890D01*
X203053500Y-61298110D01*
X203049415Y-61339591D01*
X203039107Y-61373569D01*
X203022366Y-61404890D01*
X202999839Y-61432339D01*
X202972390Y-61454866D01*
X202941069Y-61471607D01*
X202907091Y-61481915D01*
X202865610Y-61486000D01*
X202264390Y-61486000D01*
X202222909Y-61481915D01*
X202188931Y-61471607D01*
X202157610Y-61454866D01*
X202130161Y-61432339D01*
X202107634Y-61404890D01*
X202090893Y-61373569D01*
X202080585Y-61339591D01*
X202076500Y-61298110D01*
X202076500Y-60621890D01*
X202080585Y-60580409D01*
X202090893Y-60546431D01*
X202107634Y-60515110D01*
X202130161Y-60487661D01*
X202157610Y-60465134D01*
X202188931Y-60448393D01*
X202222909Y-60438085D01*
X202264390Y-60434000D01*
X202865610Y-60434000D01*
X202907091Y-60438085D01*
X202907091Y-60438085D01*
G37*
G36*
X224827091Y-60438085D02*
G01*
X224861069Y-60448393D01*
X224892390Y-60465134D01*
X224919839Y-60487661D01*
X224942366Y-60515110D01*
X224959107Y-60546431D01*
X224969415Y-60580409D01*
X224973500Y-60621890D01*
X224973500Y-61298110D01*
X224969415Y-61339591D01*
X224959107Y-61373569D01*
X224942366Y-61404890D01*
X224919839Y-61432339D01*
X224892390Y-61454866D01*
X224861069Y-61471607D01*
X224827091Y-61481915D01*
X224785610Y-61486000D01*
X224184390Y-61486000D01*
X224142909Y-61481915D01*
X224108931Y-61471607D01*
X224077610Y-61454866D01*
X224050161Y-61432339D01*
X224027634Y-61404890D01*
X224010893Y-61373569D01*
X224000585Y-61339591D01*
X223996500Y-61298110D01*
X223996500Y-60621890D01*
X224000585Y-60580409D01*
X224010893Y-60546431D01*
X224027634Y-60515110D01*
X224050161Y-60487661D01*
X224077610Y-60465134D01*
X224108931Y-60448393D01*
X224142909Y-60438085D01*
X224184390Y-60434000D01*
X224785610Y-60434000D01*
X224827091Y-60438085D01*
X224827091Y-60438085D01*
G37*
G36*
X176567091Y-60438085D02*
G01*
X176601069Y-60448393D01*
X176632390Y-60465134D01*
X176659839Y-60487661D01*
X176682366Y-60515110D01*
X176699107Y-60546431D01*
X176709415Y-60580409D01*
X176713500Y-60621890D01*
X176713500Y-61298110D01*
X176709415Y-61339591D01*
X176699107Y-61373569D01*
X176682366Y-61404890D01*
X176659839Y-61432339D01*
X176632390Y-61454866D01*
X176601069Y-61471607D01*
X176567091Y-61481915D01*
X176525610Y-61486000D01*
X175924390Y-61486000D01*
X175882909Y-61481915D01*
X175848931Y-61471607D01*
X175817610Y-61454866D01*
X175790161Y-61432339D01*
X175767634Y-61404890D01*
X175750893Y-61373569D01*
X175740585Y-61339591D01*
X175736500Y-61298110D01*
X175736500Y-60621890D01*
X175740585Y-60580409D01*
X175750893Y-60546431D01*
X175767634Y-60515110D01*
X175790161Y-60487661D01*
X175817610Y-60465134D01*
X175848931Y-60448393D01*
X175882909Y-60438085D01*
X175924390Y-60434000D01*
X176525610Y-60434000D01*
X176567091Y-60438085D01*
X176567091Y-60438085D01*
G37*
G36*
X226402091Y-60438085D02*
G01*
X226436069Y-60448393D01*
X226467390Y-60465134D01*
X226494839Y-60487661D01*
X226517366Y-60515110D01*
X226534107Y-60546431D01*
X226544415Y-60580409D01*
X226548500Y-60621890D01*
X226548500Y-61298110D01*
X226544415Y-61339591D01*
X226534107Y-61373569D01*
X226517366Y-61404890D01*
X226494839Y-61432339D01*
X226467390Y-61454866D01*
X226436069Y-61471607D01*
X226402091Y-61481915D01*
X226360610Y-61486000D01*
X225759390Y-61486000D01*
X225717909Y-61481915D01*
X225683931Y-61471607D01*
X225652610Y-61454866D01*
X225625161Y-61432339D01*
X225602634Y-61404890D01*
X225585893Y-61373569D01*
X225575585Y-61339591D01*
X225571500Y-61298110D01*
X225571500Y-60621890D01*
X225575585Y-60580409D01*
X225585893Y-60546431D01*
X225602634Y-60515110D01*
X225625161Y-60487661D01*
X225652610Y-60465134D01*
X225683931Y-60448393D01*
X225717909Y-60438085D01*
X225759390Y-60434000D01*
X226360610Y-60434000D01*
X226402091Y-60438085D01*
X226402091Y-60438085D01*
G37*
G36*
X151777091Y-60438085D02*
G01*
X151811069Y-60448393D01*
X151842390Y-60465134D01*
X151869839Y-60487661D01*
X151892366Y-60515110D01*
X151909107Y-60546431D01*
X151919415Y-60580409D01*
X151923500Y-60621890D01*
X151923500Y-61298110D01*
X151919415Y-61339591D01*
X151909107Y-61373569D01*
X151892366Y-61404890D01*
X151869839Y-61432339D01*
X151842390Y-61454866D01*
X151811069Y-61471607D01*
X151777091Y-61481915D01*
X151735610Y-61486000D01*
X151134390Y-61486000D01*
X151092909Y-61481915D01*
X151058931Y-61471607D01*
X151027610Y-61454866D01*
X151000161Y-61432339D01*
X150977634Y-61404890D01*
X150960893Y-61373569D01*
X150950585Y-61339591D01*
X150946500Y-61298110D01*
X150946500Y-60621890D01*
X150950585Y-60580409D01*
X150960893Y-60546431D01*
X150977634Y-60515110D01*
X151000161Y-60487661D01*
X151027610Y-60465134D01*
X151058931Y-60448393D01*
X151092909Y-60438085D01*
X151134390Y-60434000D01*
X151735610Y-60434000D01*
X151777091Y-60438085D01*
X151777091Y-60438085D01*
G37*
G36*
X97827091Y-60438085D02*
G01*
X97861069Y-60448393D01*
X97892390Y-60465134D01*
X97919839Y-60487661D01*
X97942366Y-60515110D01*
X97959107Y-60546431D01*
X97969415Y-60580409D01*
X97973500Y-60621890D01*
X97973500Y-61298110D01*
X97969415Y-61339591D01*
X97959107Y-61373569D01*
X97942366Y-61404890D01*
X97919839Y-61432339D01*
X97892390Y-61454866D01*
X97861069Y-61471607D01*
X97827091Y-61481915D01*
X97785610Y-61486000D01*
X97184390Y-61486000D01*
X97142909Y-61481915D01*
X97108931Y-61471607D01*
X97077610Y-61454866D01*
X97050161Y-61432339D01*
X97027634Y-61404890D01*
X97010893Y-61373569D01*
X97000585Y-61339591D01*
X96996500Y-61298110D01*
X96996500Y-60621890D01*
X97000585Y-60580409D01*
X97010893Y-60546431D01*
X97027634Y-60515110D01*
X97050161Y-60487661D01*
X97077610Y-60465134D01*
X97108931Y-60448393D01*
X97142909Y-60438085D01*
X97184390Y-60434000D01*
X97785610Y-60434000D01*
X97827091Y-60438085D01*
X97827091Y-60438085D01*
G37*
G36*
X178142091Y-60438085D02*
G01*
X178176069Y-60448393D01*
X178207390Y-60465134D01*
X178234839Y-60487661D01*
X178257366Y-60515110D01*
X178274107Y-60546431D01*
X178284415Y-60580409D01*
X178288500Y-60621890D01*
X178288500Y-61298110D01*
X178284415Y-61339591D01*
X178274107Y-61373569D01*
X178257366Y-61404890D01*
X178234839Y-61432339D01*
X178207390Y-61454866D01*
X178176069Y-61471607D01*
X178142091Y-61481915D01*
X178100610Y-61486000D01*
X177499390Y-61486000D01*
X177457909Y-61481915D01*
X177423931Y-61471607D01*
X177392610Y-61454866D01*
X177365161Y-61432339D01*
X177342634Y-61404890D01*
X177325893Y-61373569D01*
X177315585Y-61339591D01*
X177311500Y-61298110D01*
X177311500Y-60621890D01*
X177315585Y-60580409D01*
X177325893Y-60546431D01*
X177342634Y-60515110D01*
X177365161Y-60487661D01*
X177392610Y-60465134D01*
X177423931Y-60448393D01*
X177457909Y-60438085D01*
X177499390Y-60434000D01*
X178100610Y-60434000D01*
X178142091Y-60438085D01*
X178142091Y-60438085D01*
G37*
G36*
X204482091Y-60438085D02*
G01*
X204516069Y-60448393D01*
X204547390Y-60465134D01*
X204574839Y-60487661D01*
X204597366Y-60515110D01*
X204614107Y-60546431D01*
X204624415Y-60580409D01*
X204628500Y-60621890D01*
X204628500Y-61298110D01*
X204624415Y-61339591D01*
X204614107Y-61373569D01*
X204597366Y-61404890D01*
X204574839Y-61432339D01*
X204547390Y-61454866D01*
X204516069Y-61471607D01*
X204482091Y-61481915D01*
X204440610Y-61486000D01*
X203839390Y-61486000D01*
X203797909Y-61481915D01*
X203763931Y-61471607D01*
X203732610Y-61454866D01*
X203705161Y-61432339D01*
X203682634Y-61404890D01*
X203665893Y-61373569D01*
X203655585Y-61339591D01*
X203651500Y-61298110D01*
X203651500Y-60621890D01*
X203655585Y-60580409D01*
X203665893Y-60546431D01*
X203682634Y-60515110D01*
X203705161Y-60487661D01*
X203732610Y-60465134D01*
X203763931Y-60448393D01*
X203797909Y-60438085D01*
X203839390Y-60434000D01*
X204440610Y-60434000D01*
X204482091Y-60438085D01*
X204482091Y-60438085D01*
G37*
G36*
X255604421Y-54164540D02*
G01*
X256114169Y-54375685D01*
X256114171Y-54375686D01*
X256572934Y-54682221D01*
X256963079Y-55072366D01*
X257269614Y-55531129D01*
X257269615Y-55531131D01*
X257480760Y-56040879D01*
X257588400Y-56582024D01*
X257588400Y-57133776D01*
X257480760Y-57674921D01*
X257339480Y-58016000D01*
X257269614Y-58184671D01*
X256963079Y-58643434D01*
X256572934Y-59033579D01*
X256114171Y-59340114D01*
X256114170Y-59340115D01*
X256114169Y-59340115D01*
X255604421Y-59551260D01*
X255063276Y-59658900D01*
X254511524Y-59658900D01*
X253970379Y-59551260D01*
X253460631Y-59340115D01*
X253460630Y-59340115D01*
X253460629Y-59340114D01*
X253001866Y-59033579D01*
X252611721Y-58643434D01*
X252305186Y-58184671D01*
X252235320Y-58016000D01*
X252094040Y-57674921D01*
X251986400Y-57133776D01*
X251986400Y-56582024D01*
X252094040Y-56040879D01*
X252305185Y-55531131D01*
X252305186Y-55531129D01*
X252611721Y-55072366D01*
X253001866Y-54682221D01*
X253460629Y-54375686D01*
X253460631Y-54375685D01*
X253970379Y-54164540D01*
X254511524Y-54056900D01*
X255063276Y-54056900D01*
X255604421Y-54164540D01*
X255604421Y-54164540D01*
G37*
G36*
X241774121Y-54164540D02*
G01*
X242283869Y-54375685D01*
X242283871Y-54375686D01*
X242742634Y-54682221D01*
X243132779Y-55072366D01*
X243439314Y-55531129D01*
X243439315Y-55531131D01*
X243650460Y-56040879D01*
X243758100Y-56582024D01*
X243758100Y-57133776D01*
X243650460Y-57674921D01*
X243509180Y-58016000D01*
X243439314Y-58184671D01*
X243132779Y-58643434D01*
X242742634Y-59033579D01*
X242283871Y-59340114D01*
X242283870Y-59340115D01*
X242283869Y-59340115D01*
X241774121Y-59551260D01*
X241232976Y-59658900D01*
X240681224Y-59658900D01*
X240140079Y-59551260D01*
X239630331Y-59340115D01*
X239630330Y-59340115D01*
X239630329Y-59340114D01*
X239171566Y-59033579D01*
X238781421Y-58643434D01*
X238474886Y-58184671D01*
X238405020Y-58016000D01*
X238263740Y-57674921D01*
X238156100Y-57133776D01*
X238156100Y-56582024D01*
X238263740Y-56040879D01*
X238474885Y-55531131D01*
X238474886Y-55531129D01*
X238781421Y-55072366D01*
X239171566Y-54682221D01*
X239630329Y-54375686D01*
X239630331Y-54375685D01*
X240140079Y-54164540D01*
X240681224Y-54056900D01*
X241232976Y-54056900D01*
X241774121Y-54164540D01*
X241774121Y-54164540D01*
G37*
G36*
X251497400Y-54698200D02*
G01*
X249695400Y-54698200D01*
X249695400Y-52896200D01*
X251497400Y-52896200D01*
X251497400Y-54698200D01*
X251497400Y-54698200D01*
G37*
G36*
X250706842Y-50362718D02*
G01*
X250773027Y-50369237D01*
X250942866Y-50420757D01*
X251099391Y-50504422D01*
X251135129Y-50533752D01*
X251236586Y-50617014D01*
X251319848Y-50718471D01*
X251349178Y-50754209D01*
X251432843Y-50910734D01*
X251484363Y-51080573D01*
X251501759Y-51257200D01*
X251484363Y-51433827D01*
X251432843Y-51603666D01*
X251349178Y-51760191D01*
X251319848Y-51795929D01*
X251236586Y-51897386D01*
X251151214Y-51967448D01*
X251099391Y-52009978D01*
X251099389Y-52009979D01*
X250975874Y-52076000D01*
X250942866Y-52093643D01*
X250773027Y-52145163D01*
X250706842Y-52151682D01*
X250640660Y-52158200D01*
X250552140Y-52158200D01*
X250485958Y-52151682D01*
X250419773Y-52145163D01*
X250249934Y-52093643D01*
X250216927Y-52076000D01*
X250093411Y-52009979D01*
X250093409Y-52009978D01*
X250041586Y-51967448D01*
X249956214Y-51897386D01*
X249872952Y-51795929D01*
X249843622Y-51760191D01*
X249759957Y-51603666D01*
X249708437Y-51433827D01*
X249691041Y-51257200D01*
X249708437Y-51080573D01*
X249759957Y-50910734D01*
X249843622Y-50754209D01*
X249872952Y-50718471D01*
X249956214Y-50617014D01*
X250057671Y-50533752D01*
X250093409Y-50504422D01*
X250249934Y-50420757D01*
X250419773Y-50369237D01*
X250485957Y-50362719D01*
X250552140Y-50356200D01*
X250640660Y-50356200D01*
X250706842Y-50362718D01*
X250706842Y-50362718D01*
G37*
G36*
X191290976Y-51103085D02*
G01*
X191324954Y-51113393D01*
X191356275Y-51130134D01*
X191383724Y-51152661D01*
X191406251Y-51180110D01*
X191422992Y-51211431D01*
X191433300Y-51245409D01*
X191437385Y-51286890D01*
X191437385Y-51888110D01*
X191433300Y-51929591D01*
X191422992Y-51963569D01*
X191406251Y-51994890D01*
X191383724Y-52022339D01*
X191356275Y-52044866D01*
X191324954Y-52061607D01*
X191290976Y-52071915D01*
X191249495Y-52076000D01*
X190573275Y-52076000D01*
X190531794Y-52071915D01*
X190497816Y-52061607D01*
X190466495Y-52044866D01*
X190439046Y-52022339D01*
X190416519Y-51994890D01*
X190399778Y-51963569D01*
X190389470Y-51929591D01*
X190385385Y-51888110D01*
X190385385Y-51286890D01*
X190389470Y-51245409D01*
X190399778Y-51211431D01*
X190416519Y-51180110D01*
X190439046Y-51152661D01*
X190466495Y-51130134D01*
X190497816Y-51113393D01*
X190531794Y-51103085D01*
X190573275Y-51099000D01*
X191249495Y-51099000D01*
X191290976Y-51103085D01*
X191290976Y-51103085D01*
G37*
G36*
X97454097Y-51103085D02*
G01*
X97488075Y-51113393D01*
X97519396Y-51130134D01*
X97546845Y-51152661D01*
X97569372Y-51180110D01*
X97586113Y-51211431D01*
X97596421Y-51245409D01*
X97600506Y-51286890D01*
X97600506Y-51888110D01*
X97596421Y-51929591D01*
X97586113Y-51963569D01*
X97569372Y-51994890D01*
X97546845Y-52022339D01*
X97519396Y-52044866D01*
X97488075Y-52061607D01*
X97454097Y-52071915D01*
X97412616Y-52076000D01*
X96736396Y-52076000D01*
X96694915Y-52071915D01*
X96660937Y-52061607D01*
X96629616Y-52044866D01*
X96602167Y-52022339D01*
X96579640Y-51994890D01*
X96562899Y-51963569D01*
X96552591Y-51929591D01*
X96548506Y-51888110D01*
X96548506Y-51286890D01*
X96552591Y-51245409D01*
X96562899Y-51211431D01*
X96579640Y-51180110D01*
X96602167Y-51152661D01*
X96629616Y-51130134D01*
X96660937Y-51113393D01*
X96694915Y-51103085D01*
X96736396Y-51099000D01*
X97412616Y-51099000D01*
X97454097Y-51103085D01*
X97454097Y-51103085D01*
G37*
G36*
X110547615Y-51103085D02*
G01*
X110581593Y-51113393D01*
X110612914Y-51130134D01*
X110640363Y-51152661D01*
X110662890Y-51180110D01*
X110679631Y-51211431D01*
X110689939Y-51245409D01*
X110694024Y-51286890D01*
X110694024Y-51888110D01*
X110689939Y-51929591D01*
X110679631Y-51963569D01*
X110662890Y-51994890D01*
X110640363Y-52022339D01*
X110612914Y-52044866D01*
X110581593Y-52061607D01*
X110547615Y-52071915D01*
X110506134Y-52076000D01*
X109829914Y-52076000D01*
X109788433Y-52071915D01*
X109754455Y-52061607D01*
X109723134Y-52044866D01*
X109695685Y-52022339D01*
X109673158Y-51994890D01*
X109656417Y-51963569D01*
X109646109Y-51929591D01*
X109642024Y-51888110D01*
X109642024Y-51286890D01*
X109646109Y-51245409D01*
X109656417Y-51211431D01*
X109673158Y-51180110D01*
X109695685Y-51152661D01*
X109723134Y-51130134D01*
X109754455Y-51113393D01*
X109788433Y-51103085D01*
X109829914Y-51099000D01*
X110506134Y-51099000D01*
X110547615Y-51103085D01*
X110547615Y-51103085D01*
G37*
G36*
X99636350Y-51103085D02*
G01*
X99670328Y-51113393D01*
X99701649Y-51130134D01*
X99729098Y-51152661D01*
X99751625Y-51180110D01*
X99768366Y-51211431D01*
X99778674Y-51245409D01*
X99782759Y-51286890D01*
X99782759Y-51888110D01*
X99778674Y-51929591D01*
X99768366Y-51963569D01*
X99751625Y-51994890D01*
X99729098Y-52022339D01*
X99701649Y-52044866D01*
X99670328Y-52061607D01*
X99636350Y-52071915D01*
X99594869Y-52076000D01*
X98918649Y-52076000D01*
X98877168Y-52071915D01*
X98843190Y-52061607D01*
X98811869Y-52044866D01*
X98784420Y-52022339D01*
X98761893Y-51994890D01*
X98745152Y-51963569D01*
X98734844Y-51929591D01*
X98730759Y-51888110D01*
X98730759Y-51286890D01*
X98734844Y-51245409D01*
X98745152Y-51211431D01*
X98761893Y-51180110D01*
X98784420Y-51152661D01*
X98811869Y-51130134D01*
X98843190Y-51113393D01*
X98877168Y-51103085D01*
X98918649Y-51099000D01*
X99594869Y-51099000D01*
X99636350Y-51103085D01*
X99636350Y-51103085D01*
G37*
G36*
X114912121Y-51103085D02*
G01*
X114946099Y-51113393D01*
X114977420Y-51130134D01*
X115004869Y-51152661D01*
X115027396Y-51180110D01*
X115044137Y-51211431D01*
X115054445Y-51245409D01*
X115058530Y-51286890D01*
X115058530Y-51888110D01*
X115054445Y-51929591D01*
X115044137Y-51963569D01*
X115027396Y-51994890D01*
X115004869Y-52022339D01*
X114977420Y-52044866D01*
X114946099Y-52061607D01*
X114912121Y-52071915D01*
X114870640Y-52076000D01*
X114194420Y-52076000D01*
X114152939Y-52071915D01*
X114118961Y-52061607D01*
X114087640Y-52044866D01*
X114060191Y-52022339D01*
X114037664Y-51994890D01*
X114020923Y-51963569D01*
X114010615Y-51929591D01*
X114006530Y-51888110D01*
X114006530Y-51286890D01*
X114010615Y-51245409D01*
X114020923Y-51211431D01*
X114037664Y-51180110D01*
X114060191Y-51152661D01*
X114087640Y-51130134D01*
X114118961Y-51113393D01*
X114152939Y-51103085D01*
X114194420Y-51099000D01*
X114870640Y-51099000D01*
X114912121Y-51103085D01*
X114912121Y-51103085D01*
G37*
G36*
X101818603Y-51103085D02*
G01*
X101852581Y-51113393D01*
X101883902Y-51130134D01*
X101911351Y-51152661D01*
X101933878Y-51180110D01*
X101950619Y-51211431D01*
X101960927Y-51245409D01*
X101965012Y-51286890D01*
X101965012Y-51888110D01*
X101960927Y-51929591D01*
X101950619Y-51963569D01*
X101933878Y-51994890D01*
X101911351Y-52022339D01*
X101883902Y-52044866D01*
X101852581Y-52061607D01*
X101818603Y-52071915D01*
X101777122Y-52076000D01*
X101100902Y-52076000D01*
X101059421Y-52071915D01*
X101025443Y-52061607D01*
X100994122Y-52044866D01*
X100966673Y-52022339D01*
X100944146Y-51994890D01*
X100927405Y-51963569D01*
X100917097Y-51929591D01*
X100913012Y-51888110D01*
X100913012Y-51286890D01*
X100917097Y-51245409D01*
X100927405Y-51211431D01*
X100944146Y-51180110D01*
X100966673Y-51152661D01*
X100994122Y-51130134D01*
X101025443Y-51113393D01*
X101059421Y-51103085D01*
X101100902Y-51099000D01*
X101777122Y-51099000D01*
X101818603Y-51103085D01*
X101818603Y-51103085D01*
G37*
G36*
X117094374Y-51103085D02*
G01*
X117128352Y-51113393D01*
X117159673Y-51130134D01*
X117187122Y-51152661D01*
X117209649Y-51180110D01*
X117226390Y-51211431D01*
X117236698Y-51245409D01*
X117240783Y-51286890D01*
X117240783Y-51888110D01*
X117236698Y-51929591D01*
X117226390Y-51963569D01*
X117209649Y-51994890D01*
X117187122Y-52022339D01*
X117159673Y-52044866D01*
X117128352Y-52061607D01*
X117094374Y-52071915D01*
X117052893Y-52076000D01*
X116376673Y-52076000D01*
X116335192Y-52071915D01*
X116301214Y-52061607D01*
X116269893Y-52044866D01*
X116242444Y-52022339D01*
X116219917Y-51994890D01*
X116203176Y-51963569D01*
X116192868Y-51929591D01*
X116188783Y-51888110D01*
X116188783Y-51286890D01*
X116192868Y-51245409D01*
X116203176Y-51211431D01*
X116219917Y-51180110D01*
X116242444Y-51152661D01*
X116269893Y-51130134D01*
X116301214Y-51113393D01*
X116335192Y-51103085D01*
X116376673Y-51099000D01*
X117052893Y-51099000D01*
X117094374Y-51103085D01*
X117094374Y-51103085D01*
G37*
G36*
X123641133Y-51103085D02*
G01*
X123675111Y-51113393D01*
X123706432Y-51130134D01*
X123733881Y-51152661D01*
X123756408Y-51180110D01*
X123773149Y-51211431D01*
X123783457Y-51245409D01*
X123787542Y-51286890D01*
X123787542Y-51888110D01*
X123783457Y-51929591D01*
X123773149Y-51963569D01*
X123756408Y-51994890D01*
X123733881Y-52022339D01*
X123706432Y-52044866D01*
X123675111Y-52061607D01*
X123641133Y-52071915D01*
X123599652Y-52076000D01*
X122923432Y-52076000D01*
X122881951Y-52071915D01*
X122847973Y-52061607D01*
X122816652Y-52044866D01*
X122789203Y-52022339D01*
X122766676Y-51994890D01*
X122749935Y-51963569D01*
X122739627Y-51929591D01*
X122735542Y-51888110D01*
X122735542Y-51286890D01*
X122739627Y-51245409D01*
X122749935Y-51211431D01*
X122766676Y-51180110D01*
X122789203Y-51152661D01*
X122816652Y-51130134D01*
X122847973Y-51113393D01*
X122881951Y-51103085D01*
X122923432Y-51099000D01*
X123599652Y-51099000D01*
X123641133Y-51103085D01*
X123641133Y-51103085D01*
G37*
G36*
X104000856Y-51103085D02*
G01*
X104034834Y-51113393D01*
X104066155Y-51130134D01*
X104093604Y-51152661D01*
X104116131Y-51180110D01*
X104132872Y-51211431D01*
X104143180Y-51245409D01*
X104147265Y-51286890D01*
X104147265Y-51888110D01*
X104143180Y-51929591D01*
X104132872Y-51963569D01*
X104116131Y-51994890D01*
X104093604Y-52022339D01*
X104066155Y-52044866D01*
X104034834Y-52061607D01*
X104000856Y-52071915D01*
X103959375Y-52076000D01*
X103283155Y-52076000D01*
X103241674Y-52071915D01*
X103207696Y-52061607D01*
X103176375Y-52044866D01*
X103148926Y-52022339D01*
X103126399Y-51994890D01*
X103109658Y-51963569D01*
X103099350Y-51929591D01*
X103095265Y-51888110D01*
X103095265Y-51286890D01*
X103099350Y-51245409D01*
X103109658Y-51211431D01*
X103126399Y-51180110D01*
X103148926Y-51152661D01*
X103176375Y-51130134D01*
X103207696Y-51113393D01*
X103241674Y-51103085D01*
X103283155Y-51099000D01*
X103959375Y-51099000D01*
X104000856Y-51103085D01*
X104000856Y-51103085D01*
G37*
G36*
X173832952Y-51103085D02*
G01*
X173866930Y-51113393D01*
X173898251Y-51130134D01*
X173925700Y-51152661D01*
X173948227Y-51180110D01*
X173964968Y-51211431D01*
X173975276Y-51245409D01*
X173979361Y-51286890D01*
X173979361Y-51888110D01*
X173975276Y-51929591D01*
X173964968Y-51963569D01*
X173948227Y-51994890D01*
X173925700Y-52022339D01*
X173898251Y-52044866D01*
X173866930Y-52061607D01*
X173832952Y-52071915D01*
X173791471Y-52076000D01*
X173115251Y-52076000D01*
X173073770Y-52071915D01*
X173039792Y-52061607D01*
X173008471Y-52044866D01*
X172981022Y-52022339D01*
X172958495Y-51994890D01*
X172941754Y-51963569D01*
X172931446Y-51929591D01*
X172927361Y-51888110D01*
X172927361Y-51286890D01*
X172931446Y-51245409D01*
X172941754Y-51211431D01*
X172958495Y-51180110D01*
X172981022Y-51152661D01*
X173008471Y-51130134D01*
X173039792Y-51113393D01*
X173073770Y-51103085D01*
X173115251Y-51099000D01*
X173791471Y-51099000D01*
X173832952Y-51103085D01*
X173832952Y-51103085D01*
G37*
G36*
X248029591Y-51103085D02*
G01*
X248063569Y-51113393D01*
X248094890Y-51130134D01*
X248122339Y-51152661D01*
X248144866Y-51180110D01*
X248161607Y-51211431D01*
X248171915Y-51245409D01*
X248176000Y-51286890D01*
X248176000Y-51888110D01*
X248171915Y-51929591D01*
X248161607Y-51963569D01*
X248144866Y-51994890D01*
X248122339Y-52022339D01*
X248094890Y-52044866D01*
X248063569Y-52061607D01*
X248029591Y-52071915D01*
X247988110Y-52076000D01*
X247311890Y-52076000D01*
X247270409Y-52071915D01*
X247236431Y-52061607D01*
X247205110Y-52044866D01*
X247177661Y-52022339D01*
X247155134Y-51994890D01*
X247138393Y-51963569D01*
X247128085Y-51929591D01*
X247124000Y-51888110D01*
X247124000Y-51286890D01*
X247128085Y-51245409D01*
X247138393Y-51211431D01*
X247155134Y-51180110D01*
X247177661Y-51152661D01*
X247205110Y-51130134D01*
X247236431Y-51113393D01*
X247270409Y-51103085D01*
X247311890Y-51099000D01*
X247988110Y-51099000D01*
X248029591Y-51103085D01*
X248029591Y-51103085D01*
G37*
G36*
X138916904Y-51103085D02*
G01*
X138950882Y-51113393D01*
X138982203Y-51130134D01*
X139009652Y-51152661D01*
X139032179Y-51180110D01*
X139048920Y-51211431D01*
X139059228Y-51245409D01*
X139063313Y-51286890D01*
X139063313Y-51888110D01*
X139059228Y-51929591D01*
X139048920Y-51963569D01*
X139032179Y-51994890D01*
X139009652Y-52022339D01*
X138982203Y-52044866D01*
X138950882Y-52061607D01*
X138916904Y-52071915D01*
X138875423Y-52076000D01*
X138199203Y-52076000D01*
X138157722Y-52071915D01*
X138123744Y-52061607D01*
X138092423Y-52044866D01*
X138064974Y-52022339D01*
X138042447Y-51994890D01*
X138025706Y-51963569D01*
X138015398Y-51929591D01*
X138011313Y-51888110D01*
X138011313Y-51286890D01*
X138015398Y-51245409D01*
X138025706Y-51211431D01*
X138042447Y-51180110D01*
X138064974Y-51152661D01*
X138092423Y-51130134D01*
X138123744Y-51113393D01*
X138157722Y-51103085D01*
X138199203Y-51099000D01*
X138875423Y-51099000D01*
X138916904Y-51103085D01*
X138916904Y-51103085D01*
G37*
G36*
X141099157Y-51103085D02*
G01*
X141133135Y-51113393D01*
X141164456Y-51130134D01*
X141191905Y-51152661D01*
X141214432Y-51180110D01*
X141231173Y-51211431D01*
X141241481Y-51245409D01*
X141245566Y-51286890D01*
X141245566Y-51888110D01*
X141241481Y-51929591D01*
X141231173Y-51963569D01*
X141214432Y-51994890D01*
X141191905Y-52022339D01*
X141164456Y-52044866D01*
X141133135Y-52061607D01*
X141099157Y-52071915D01*
X141057676Y-52076000D01*
X140381456Y-52076000D01*
X140339975Y-52071915D01*
X140305997Y-52061607D01*
X140274676Y-52044866D01*
X140247227Y-52022339D01*
X140224700Y-51994890D01*
X140207959Y-51963569D01*
X140197651Y-51929591D01*
X140193566Y-51888110D01*
X140193566Y-51286890D01*
X140197651Y-51245409D01*
X140207959Y-51211431D01*
X140224700Y-51180110D01*
X140247227Y-51152661D01*
X140274676Y-51130134D01*
X140305997Y-51113393D01*
X140339975Y-51103085D01*
X140381456Y-51099000D01*
X141057676Y-51099000D01*
X141099157Y-51103085D01*
X141099157Y-51103085D01*
G37*
G36*
X143281410Y-51103085D02*
G01*
X143315388Y-51113393D01*
X143346709Y-51130134D01*
X143374158Y-51152661D01*
X143396685Y-51180110D01*
X143413426Y-51211431D01*
X143423734Y-51245409D01*
X143427819Y-51286890D01*
X143427819Y-51888110D01*
X143423734Y-51929591D01*
X143413426Y-51963569D01*
X143396685Y-51994890D01*
X143374158Y-52022339D01*
X143346709Y-52044866D01*
X143315388Y-52061607D01*
X143281410Y-52071915D01*
X143239929Y-52076000D01*
X142563709Y-52076000D01*
X142522228Y-52071915D01*
X142488250Y-52061607D01*
X142456929Y-52044866D01*
X142429480Y-52022339D01*
X142406953Y-51994890D01*
X142390212Y-51963569D01*
X142379904Y-51929591D01*
X142375819Y-51888110D01*
X142375819Y-51286890D01*
X142379904Y-51245409D01*
X142390212Y-51211431D01*
X142406953Y-51180110D01*
X142429480Y-51152661D01*
X142456929Y-51130134D01*
X142488250Y-51113393D01*
X142522228Y-51103085D01*
X142563709Y-51099000D01*
X143239929Y-51099000D01*
X143281410Y-51103085D01*
X143281410Y-51103085D01*
G37*
G36*
X245847301Y-51103085D02*
G01*
X245881279Y-51113393D01*
X245912600Y-51130134D01*
X245940049Y-51152661D01*
X245962576Y-51180110D01*
X245979317Y-51211431D01*
X245989625Y-51245409D01*
X245993710Y-51286890D01*
X245993710Y-51888110D01*
X245989625Y-51929591D01*
X245979317Y-51963569D01*
X245962576Y-51994890D01*
X245940049Y-52022339D01*
X245912600Y-52044866D01*
X245881279Y-52061607D01*
X245847301Y-52071915D01*
X245805820Y-52076000D01*
X245129600Y-52076000D01*
X245088119Y-52071915D01*
X245054141Y-52061607D01*
X245022820Y-52044866D01*
X244995371Y-52022339D01*
X244972844Y-51994890D01*
X244956103Y-51963569D01*
X244945795Y-51929591D01*
X244941710Y-51888110D01*
X244941710Y-51286890D01*
X244945795Y-51245409D01*
X244956103Y-51211431D01*
X244972844Y-51180110D01*
X244995371Y-51152661D01*
X245022820Y-51130134D01*
X245054141Y-51113393D01*
X245088119Y-51103085D01*
X245129600Y-51099000D01*
X245805820Y-51099000D01*
X245847301Y-51103085D01*
X245847301Y-51103085D01*
G37*
G36*
X189108723Y-51103085D02*
G01*
X189142701Y-51113393D01*
X189174022Y-51130134D01*
X189201471Y-51152661D01*
X189223998Y-51180110D01*
X189240739Y-51211431D01*
X189251047Y-51245409D01*
X189255132Y-51286890D01*
X189255132Y-51888110D01*
X189251047Y-51929591D01*
X189240739Y-51963569D01*
X189223998Y-51994890D01*
X189201471Y-52022339D01*
X189174022Y-52044866D01*
X189142701Y-52061607D01*
X189108723Y-52071915D01*
X189067242Y-52076000D01*
X188391022Y-52076000D01*
X188349541Y-52071915D01*
X188315563Y-52061607D01*
X188284242Y-52044866D01*
X188256793Y-52022339D01*
X188234266Y-51994890D01*
X188217525Y-51963569D01*
X188207217Y-51929591D01*
X188203132Y-51888110D01*
X188203132Y-51286890D01*
X188207217Y-51245409D01*
X188217525Y-51211431D01*
X188234266Y-51180110D01*
X188256793Y-51152661D01*
X188284242Y-51130134D01*
X188315563Y-51113393D01*
X188349541Y-51103085D01*
X188391022Y-51099000D01*
X189067242Y-51099000D01*
X189108723Y-51103085D01*
X189108723Y-51103085D01*
G37*
G36*
X176015205Y-51103085D02*
G01*
X176049183Y-51113393D01*
X176080504Y-51130134D01*
X176107953Y-51152661D01*
X176130480Y-51180110D01*
X176147221Y-51211431D01*
X176157529Y-51245409D01*
X176161614Y-51286890D01*
X176161614Y-51888110D01*
X176157529Y-51929591D01*
X176147221Y-51963569D01*
X176130480Y-51994890D01*
X176107953Y-52022339D01*
X176080504Y-52044866D01*
X176049183Y-52061607D01*
X176015205Y-52071915D01*
X175973724Y-52076000D01*
X175297504Y-52076000D01*
X175256023Y-52071915D01*
X175222045Y-52061607D01*
X175190724Y-52044866D01*
X175163275Y-52022339D01*
X175140748Y-51994890D01*
X175124007Y-51963569D01*
X175113699Y-51929591D01*
X175109614Y-51888110D01*
X175109614Y-51286890D01*
X175113699Y-51245409D01*
X175124007Y-51211431D01*
X175140748Y-51180110D01*
X175163275Y-51152661D01*
X175190724Y-51130134D01*
X175222045Y-51113393D01*
X175256023Y-51103085D01*
X175297504Y-51099000D01*
X175973724Y-51099000D01*
X176015205Y-51103085D01*
X176015205Y-51103085D01*
G37*
G36*
X152010422Y-51103085D02*
G01*
X152044400Y-51113393D01*
X152075721Y-51130134D01*
X152103170Y-51152661D01*
X152125697Y-51180110D01*
X152142438Y-51211431D01*
X152152746Y-51245409D01*
X152156831Y-51286890D01*
X152156831Y-51888110D01*
X152152746Y-51929591D01*
X152142438Y-51963569D01*
X152125697Y-51994890D01*
X152103170Y-52022339D01*
X152075721Y-52044866D01*
X152044400Y-52061607D01*
X152010422Y-52071915D01*
X151968941Y-52076000D01*
X151292721Y-52076000D01*
X151251240Y-52071915D01*
X151217262Y-52061607D01*
X151185941Y-52044866D01*
X151158492Y-52022339D01*
X151135965Y-51994890D01*
X151119224Y-51963569D01*
X151108916Y-51929591D01*
X151104831Y-51888110D01*
X151104831Y-51286890D01*
X151108916Y-51245409D01*
X151119224Y-51211431D01*
X151135965Y-51180110D01*
X151158492Y-51152661D01*
X151185941Y-51130134D01*
X151217262Y-51113393D01*
X151251240Y-51103085D01*
X151292721Y-51099000D01*
X151968941Y-51099000D01*
X152010422Y-51103085D01*
X152010422Y-51103085D01*
G37*
G36*
X145463663Y-51103085D02*
G01*
X145497641Y-51113393D01*
X145528962Y-51130134D01*
X145556411Y-51152661D01*
X145578938Y-51180110D01*
X145595679Y-51211431D01*
X145605987Y-51245409D01*
X145610072Y-51286890D01*
X145610072Y-51888110D01*
X145605987Y-51929591D01*
X145595679Y-51963569D01*
X145578938Y-51994890D01*
X145556411Y-52022339D01*
X145528962Y-52044866D01*
X145497641Y-52061607D01*
X145463663Y-52071915D01*
X145422182Y-52076000D01*
X144745962Y-52076000D01*
X144704481Y-52071915D01*
X144670503Y-52061607D01*
X144639182Y-52044866D01*
X144611733Y-52022339D01*
X144589206Y-51994890D01*
X144572465Y-51963569D01*
X144562157Y-51929591D01*
X144558072Y-51888110D01*
X144558072Y-51286890D01*
X144562157Y-51245409D01*
X144572465Y-51211431D01*
X144589206Y-51180110D01*
X144611733Y-51152661D01*
X144639182Y-51130134D01*
X144670503Y-51113393D01*
X144704481Y-51103085D01*
X144745962Y-51099000D01*
X145422182Y-51099000D01*
X145463663Y-51103085D01*
X145463663Y-51103085D01*
G37*
G36*
X121458880Y-51103085D02*
G01*
X121492858Y-51113393D01*
X121524179Y-51130134D01*
X121551628Y-51152661D01*
X121574155Y-51180110D01*
X121590896Y-51211431D01*
X121601204Y-51245409D01*
X121605289Y-51286890D01*
X121605289Y-51888110D01*
X121601204Y-51929591D01*
X121590896Y-51963569D01*
X121574155Y-51994890D01*
X121551628Y-52022339D01*
X121524179Y-52044866D01*
X121492858Y-52061607D01*
X121458880Y-52071915D01*
X121417399Y-52076000D01*
X120741179Y-52076000D01*
X120699698Y-52071915D01*
X120665720Y-52061607D01*
X120634399Y-52044866D01*
X120606950Y-52022339D01*
X120584423Y-51994890D01*
X120567682Y-51963569D01*
X120557374Y-51929591D01*
X120553289Y-51888110D01*
X120553289Y-51286890D01*
X120557374Y-51245409D01*
X120567682Y-51211431D01*
X120584423Y-51180110D01*
X120606950Y-51152661D01*
X120634399Y-51130134D01*
X120665720Y-51113393D01*
X120699698Y-51103085D01*
X120741179Y-51099000D01*
X121417399Y-51099000D01*
X121458880Y-51103085D01*
X121458880Y-51103085D01*
G37*
G36*
X119276627Y-51103085D02*
G01*
X119310605Y-51113393D01*
X119341926Y-51130134D01*
X119369375Y-51152661D01*
X119391902Y-51180110D01*
X119408643Y-51211431D01*
X119418951Y-51245409D01*
X119423036Y-51286890D01*
X119423036Y-51888110D01*
X119418951Y-51929591D01*
X119408643Y-51963569D01*
X119391902Y-51994890D01*
X119369375Y-52022339D01*
X119341926Y-52044866D01*
X119310605Y-52061607D01*
X119276627Y-52071915D01*
X119235146Y-52076000D01*
X118558926Y-52076000D01*
X118517445Y-52071915D01*
X118483467Y-52061607D01*
X118452146Y-52044866D01*
X118424697Y-52022339D01*
X118402170Y-51994890D01*
X118385429Y-51963569D01*
X118375121Y-51929591D01*
X118371036Y-51888110D01*
X118371036Y-51286890D01*
X118375121Y-51245409D01*
X118385429Y-51211431D01*
X118402170Y-51180110D01*
X118424697Y-51152661D01*
X118452146Y-51130134D01*
X118483467Y-51113393D01*
X118517445Y-51103085D01*
X118558926Y-51099000D01*
X119235146Y-51099000D01*
X119276627Y-51103085D01*
X119276627Y-51103085D01*
G37*
G36*
X158557181Y-51103085D02*
G01*
X158591159Y-51113393D01*
X158622480Y-51130134D01*
X158649929Y-51152661D01*
X158672456Y-51180110D01*
X158689197Y-51211431D01*
X158699505Y-51245409D01*
X158703590Y-51286890D01*
X158703590Y-51888110D01*
X158699505Y-51929591D01*
X158689197Y-51963569D01*
X158672456Y-51994890D01*
X158649929Y-52022339D01*
X158622480Y-52044866D01*
X158591159Y-52061607D01*
X158557181Y-52071915D01*
X158515700Y-52076000D01*
X157839480Y-52076000D01*
X157797999Y-52071915D01*
X157764021Y-52061607D01*
X157732700Y-52044866D01*
X157705251Y-52022339D01*
X157682724Y-51994890D01*
X157665983Y-51963569D01*
X157655675Y-51929591D01*
X157651590Y-51888110D01*
X157651590Y-51286890D01*
X157655675Y-51245409D01*
X157665983Y-51211431D01*
X157682724Y-51180110D01*
X157705251Y-51152661D01*
X157732700Y-51130134D01*
X157764021Y-51113393D01*
X157797999Y-51103085D01*
X157839480Y-51099000D01*
X158515700Y-51099000D01*
X158557181Y-51103085D01*
X158557181Y-51103085D01*
G37*
G36*
X160739434Y-51103085D02*
G01*
X160773412Y-51113393D01*
X160804733Y-51130134D01*
X160832182Y-51152661D01*
X160854709Y-51180110D01*
X160871450Y-51211431D01*
X160881758Y-51245409D01*
X160885843Y-51286890D01*
X160885843Y-51888110D01*
X160881758Y-51929591D01*
X160871450Y-51963569D01*
X160854709Y-51994890D01*
X160832182Y-52022339D01*
X160804733Y-52044866D01*
X160773412Y-52061607D01*
X160739434Y-52071915D01*
X160697953Y-52076000D01*
X160021733Y-52076000D01*
X159980252Y-52071915D01*
X159946274Y-52061607D01*
X159914953Y-52044866D01*
X159887504Y-52022339D01*
X159864977Y-51994890D01*
X159848236Y-51963569D01*
X159837928Y-51929591D01*
X159833843Y-51888110D01*
X159833843Y-51286890D01*
X159837928Y-51245409D01*
X159848236Y-51211431D01*
X159864977Y-51180110D01*
X159887504Y-51152661D01*
X159914953Y-51130134D01*
X159946274Y-51113393D01*
X159980252Y-51103085D01*
X160021733Y-51099000D01*
X160697953Y-51099000D01*
X160739434Y-51103085D01*
X160739434Y-51103085D01*
G37*
G36*
X147645916Y-51103085D02*
G01*
X147679894Y-51113393D01*
X147711215Y-51130134D01*
X147738664Y-51152661D01*
X147761191Y-51180110D01*
X147777932Y-51211431D01*
X147788240Y-51245409D01*
X147792325Y-51286890D01*
X147792325Y-51888110D01*
X147788240Y-51929591D01*
X147777932Y-51963569D01*
X147761191Y-51994890D01*
X147738664Y-52022339D01*
X147711215Y-52044866D01*
X147679894Y-52061607D01*
X147645916Y-52071915D01*
X147604435Y-52076000D01*
X146928215Y-52076000D01*
X146886734Y-52071915D01*
X146852756Y-52061607D01*
X146821435Y-52044866D01*
X146793986Y-52022339D01*
X146771459Y-51994890D01*
X146754718Y-51963569D01*
X146744410Y-51929591D01*
X146740325Y-51888110D01*
X146740325Y-51286890D01*
X146744410Y-51245409D01*
X146754718Y-51211431D01*
X146771459Y-51180110D01*
X146793986Y-51152661D01*
X146821435Y-51130134D01*
X146852756Y-51113393D01*
X146886734Y-51103085D01*
X146928215Y-51099000D01*
X147604435Y-51099000D01*
X147645916Y-51103085D01*
X147645916Y-51103085D01*
G37*
G36*
X162921687Y-51103085D02*
G01*
X162955665Y-51113393D01*
X162986986Y-51130134D01*
X163014435Y-51152661D01*
X163036962Y-51180110D01*
X163053703Y-51211431D01*
X163064011Y-51245409D01*
X163068096Y-51286890D01*
X163068096Y-51888110D01*
X163064011Y-51929591D01*
X163053703Y-51963569D01*
X163036962Y-51994890D01*
X163014435Y-52022339D01*
X162986986Y-52044866D01*
X162955665Y-52061607D01*
X162921687Y-52071915D01*
X162880206Y-52076000D01*
X162203986Y-52076000D01*
X162162505Y-52071915D01*
X162128527Y-52061607D01*
X162097206Y-52044866D01*
X162069757Y-52022339D01*
X162047230Y-51994890D01*
X162030489Y-51963569D01*
X162020181Y-51929591D01*
X162016096Y-51888110D01*
X162016096Y-51286890D01*
X162020181Y-51245409D01*
X162030489Y-51211431D01*
X162047230Y-51180110D01*
X162069757Y-51152661D01*
X162097206Y-51130134D01*
X162128527Y-51113393D01*
X162162505Y-51103085D01*
X162203986Y-51099000D01*
X162880206Y-51099000D01*
X162921687Y-51103085D01*
X162921687Y-51103085D01*
G37*
G36*
X149828169Y-51103085D02*
G01*
X149862147Y-51113393D01*
X149893468Y-51130134D01*
X149920917Y-51152661D01*
X149943444Y-51180110D01*
X149960185Y-51211431D01*
X149970493Y-51245409D01*
X149974578Y-51286890D01*
X149974578Y-51888110D01*
X149970493Y-51929591D01*
X149960185Y-51963569D01*
X149943444Y-51994890D01*
X149920917Y-52022339D01*
X149893468Y-52044866D01*
X149862147Y-52061607D01*
X149828169Y-52071915D01*
X149786688Y-52076000D01*
X149110468Y-52076000D01*
X149068987Y-52071915D01*
X149035009Y-52061607D01*
X149003688Y-52044866D01*
X148976239Y-52022339D01*
X148953712Y-51994890D01*
X148936971Y-51963569D01*
X148926663Y-51929591D01*
X148922578Y-51888110D01*
X148922578Y-51286890D01*
X148926663Y-51245409D01*
X148936971Y-51211431D01*
X148953712Y-51180110D01*
X148976239Y-51152661D01*
X149003688Y-51130134D01*
X149035009Y-51113393D01*
X149068987Y-51103085D01*
X149110468Y-51099000D01*
X149786688Y-51099000D01*
X149828169Y-51103085D01*
X149828169Y-51103085D01*
G37*
G36*
X108365362Y-51103085D02*
G01*
X108399340Y-51113393D01*
X108430661Y-51130134D01*
X108458110Y-51152661D01*
X108480637Y-51180110D01*
X108497378Y-51211431D01*
X108507686Y-51245409D01*
X108511771Y-51286890D01*
X108511771Y-51888110D01*
X108507686Y-51929591D01*
X108497378Y-51963569D01*
X108480637Y-51994890D01*
X108458110Y-52022339D01*
X108430661Y-52044866D01*
X108399340Y-52061607D01*
X108365362Y-52071915D01*
X108323881Y-52076000D01*
X107647661Y-52076000D01*
X107606180Y-52071915D01*
X107572202Y-52061607D01*
X107540881Y-52044866D01*
X107513432Y-52022339D01*
X107490905Y-51994890D01*
X107474164Y-51963569D01*
X107463856Y-51929591D01*
X107459771Y-51888110D01*
X107459771Y-51286890D01*
X107463856Y-51245409D01*
X107474164Y-51211431D01*
X107490905Y-51180110D01*
X107513432Y-51152661D01*
X107540881Y-51130134D01*
X107572202Y-51113393D01*
X107606180Y-51103085D01*
X107647661Y-51099000D01*
X108323881Y-51099000D01*
X108365362Y-51103085D01*
X108365362Y-51103085D01*
G37*
G36*
X95271844Y-51103085D02*
G01*
X95305822Y-51113393D01*
X95337143Y-51130134D01*
X95364592Y-51152661D01*
X95387119Y-51180110D01*
X95403860Y-51211431D01*
X95414168Y-51245409D01*
X95418253Y-51286890D01*
X95418253Y-51888110D01*
X95414168Y-51929591D01*
X95403860Y-51963569D01*
X95387119Y-51994890D01*
X95364592Y-52022339D01*
X95337143Y-52044866D01*
X95305822Y-52061607D01*
X95271844Y-52071915D01*
X95230363Y-52076000D01*
X94554143Y-52076000D01*
X94512662Y-52071915D01*
X94478684Y-52061607D01*
X94447363Y-52044866D01*
X94419914Y-52022339D01*
X94397387Y-51994890D01*
X94380646Y-51963569D01*
X94370338Y-51929591D01*
X94366253Y-51888110D01*
X94366253Y-51286890D01*
X94370338Y-51245409D01*
X94380646Y-51211431D01*
X94397387Y-51180110D01*
X94419914Y-51152661D01*
X94447363Y-51130134D01*
X94478684Y-51113393D01*
X94512662Y-51103085D01*
X94554143Y-51099000D01*
X95230363Y-51099000D01*
X95271844Y-51103085D01*
X95271844Y-51103085D01*
G37*
G36*
X167286193Y-51103085D02*
G01*
X167320171Y-51113393D01*
X167351492Y-51130134D01*
X167378941Y-51152661D01*
X167401468Y-51180110D01*
X167418209Y-51211431D01*
X167428517Y-51245409D01*
X167432602Y-51286890D01*
X167432602Y-51888110D01*
X167428517Y-51929591D01*
X167418209Y-51963569D01*
X167401468Y-51994890D01*
X167378941Y-52022339D01*
X167351492Y-52044866D01*
X167320171Y-52061607D01*
X167286193Y-52071915D01*
X167244712Y-52076000D01*
X166568492Y-52076000D01*
X166527011Y-52071915D01*
X166493033Y-52061607D01*
X166461712Y-52044866D01*
X166434263Y-52022339D01*
X166411736Y-51994890D01*
X166394995Y-51963569D01*
X166384687Y-51929591D01*
X166380602Y-51888110D01*
X166380602Y-51286890D01*
X166384687Y-51245409D01*
X166394995Y-51211431D01*
X166411736Y-51180110D01*
X166434263Y-51152661D01*
X166461712Y-51130134D01*
X166493033Y-51113393D01*
X166527011Y-51103085D01*
X166568492Y-51099000D01*
X167244712Y-51099000D01*
X167286193Y-51103085D01*
X167286193Y-51103085D01*
G37*
G36*
X154192675Y-51103085D02*
G01*
X154226653Y-51113393D01*
X154257974Y-51130134D01*
X154285423Y-51152661D01*
X154307950Y-51180110D01*
X154324691Y-51211431D01*
X154334999Y-51245409D01*
X154339084Y-51286890D01*
X154339084Y-51888110D01*
X154334999Y-51929591D01*
X154324691Y-51963569D01*
X154307950Y-51994890D01*
X154285423Y-52022339D01*
X154257974Y-52044866D01*
X154226653Y-52061607D01*
X154192675Y-52071915D01*
X154151194Y-52076000D01*
X153474974Y-52076000D01*
X153433493Y-52071915D01*
X153399515Y-52061607D01*
X153368194Y-52044866D01*
X153340745Y-52022339D01*
X153318218Y-51994890D01*
X153301477Y-51963569D01*
X153291169Y-51929591D01*
X153287084Y-51888110D01*
X153287084Y-51286890D01*
X153291169Y-51245409D01*
X153301477Y-51211431D01*
X153318218Y-51180110D01*
X153340745Y-51152661D01*
X153368194Y-51130134D01*
X153399515Y-51113393D01*
X153433493Y-51103085D01*
X153474974Y-51099000D01*
X154151194Y-51099000D01*
X154192675Y-51103085D01*
X154192675Y-51103085D01*
G37*
G36*
X169468446Y-51103085D02*
G01*
X169502424Y-51113393D01*
X169533745Y-51130134D01*
X169561194Y-51152661D01*
X169583721Y-51180110D01*
X169600462Y-51211431D01*
X169610770Y-51245409D01*
X169614855Y-51286890D01*
X169614855Y-51888110D01*
X169610770Y-51929591D01*
X169600462Y-51963569D01*
X169583721Y-51994890D01*
X169561194Y-52022339D01*
X169533745Y-52044866D01*
X169502424Y-52061607D01*
X169468446Y-52071915D01*
X169426965Y-52076000D01*
X168750745Y-52076000D01*
X168709264Y-52071915D01*
X168675286Y-52061607D01*
X168643965Y-52044866D01*
X168616516Y-52022339D01*
X168593989Y-51994890D01*
X168577248Y-51963569D01*
X168566940Y-51929591D01*
X168562855Y-51888110D01*
X168562855Y-51286890D01*
X168566940Y-51245409D01*
X168577248Y-51211431D01*
X168593989Y-51180110D01*
X168616516Y-51152661D01*
X168643965Y-51130134D01*
X168675286Y-51113393D01*
X168709264Y-51103085D01*
X168750745Y-51099000D01*
X169426965Y-51099000D01*
X169468446Y-51103085D01*
X169468446Y-51103085D01*
G37*
G36*
X156374928Y-51103085D02*
G01*
X156408906Y-51113393D01*
X156440227Y-51130134D01*
X156467676Y-51152661D01*
X156490203Y-51180110D01*
X156506944Y-51211431D01*
X156517252Y-51245409D01*
X156521337Y-51286890D01*
X156521337Y-51888110D01*
X156517252Y-51929591D01*
X156506944Y-51963569D01*
X156490203Y-51994890D01*
X156467676Y-52022339D01*
X156440227Y-52044866D01*
X156408906Y-52061607D01*
X156374928Y-52071915D01*
X156333447Y-52076000D01*
X155657227Y-52076000D01*
X155615746Y-52071915D01*
X155581768Y-52061607D01*
X155550447Y-52044866D01*
X155522998Y-52022339D01*
X155500471Y-51994890D01*
X155483730Y-51963569D01*
X155473422Y-51929591D01*
X155469337Y-51888110D01*
X155469337Y-51286890D01*
X155473422Y-51245409D01*
X155483730Y-51211431D01*
X155500471Y-51180110D01*
X155522998Y-51152661D01*
X155550447Y-51130134D01*
X155581768Y-51113393D01*
X155615746Y-51103085D01*
X155657227Y-51099000D01*
X156333447Y-51099000D01*
X156374928Y-51103085D01*
X156374928Y-51103085D01*
G37*
G36*
X184744217Y-51103085D02*
G01*
X184778195Y-51113393D01*
X184809516Y-51130134D01*
X184836965Y-51152661D01*
X184859492Y-51180110D01*
X184876233Y-51211431D01*
X184886541Y-51245409D01*
X184890626Y-51286890D01*
X184890626Y-51888110D01*
X184886541Y-51929591D01*
X184876233Y-51963569D01*
X184859492Y-51994890D01*
X184836965Y-52022339D01*
X184809516Y-52044866D01*
X184778195Y-52061607D01*
X184744217Y-52071915D01*
X184702736Y-52076000D01*
X184026516Y-52076000D01*
X183985035Y-52071915D01*
X183951057Y-52061607D01*
X183919736Y-52044866D01*
X183892287Y-52022339D01*
X183869760Y-51994890D01*
X183853019Y-51963569D01*
X183842711Y-51929591D01*
X183838626Y-51888110D01*
X183838626Y-51286890D01*
X183842711Y-51245409D01*
X183853019Y-51211431D01*
X183869760Y-51180110D01*
X183892287Y-51152661D01*
X183919736Y-51130134D01*
X183951057Y-51113393D01*
X183985035Y-51103085D01*
X184026516Y-51099000D01*
X184702736Y-51099000D01*
X184744217Y-51103085D01*
X184744217Y-51103085D01*
G37*
G36*
X171650699Y-51103085D02*
G01*
X171684677Y-51113393D01*
X171715998Y-51130134D01*
X171743447Y-51152661D01*
X171765974Y-51180110D01*
X171782715Y-51211431D01*
X171793023Y-51245409D01*
X171797108Y-51286890D01*
X171797108Y-51888110D01*
X171793023Y-51929591D01*
X171782715Y-51963569D01*
X171765974Y-51994890D01*
X171743447Y-52022339D01*
X171715998Y-52044866D01*
X171684677Y-52061607D01*
X171650699Y-52071915D01*
X171609218Y-52076000D01*
X170932998Y-52076000D01*
X170891517Y-52071915D01*
X170857539Y-52061607D01*
X170826218Y-52044866D01*
X170798769Y-52022339D01*
X170776242Y-51994890D01*
X170759501Y-51963569D01*
X170749193Y-51929591D01*
X170745108Y-51888110D01*
X170745108Y-51286890D01*
X170749193Y-51245409D01*
X170759501Y-51211431D01*
X170776242Y-51180110D01*
X170798769Y-51152661D01*
X170826218Y-51130134D01*
X170857539Y-51113393D01*
X170891517Y-51103085D01*
X170932998Y-51099000D01*
X171609218Y-51099000D01*
X171650699Y-51103085D01*
X171650699Y-51103085D01*
G37*
G36*
X186926470Y-51103085D02*
G01*
X186960448Y-51113393D01*
X186991769Y-51130134D01*
X187019218Y-51152661D01*
X187041745Y-51180110D01*
X187058486Y-51211431D01*
X187068794Y-51245409D01*
X187072879Y-51286890D01*
X187072879Y-51888110D01*
X187068794Y-51929591D01*
X187058486Y-51963569D01*
X187041745Y-51994890D01*
X187019218Y-52022339D01*
X186991769Y-52044866D01*
X186960448Y-52061607D01*
X186926470Y-52071915D01*
X186884989Y-52076000D01*
X186208769Y-52076000D01*
X186167288Y-52071915D01*
X186133310Y-52061607D01*
X186101989Y-52044866D01*
X186074540Y-52022339D01*
X186052013Y-51994890D01*
X186035272Y-51963569D01*
X186024964Y-51929591D01*
X186020879Y-51888110D01*
X186020879Y-51286890D01*
X186024964Y-51245409D01*
X186035272Y-51211431D01*
X186052013Y-51180110D01*
X186074540Y-51152661D01*
X186101989Y-51130134D01*
X186133310Y-51113393D01*
X186167288Y-51103085D01*
X186208769Y-51099000D01*
X186884989Y-51099000D01*
X186926470Y-51103085D01*
X186926470Y-51103085D01*
G37*
G36*
X165103940Y-51103085D02*
G01*
X165137918Y-51113393D01*
X165169239Y-51130134D01*
X165196688Y-51152661D01*
X165219215Y-51180110D01*
X165235956Y-51211431D01*
X165246264Y-51245409D01*
X165250349Y-51286890D01*
X165250349Y-51888110D01*
X165246264Y-51929591D01*
X165235956Y-51963569D01*
X165219215Y-51994890D01*
X165196688Y-52022339D01*
X165169239Y-52044866D01*
X165137918Y-52061607D01*
X165103940Y-52071915D01*
X165062459Y-52076000D01*
X164386239Y-52076000D01*
X164344758Y-52071915D01*
X164310780Y-52061607D01*
X164279459Y-52044866D01*
X164252010Y-52022339D01*
X164229483Y-51994890D01*
X164212742Y-51963569D01*
X164202434Y-51929591D01*
X164198349Y-51888110D01*
X164198349Y-51286890D01*
X164202434Y-51245409D01*
X164212742Y-51211431D01*
X164229483Y-51180110D01*
X164252010Y-51152661D01*
X164279459Y-51130134D01*
X164310780Y-51113393D01*
X164344758Y-51103085D01*
X164386239Y-51099000D01*
X165062459Y-51099000D01*
X165103940Y-51103085D01*
X165103940Y-51103085D01*
G37*
G36*
X125823386Y-51103085D02*
G01*
X125857364Y-51113393D01*
X125888685Y-51130134D01*
X125916134Y-51152661D01*
X125938661Y-51180110D01*
X125955402Y-51211431D01*
X125965710Y-51245409D01*
X125969795Y-51286890D01*
X125969795Y-51888110D01*
X125965710Y-51929591D01*
X125955402Y-51963569D01*
X125938661Y-51994890D01*
X125916134Y-52022339D01*
X125888685Y-52044866D01*
X125857364Y-52061607D01*
X125823386Y-52071915D01*
X125781905Y-52076000D01*
X125105685Y-52076000D01*
X125064204Y-52071915D01*
X125030226Y-52061607D01*
X124998905Y-52044866D01*
X124971456Y-52022339D01*
X124948929Y-51994890D01*
X124932188Y-51963569D01*
X124921880Y-51929591D01*
X124917795Y-51888110D01*
X124917795Y-51286890D01*
X124921880Y-51245409D01*
X124932188Y-51211431D01*
X124948929Y-51180110D01*
X124971456Y-51152661D01*
X124998905Y-51130134D01*
X125030226Y-51113393D01*
X125064204Y-51103085D01*
X125105685Y-51099000D01*
X125781905Y-51099000D01*
X125823386Y-51103085D01*
X125823386Y-51103085D01*
G37*
G36*
X217478012Y-51103085D02*
G01*
X217511990Y-51113393D01*
X217543311Y-51130134D01*
X217570760Y-51152661D01*
X217593287Y-51180110D01*
X217610028Y-51211431D01*
X217620336Y-51245409D01*
X217624421Y-51286890D01*
X217624421Y-51888110D01*
X217620336Y-51929591D01*
X217610028Y-51963569D01*
X217593287Y-51994890D01*
X217570760Y-52022339D01*
X217543311Y-52044866D01*
X217511990Y-52061607D01*
X217478012Y-52071915D01*
X217436531Y-52076000D01*
X216760311Y-52076000D01*
X216718830Y-52071915D01*
X216684852Y-52061607D01*
X216653531Y-52044866D01*
X216626082Y-52022339D01*
X216603555Y-51994890D01*
X216586814Y-51963569D01*
X216576506Y-51929591D01*
X216572421Y-51888110D01*
X216572421Y-51286890D01*
X216576506Y-51245409D01*
X216586814Y-51211431D01*
X216603555Y-51180110D01*
X216626082Y-51152661D01*
X216653531Y-51130134D01*
X216684852Y-51113393D01*
X216718830Y-51103085D01*
X216760311Y-51099000D01*
X217436531Y-51099000D01*
X217478012Y-51103085D01*
X217478012Y-51103085D01*
G37*
G36*
X239300542Y-51103085D02*
G01*
X239334520Y-51113393D01*
X239365841Y-51130134D01*
X239393290Y-51152661D01*
X239415817Y-51180110D01*
X239432558Y-51211431D01*
X239442866Y-51245409D01*
X239446951Y-51286890D01*
X239446951Y-51888110D01*
X239442866Y-51929591D01*
X239432558Y-51963569D01*
X239415817Y-51994890D01*
X239393290Y-52022339D01*
X239365841Y-52044866D01*
X239334520Y-52061607D01*
X239300542Y-52071915D01*
X239259061Y-52076000D01*
X238582841Y-52076000D01*
X238541360Y-52071915D01*
X238507382Y-52061607D01*
X238476061Y-52044866D01*
X238448612Y-52022339D01*
X238426085Y-51994890D01*
X238409344Y-51963569D01*
X238399036Y-51929591D01*
X238394951Y-51888110D01*
X238394951Y-51286890D01*
X238399036Y-51245409D01*
X238409344Y-51211431D01*
X238426085Y-51180110D01*
X238448612Y-51152661D01*
X238476061Y-51130134D01*
X238507382Y-51113393D01*
X238541360Y-51103085D01*
X238582841Y-51099000D01*
X239259061Y-51099000D01*
X239300542Y-51103085D01*
X239300542Y-51103085D01*
G37*
G36*
X213113506Y-51103085D02*
G01*
X213147484Y-51113393D01*
X213178805Y-51130134D01*
X213206254Y-51152661D01*
X213228781Y-51180110D01*
X213245522Y-51211431D01*
X213255830Y-51245409D01*
X213259915Y-51286890D01*
X213259915Y-51888110D01*
X213255830Y-51929591D01*
X213245522Y-51963569D01*
X213228781Y-51994890D01*
X213206254Y-52022339D01*
X213178805Y-52044866D01*
X213147484Y-52061607D01*
X213113506Y-52071915D01*
X213072025Y-52076000D01*
X212395805Y-52076000D01*
X212354324Y-52071915D01*
X212320346Y-52061607D01*
X212289025Y-52044866D01*
X212261576Y-52022339D01*
X212239049Y-51994890D01*
X212222308Y-51963569D01*
X212212000Y-51929591D01*
X212207915Y-51888110D01*
X212207915Y-51286890D01*
X212212000Y-51245409D01*
X212222308Y-51211431D01*
X212239049Y-51180110D01*
X212261576Y-51152661D01*
X212289025Y-51130134D01*
X212320346Y-51113393D01*
X212354324Y-51103085D01*
X212395805Y-51099000D01*
X213072025Y-51099000D01*
X213113506Y-51103085D01*
X213113506Y-51103085D01*
G37*
G36*
X210931253Y-51103085D02*
G01*
X210965231Y-51113393D01*
X210996552Y-51130134D01*
X211024001Y-51152661D01*
X211046528Y-51180110D01*
X211063269Y-51211431D01*
X211073577Y-51245409D01*
X211077662Y-51286890D01*
X211077662Y-51888110D01*
X211073577Y-51929591D01*
X211063269Y-51963569D01*
X211046528Y-51994890D01*
X211024001Y-52022339D01*
X210996552Y-52044866D01*
X210965231Y-52061607D01*
X210931253Y-52071915D01*
X210889772Y-52076000D01*
X210213552Y-52076000D01*
X210172071Y-52071915D01*
X210138093Y-52061607D01*
X210106772Y-52044866D01*
X210079323Y-52022339D01*
X210056796Y-51994890D01*
X210040055Y-51963569D01*
X210029747Y-51929591D01*
X210025662Y-51888110D01*
X210025662Y-51286890D01*
X210029747Y-51245409D01*
X210040055Y-51211431D01*
X210056796Y-51180110D01*
X210079323Y-51152661D01*
X210106772Y-51130134D01*
X210138093Y-51113393D01*
X210172071Y-51103085D01*
X210213552Y-51099000D01*
X210889772Y-51099000D01*
X210931253Y-51103085D01*
X210931253Y-51103085D01*
G37*
G36*
X136734651Y-51103085D02*
G01*
X136768629Y-51113393D01*
X136799950Y-51130134D01*
X136827399Y-51152661D01*
X136849926Y-51180110D01*
X136866667Y-51211431D01*
X136876975Y-51245409D01*
X136881060Y-51286890D01*
X136881060Y-51888110D01*
X136876975Y-51929591D01*
X136866667Y-51963569D01*
X136849926Y-51994890D01*
X136827399Y-52022339D01*
X136799950Y-52044866D01*
X136768629Y-52061607D01*
X136734651Y-52071915D01*
X136693170Y-52076000D01*
X136016950Y-52076000D01*
X135975469Y-52071915D01*
X135941491Y-52061607D01*
X135910170Y-52044866D01*
X135882721Y-52022339D01*
X135860194Y-51994890D01*
X135843453Y-51963569D01*
X135833145Y-51929591D01*
X135829060Y-51888110D01*
X135829060Y-51286890D01*
X135833145Y-51245409D01*
X135843453Y-51211431D01*
X135860194Y-51180110D01*
X135882721Y-51152661D01*
X135910170Y-51130134D01*
X135941491Y-51113393D01*
X135975469Y-51103085D01*
X136016950Y-51099000D01*
X136693170Y-51099000D01*
X136734651Y-51103085D01*
X136734651Y-51103085D01*
G37*
G36*
X134552398Y-51103085D02*
G01*
X134586376Y-51113393D01*
X134617697Y-51130134D01*
X134645146Y-51152661D01*
X134667673Y-51180110D01*
X134684414Y-51211431D01*
X134694722Y-51245409D01*
X134698807Y-51286890D01*
X134698807Y-51888110D01*
X134694722Y-51929591D01*
X134684414Y-51963569D01*
X134667673Y-51994890D01*
X134645146Y-52022339D01*
X134617697Y-52044866D01*
X134586376Y-52061607D01*
X134552398Y-52071915D01*
X134510917Y-52076000D01*
X133834697Y-52076000D01*
X133793216Y-52071915D01*
X133759238Y-52061607D01*
X133727917Y-52044866D01*
X133700468Y-52022339D01*
X133677941Y-51994890D01*
X133661200Y-51963569D01*
X133650892Y-51929591D01*
X133646807Y-51888110D01*
X133646807Y-51286890D01*
X133650892Y-51245409D01*
X133661200Y-51211431D01*
X133677941Y-51180110D01*
X133700468Y-51152661D01*
X133727917Y-51130134D01*
X133759238Y-51113393D01*
X133793216Y-51103085D01*
X133834697Y-51099000D01*
X134510917Y-51099000D01*
X134552398Y-51103085D01*
X134552398Y-51103085D01*
G37*
G36*
X132370145Y-51103085D02*
G01*
X132404123Y-51113393D01*
X132435444Y-51130134D01*
X132462893Y-51152661D01*
X132485420Y-51180110D01*
X132502161Y-51211431D01*
X132512469Y-51245409D01*
X132516554Y-51286890D01*
X132516554Y-51888110D01*
X132512469Y-51929591D01*
X132502161Y-51963569D01*
X132485420Y-51994890D01*
X132462893Y-52022339D01*
X132435444Y-52044866D01*
X132404123Y-52061607D01*
X132370145Y-52071915D01*
X132328664Y-52076000D01*
X131652444Y-52076000D01*
X131610963Y-52071915D01*
X131576985Y-52061607D01*
X131545664Y-52044866D01*
X131518215Y-52022339D01*
X131495688Y-51994890D01*
X131478947Y-51963569D01*
X131468639Y-51929591D01*
X131464554Y-51888110D01*
X131464554Y-51286890D01*
X131468639Y-51245409D01*
X131478947Y-51211431D01*
X131495688Y-51180110D01*
X131518215Y-51152661D01*
X131545664Y-51130134D01*
X131576985Y-51113393D01*
X131610963Y-51103085D01*
X131652444Y-51099000D01*
X132328664Y-51099000D01*
X132370145Y-51103085D01*
X132370145Y-51103085D01*
G37*
G36*
X130187892Y-51103085D02*
G01*
X130221870Y-51113393D01*
X130253191Y-51130134D01*
X130280640Y-51152661D01*
X130303167Y-51180110D01*
X130319908Y-51211431D01*
X130330216Y-51245409D01*
X130334301Y-51286890D01*
X130334301Y-51888110D01*
X130330216Y-51929591D01*
X130319908Y-51963569D01*
X130303167Y-51994890D01*
X130280640Y-52022339D01*
X130253191Y-52044866D01*
X130221870Y-52061607D01*
X130187892Y-52071915D01*
X130146411Y-52076000D01*
X129470191Y-52076000D01*
X129428710Y-52071915D01*
X129394732Y-52061607D01*
X129363411Y-52044866D01*
X129335962Y-52022339D01*
X129313435Y-51994890D01*
X129296694Y-51963569D01*
X129286386Y-51929591D01*
X129282301Y-51888110D01*
X129282301Y-51286890D01*
X129286386Y-51245409D01*
X129296694Y-51211431D01*
X129313435Y-51180110D01*
X129335962Y-51152661D01*
X129363411Y-51130134D01*
X129394732Y-51113393D01*
X129428710Y-51103085D01*
X129470191Y-51099000D01*
X130146411Y-51099000D01*
X130187892Y-51103085D01*
X130187892Y-51103085D01*
G37*
G36*
X128005639Y-51103085D02*
G01*
X128039617Y-51113393D01*
X128070938Y-51130134D01*
X128098387Y-51152661D01*
X128120914Y-51180110D01*
X128137655Y-51211431D01*
X128147963Y-51245409D01*
X128152048Y-51286890D01*
X128152048Y-51888110D01*
X128147963Y-51929591D01*
X128137655Y-51963569D01*
X128120914Y-51994890D01*
X128098387Y-52022339D01*
X128070938Y-52044866D01*
X128039617Y-52061607D01*
X128005639Y-52071915D01*
X127964158Y-52076000D01*
X127287938Y-52076000D01*
X127246457Y-52071915D01*
X127212479Y-52061607D01*
X127181158Y-52044866D01*
X127153709Y-52022339D01*
X127131182Y-51994890D01*
X127114441Y-51963569D01*
X127104133Y-51929591D01*
X127100048Y-51888110D01*
X127100048Y-51286890D01*
X127104133Y-51245409D01*
X127114441Y-51211431D01*
X127131182Y-51180110D01*
X127153709Y-51152661D01*
X127181158Y-51130134D01*
X127212479Y-51113393D01*
X127246457Y-51103085D01*
X127287938Y-51099000D01*
X127964158Y-51099000D01*
X128005639Y-51103085D01*
X128005639Y-51103085D01*
G37*
G36*
X193473229Y-51103085D02*
G01*
X193507207Y-51113393D01*
X193538528Y-51130134D01*
X193565977Y-51152661D01*
X193588504Y-51180110D01*
X193605245Y-51211431D01*
X193615553Y-51245409D01*
X193619638Y-51286890D01*
X193619638Y-51888110D01*
X193615553Y-51929591D01*
X193605245Y-51963569D01*
X193588504Y-51994890D01*
X193565977Y-52022339D01*
X193538528Y-52044866D01*
X193507207Y-52061607D01*
X193473229Y-52071915D01*
X193431748Y-52076000D01*
X192755528Y-52076000D01*
X192714047Y-52071915D01*
X192680069Y-52061607D01*
X192648748Y-52044866D01*
X192621299Y-52022339D01*
X192598772Y-51994890D01*
X192582031Y-51963569D01*
X192571723Y-51929591D01*
X192567638Y-51888110D01*
X192567638Y-51286890D01*
X192571723Y-51245409D01*
X192582031Y-51211431D01*
X192598772Y-51180110D01*
X192621299Y-51152661D01*
X192648748Y-51130134D01*
X192680069Y-51113393D01*
X192714047Y-51103085D01*
X192755528Y-51099000D01*
X193431748Y-51099000D01*
X193473229Y-51103085D01*
X193473229Y-51103085D01*
G37*
G36*
X208749000Y-51103085D02*
G01*
X208782978Y-51113393D01*
X208814299Y-51130134D01*
X208841748Y-51152661D01*
X208864275Y-51180110D01*
X208881016Y-51211431D01*
X208891324Y-51245409D01*
X208895409Y-51286890D01*
X208895409Y-51888110D01*
X208891324Y-51929591D01*
X208881016Y-51963569D01*
X208864275Y-51994890D01*
X208841748Y-52022339D01*
X208814299Y-52044866D01*
X208782978Y-52061607D01*
X208749000Y-52071915D01*
X208707519Y-52076000D01*
X208031299Y-52076000D01*
X207989818Y-52071915D01*
X207955840Y-52061607D01*
X207924519Y-52044866D01*
X207897070Y-52022339D01*
X207874543Y-51994890D01*
X207857802Y-51963569D01*
X207847494Y-51929591D01*
X207843409Y-51888110D01*
X207843409Y-51286890D01*
X207847494Y-51245409D01*
X207857802Y-51211431D01*
X207874543Y-51180110D01*
X207897070Y-51152661D01*
X207924519Y-51130134D01*
X207955840Y-51113393D01*
X207989818Y-51103085D01*
X208031299Y-51099000D01*
X208707519Y-51099000D01*
X208749000Y-51103085D01*
X208749000Y-51103085D01*
G37*
G36*
X215295759Y-51103085D02*
G01*
X215329737Y-51113393D01*
X215361058Y-51130134D01*
X215388507Y-51152661D01*
X215411034Y-51180110D01*
X215427775Y-51211431D01*
X215438083Y-51245409D01*
X215442168Y-51286890D01*
X215442168Y-51888110D01*
X215438083Y-51929591D01*
X215427775Y-51963569D01*
X215411034Y-51994890D01*
X215388507Y-52022339D01*
X215361058Y-52044866D01*
X215329737Y-52061607D01*
X215295759Y-52071915D01*
X215254278Y-52076000D01*
X214578058Y-52076000D01*
X214536577Y-52071915D01*
X214502599Y-52061607D01*
X214471278Y-52044866D01*
X214443829Y-52022339D01*
X214421302Y-51994890D01*
X214404561Y-51963569D01*
X214394253Y-51929591D01*
X214390168Y-51888110D01*
X214390168Y-51286890D01*
X214394253Y-51245409D01*
X214404561Y-51211431D01*
X214421302Y-51180110D01*
X214443829Y-51152661D01*
X214471278Y-51130134D01*
X214502599Y-51113393D01*
X214536577Y-51103085D01*
X214578058Y-51099000D01*
X215254278Y-51099000D01*
X215295759Y-51103085D01*
X215295759Y-51103085D01*
G37*
G36*
X219660265Y-51103085D02*
G01*
X219694243Y-51113393D01*
X219725564Y-51130134D01*
X219753013Y-51152661D01*
X219775540Y-51180110D01*
X219792281Y-51211431D01*
X219802589Y-51245409D01*
X219806674Y-51286890D01*
X219806674Y-51888110D01*
X219802589Y-51929591D01*
X219792281Y-51963569D01*
X219775540Y-51994890D01*
X219753013Y-52022339D01*
X219725564Y-52044866D01*
X219694243Y-52061607D01*
X219660265Y-52071915D01*
X219618784Y-52076000D01*
X218942564Y-52076000D01*
X218901083Y-52071915D01*
X218867105Y-52061607D01*
X218835784Y-52044866D01*
X218808335Y-52022339D01*
X218785808Y-51994890D01*
X218769067Y-51963569D01*
X218758759Y-51929591D01*
X218754674Y-51888110D01*
X218754674Y-51286890D01*
X218758759Y-51245409D01*
X218769067Y-51211431D01*
X218785808Y-51180110D01*
X218808335Y-51152661D01*
X218835784Y-51130134D01*
X218867105Y-51113393D01*
X218901083Y-51103085D01*
X218942564Y-51099000D01*
X219618784Y-51099000D01*
X219660265Y-51103085D01*
X219660265Y-51103085D01*
G37*
G36*
X241482795Y-51103085D02*
G01*
X241516773Y-51113393D01*
X241548094Y-51130134D01*
X241575543Y-51152661D01*
X241598070Y-51180110D01*
X241614811Y-51211431D01*
X241625119Y-51245409D01*
X241629204Y-51286890D01*
X241629204Y-51888110D01*
X241625119Y-51929591D01*
X241614811Y-51963569D01*
X241598070Y-51994890D01*
X241575543Y-52022339D01*
X241548094Y-52044866D01*
X241516773Y-52061607D01*
X241482795Y-52071915D01*
X241441314Y-52076000D01*
X240765094Y-52076000D01*
X240723613Y-52071915D01*
X240689635Y-52061607D01*
X240658314Y-52044866D01*
X240630865Y-52022339D01*
X240608338Y-51994890D01*
X240591597Y-51963569D01*
X240581289Y-51929591D01*
X240577204Y-51888110D01*
X240577204Y-51286890D01*
X240581289Y-51245409D01*
X240591597Y-51211431D01*
X240608338Y-51180110D01*
X240630865Y-51152661D01*
X240658314Y-51130134D01*
X240689635Y-51113393D01*
X240723613Y-51103085D01*
X240765094Y-51099000D01*
X241441314Y-51099000D01*
X241482795Y-51103085D01*
X241482795Y-51103085D01*
G37*
G36*
X243665048Y-51103085D02*
G01*
X243699026Y-51113393D01*
X243730347Y-51130134D01*
X243757796Y-51152661D01*
X243780323Y-51180110D01*
X243797064Y-51211431D01*
X243807372Y-51245409D01*
X243811457Y-51286890D01*
X243811457Y-51888110D01*
X243807372Y-51929591D01*
X243797064Y-51963569D01*
X243780323Y-51994890D01*
X243757796Y-52022339D01*
X243730347Y-52044866D01*
X243699026Y-52061607D01*
X243665048Y-52071915D01*
X243623567Y-52076000D01*
X242947347Y-52076000D01*
X242905866Y-52071915D01*
X242871888Y-52061607D01*
X242840567Y-52044866D01*
X242813118Y-52022339D01*
X242790591Y-51994890D01*
X242773850Y-51963569D01*
X242763542Y-51929591D01*
X242759457Y-51888110D01*
X242759457Y-51286890D01*
X242763542Y-51245409D01*
X242773850Y-51211431D01*
X242790591Y-51180110D01*
X242813118Y-51152661D01*
X242840567Y-51130134D01*
X242871888Y-51113393D01*
X242905866Y-51103085D01*
X242947347Y-51099000D01*
X243623567Y-51099000D01*
X243665048Y-51103085D01*
X243665048Y-51103085D01*
G37*
G36*
X106183109Y-51103085D02*
G01*
X106217087Y-51113393D01*
X106248408Y-51130134D01*
X106275857Y-51152661D01*
X106298384Y-51180110D01*
X106315125Y-51211431D01*
X106325433Y-51245409D01*
X106329518Y-51286890D01*
X106329518Y-51888110D01*
X106325433Y-51929591D01*
X106315125Y-51963569D01*
X106298384Y-51994890D01*
X106275857Y-52022339D01*
X106248408Y-52044866D01*
X106217087Y-52061607D01*
X106183109Y-52071915D01*
X106141628Y-52076000D01*
X105465408Y-52076000D01*
X105423927Y-52071915D01*
X105389949Y-52061607D01*
X105358628Y-52044866D01*
X105331179Y-52022339D01*
X105308652Y-51994890D01*
X105291911Y-51963569D01*
X105281603Y-51929591D01*
X105277518Y-51888110D01*
X105277518Y-51286890D01*
X105281603Y-51245409D01*
X105291911Y-51211431D01*
X105308652Y-51180110D01*
X105331179Y-51152661D01*
X105358628Y-51130134D01*
X105389949Y-51113393D01*
X105423927Y-51103085D01*
X105465408Y-51099000D01*
X106141628Y-51099000D01*
X106183109Y-51103085D01*
X106183109Y-51103085D01*
G37*
G36*
X93089591Y-51103085D02*
G01*
X93123569Y-51113393D01*
X93154890Y-51130134D01*
X93182339Y-51152661D01*
X93204866Y-51180110D01*
X93221607Y-51211431D01*
X93231915Y-51245409D01*
X93236000Y-51286890D01*
X93236000Y-51888110D01*
X93231915Y-51929591D01*
X93221607Y-51963569D01*
X93204866Y-51994890D01*
X93182339Y-52022339D01*
X93154890Y-52044866D01*
X93123569Y-52061607D01*
X93089591Y-52071915D01*
X93048110Y-52076000D01*
X92371890Y-52076000D01*
X92330409Y-52071915D01*
X92296431Y-52061607D01*
X92265110Y-52044866D01*
X92237661Y-52022339D01*
X92215134Y-51994890D01*
X92198393Y-51963569D01*
X92188085Y-51929591D01*
X92184000Y-51888110D01*
X92184000Y-51286890D01*
X92188085Y-51245409D01*
X92198393Y-51211431D01*
X92215134Y-51180110D01*
X92237661Y-51152661D01*
X92265110Y-51130134D01*
X92296431Y-51113393D01*
X92330409Y-51103085D01*
X92371890Y-51099000D01*
X93048110Y-51099000D01*
X93089591Y-51103085D01*
X93089591Y-51103085D01*
G37*
G36*
X178197458Y-51103085D02*
G01*
X178231436Y-51113393D01*
X178262757Y-51130134D01*
X178290206Y-51152661D01*
X178312733Y-51180110D01*
X178329474Y-51211431D01*
X178339782Y-51245409D01*
X178343867Y-51286890D01*
X178343867Y-51888110D01*
X178339782Y-51929591D01*
X178329474Y-51963569D01*
X178312733Y-51994890D01*
X178290206Y-52022339D01*
X178262757Y-52044866D01*
X178231436Y-52061607D01*
X178197458Y-52071915D01*
X178155977Y-52076000D01*
X177479757Y-52076000D01*
X177438276Y-52071915D01*
X177404298Y-52061607D01*
X177372977Y-52044866D01*
X177345528Y-52022339D01*
X177323001Y-51994890D01*
X177306260Y-51963569D01*
X177295952Y-51929591D01*
X177291867Y-51888110D01*
X177291867Y-51286890D01*
X177295952Y-51245409D01*
X177306260Y-51211431D01*
X177323001Y-51180110D01*
X177345528Y-51152661D01*
X177372977Y-51130134D01*
X177404298Y-51113393D01*
X177438276Y-51103085D01*
X177479757Y-51099000D01*
X178155977Y-51099000D01*
X178197458Y-51103085D01*
X178197458Y-51103085D01*
G37*
G36*
X221842518Y-51103085D02*
G01*
X221876496Y-51113393D01*
X221907817Y-51130134D01*
X221935266Y-51152661D01*
X221957793Y-51180110D01*
X221974534Y-51211431D01*
X221984842Y-51245409D01*
X221988927Y-51286890D01*
X221988927Y-51888110D01*
X221984842Y-51929591D01*
X221974534Y-51963569D01*
X221957793Y-51994890D01*
X221935266Y-52022339D01*
X221907817Y-52044866D01*
X221876496Y-52061607D01*
X221842518Y-52071915D01*
X221801037Y-52076000D01*
X221124817Y-52076000D01*
X221083336Y-52071915D01*
X221049358Y-52061607D01*
X221018037Y-52044866D01*
X220990588Y-52022339D01*
X220968061Y-51994890D01*
X220951320Y-51963569D01*
X220941012Y-51929591D01*
X220936927Y-51888110D01*
X220936927Y-51286890D01*
X220941012Y-51245409D01*
X220951320Y-51211431D01*
X220968061Y-51180110D01*
X220990588Y-51152661D01*
X221018037Y-51130134D01*
X221049358Y-51113393D01*
X221083336Y-51103085D01*
X221124817Y-51099000D01*
X221801037Y-51099000D01*
X221842518Y-51103085D01*
X221842518Y-51103085D01*
G37*
G36*
X112729868Y-51103085D02*
G01*
X112763846Y-51113393D01*
X112795167Y-51130134D01*
X112822616Y-51152661D01*
X112845143Y-51180110D01*
X112861884Y-51211431D01*
X112872192Y-51245409D01*
X112876277Y-51286890D01*
X112876277Y-51888110D01*
X112872192Y-51929591D01*
X112861884Y-51963569D01*
X112845143Y-51994890D01*
X112822616Y-52022339D01*
X112795167Y-52044866D01*
X112763846Y-52061607D01*
X112729868Y-52071915D01*
X112688387Y-52076000D01*
X112012167Y-52076000D01*
X111970686Y-52071915D01*
X111936708Y-52061607D01*
X111905387Y-52044866D01*
X111877938Y-52022339D01*
X111855411Y-51994890D01*
X111838670Y-51963569D01*
X111828362Y-51929591D01*
X111824277Y-51888110D01*
X111824277Y-51286890D01*
X111828362Y-51245409D01*
X111838670Y-51211431D01*
X111855411Y-51180110D01*
X111877938Y-51152661D01*
X111905387Y-51130134D01*
X111936708Y-51113393D01*
X111970686Y-51103085D01*
X112012167Y-51099000D01*
X112688387Y-51099000D01*
X112729868Y-51103085D01*
X112729868Y-51103085D01*
G37*
G36*
X180379711Y-51103085D02*
G01*
X180413689Y-51113393D01*
X180445010Y-51130134D01*
X180472459Y-51152661D01*
X180494986Y-51180110D01*
X180511727Y-51211431D01*
X180522035Y-51245409D01*
X180526120Y-51286890D01*
X180526120Y-51888110D01*
X180522035Y-51929591D01*
X180511727Y-51963569D01*
X180494986Y-51994890D01*
X180472459Y-52022339D01*
X180445010Y-52044866D01*
X180413689Y-52061607D01*
X180379711Y-52071915D01*
X180338230Y-52076000D01*
X179662010Y-52076000D01*
X179620529Y-52071915D01*
X179586551Y-52061607D01*
X179555230Y-52044866D01*
X179527781Y-52022339D01*
X179505254Y-51994890D01*
X179488513Y-51963569D01*
X179478205Y-51929591D01*
X179474120Y-51888110D01*
X179474120Y-51286890D01*
X179478205Y-51245409D01*
X179488513Y-51211431D01*
X179505254Y-51180110D01*
X179527781Y-51152661D01*
X179555230Y-51130134D01*
X179586551Y-51113393D01*
X179620529Y-51103085D01*
X179662010Y-51099000D01*
X180338230Y-51099000D01*
X180379711Y-51103085D01*
X180379711Y-51103085D01*
G37*
G36*
X195655482Y-51103085D02*
G01*
X195689460Y-51113393D01*
X195720781Y-51130134D01*
X195748230Y-51152661D01*
X195770757Y-51180110D01*
X195787498Y-51211431D01*
X195797806Y-51245409D01*
X195801891Y-51286890D01*
X195801891Y-51888110D01*
X195797806Y-51929591D01*
X195787498Y-51963569D01*
X195770757Y-51994890D01*
X195748230Y-52022339D01*
X195720781Y-52044866D01*
X195689460Y-52061607D01*
X195655482Y-52071915D01*
X195614001Y-52076000D01*
X194937781Y-52076000D01*
X194896300Y-52071915D01*
X194862322Y-52061607D01*
X194831001Y-52044866D01*
X194803552Y-52022339D01*
X194781025Y-51994890D01*
X194764284Y-51963569D01*
X194753976Y-51929591D01*
X194749891Y-51888110D01*
X194749891Y-51286890D01*
X194753976Y-51245409D01*
X194764284Y-51211431D01*
X194781025Y-51180110D01*
X194803552Y-51152661D01*
X194831001Y-51130134D01*
X194862322Y-51113393D01*
X194896300Y-51103085D01*
X194937781Y-51099000D01*
X195614001Y-51099000D01*
X195655482Y-51103085D01*
X195655482Y-51103085D01*
G37*
G36*
X182561964Y-51103085D02*
G01*
X182595942Y-51113393D01*
X182627263Y-51130134D01*
X182654712Y-51152661D01*
X182677239Y-51180110D01*
X182693980Y-51211431D01*
X182704288Y-51245409D01*
X182708373Y-51286890D01*
X182708373Y-51888110D01*
X182704288Y-51929591D01*
X182693980Y-51963569D01*
X182677239Y-51994890D01*
X182654712Y-52022339D01*
X182627263Y-52044866D01*
X182595942Y-52061607D01*
X182561964Y-52071915D01*
X182520483Y-52076000D01*
X181844263Y-52076000D01*
X181802782Y-52071915D01*
X181768804Y-52061607D01*
X181737483Y-52044866D01*
X181710034Y-52022339D01*
X181687507Y-51994890D01*
X181670766Y-51963569D01*
X181660458Y-51929591D01*
X181656373Y-51888110D01*
X181656373Y-51286890D01*
X181660458Y-51245409D01*
X181670766Y-51211431D01*
X181687507Y-51180110D01*
X181710034Y-51152661D01*
X181737483Y-51130134D01*
X181768804Y-51113393D01*
X181802782Y-51103085D01*
X181844263Y-51099000D01*
X182520483Y-51099000D01*
X182561964Y-51103085D01*
X182561964Y-51103085D01*
G37*
G36*
X197837735Y-51103085D02*
G01*
X197871713Y-51113393D01*
X197903034Y-51130134D01*
X197930483Y-51152661D01*
X197953010Y-51180110D01*
X197969751Y-51211431D01*
X197980059Y-51245409D01*
X197984144Y-51286890D01*
X197984144Y-51888110D01*
X197980059Y-51929591D01*
X197969751Y-51963569D01*
X197953010Y-51994890D01*
X197930483Y-52022339D01*
X197903034Y-52044866D01*
X197871713Y-52061607D01*
X197837735Y-52071915D01*
X197796254Y-52076000D01*
X197120034Y-52076000D01*
X197078553Y-52071915D01*
X197044575Y-52061607D01*
X197013254Y-52044866D01*
X196985805Y-52022339D01*
X196963278Y-51994890D01*
X196946537Y-51963569D01*
X196936229Y-51929591D01*
X196932144Y-51888110D01*
X196932144Y-51286890D01*
X196936229Y-51245409D01*
X196946537Y-51211431D01*
X196963278Y-51180110D01*
X196985805Y-51152661D01*
X197013254Y-51130134D01*
X197044575Y-51113393D01*
X197078553Y-51103085D01*
X197120034Y-51099000D01*
X197796254Y-51099000D01*
X197837735Y-51103085D01*
X197837735Y-51103085D01*
G37*
G36*
X200019988Y-51103085D02*
G01*
X200053966Y-51113393D01*
X200085287Y-51130134D01*
X200112736Y-51152661D01*
X200135263Y-51180110D01*
X200152004Y-51211431D01*
X200162312Y-51245409D01*
X200166397Y-51286890D01*
X200166397Y-51888110D01*
X200162312Y-51929591D01*
X200152004Y-51963569D01*
X200135263Y-51994890D01*
X200112736Y-52022339D01*
X200085287Y-52044866D01*
X200053966Y-52061607D01*
X200019988Y-52071915D01*
X199978507Y-52076000D01*
X199302287Y-52076000D01*
X199260806Y-52071915D01*
X199226828Y-52061607D01*
X199195507Y-52044866D01*
X199168058Y-52022339D01*
X199145531Y-51994890D01*
X199128790Y-51963569D01*
X199118482Y-51929591D01*
X199114397Y-51888110D01*
X199114397Y-51286890D01*
X199118482Y-51245409D01*
X199128790Y-51211431D01*
X199145531Y-51180110D01*
X199168058Y-51152661D01*
X199195507Y-51130134D01*
X199226828Y-51113393D01*
X199260806Y-51103085D01*
X199302287Y-51099000D01*
X199978507Y-51099000D01*
X200019988Y-51103085D01*
X200019988Y-51103085D01*
G37*
G36*
X202202241Y-51103085D02*
G01*
X202236219Y-51113393D01*
X202267540Y-51130134D01*
X202294989Y-51152661D01*
X202317516Y-51180110D01*
X202334257Y-51211431D01*
X202344565Y-51245409D01*
X202348650Y-51286890D01*
X202348650Y-51888110D01*
X202344565Y-51929591D01*
X202334257Y-51963569D01*
X202317516Y-51994890D01*
X202294989Y-52022339D01*
X202267540Y-52044866D01*
X202236219Y-52061607D01*
X202202241Y-52071915D01*
X202160760Y-52076000D01*
X201484540Y-52076000D01*
X201443059Y-52071915D01*
X201409081Y-52061607D01*
X201377760Y-52044866D01*
X201350311Y-52022339D01*
X201327784Y-51994890D01*
X201311043Y-51963569D01*
X201300735Y-51929591D01*
X201296650Y-51888110D01*
X201296650Y-51286890D01*
X201300735Y-51245409D01*
X201311043Y-51211431D01*
X201327784Y-51180110D01*
X201350311Y-51152661D01*
X201377760Y-51130134D01*
X201409081Y-51113393D01*
X201443059Y-51103085D01*
X201484540Y-51099000D01*
X202160760Y-51099000D01*
X202202241Y-51103085D01*
X202202241Y-51103085D01*
G37*
G36*
X204384494Y-51103085D02*
G01*
X204418472Y-51113393D01*
X204449793Y-51130134D01*
X204477242Y-51152661D01*
X204499769Y-51180110D01*
X204516510Y-51211431D01*
X204526818Y-51245409D01*
X204530903Y-51286890D01*
X204530903Y-51888110D01*
X204526818Y-51929591D01*
X204516510Y-51963569D01*
X204499769Y-51994890D01*
X204477242Y-52022339D01*
X204449793Y-52044866D01*
X204418472Y-52061607D01*
X204384494Y-52071915D01*
X204343013Y-52076000D01*
X203666793Y-52076000D01*
X203625312Y-52071915D01*
X203591334Y-52061607D01*
X203560013Y-52044866D01*
X203532564Y-52022339D01*
X203510037Y-51994890D01*
X203493296Y-51963569D01*
X203482988Y-51929591D01*
X203478903Y-51888110D01*
X203478903Y-51286890D01*
X203482988Y-51245409D01*
X203493296Y-51211431D01*
X203510037Y-51180110D01*
X203532564Y-51152661D01*
X203560013Y-51130134D01*
X203591334Y-51113393D01*
X203625312Y-51103085D01*
X203666793Y-51099000D01*
X204343013Y-51099000D01*
X204384494Y-51103085D01*
X204384494Y-51103085D01*
G37*
G36*
X237118289Y-51103085D02*
G01*
X237152267Y-51113393D01*
X237183588Y-51130134D01*
X237211037Y-51152661D01*
X237233564Y-51180110D01*
X237250305Y-51211431D01*
X237260613Y-51245409D01*
X237264698Y-51286890D01*
X237264698Y-51888110D01*
X237260613Y-51929591D01*
X237250305Y-51963569D01*
X237233564Y-51994890D01*
X237211037Y-52022339D01*
X237183588Y-52044866D01*
X237152267Y-52061607D01*
X237118289Y-52071915D01*
X237076808Y-52076000D01*
X236400588Y-52076000D01*
X236359107Y-52071915D01*
X236325129Y-52061607D01*
X236293808Y-52044866D01*
X236266359Y-52022339D01*
X236243832Y-51994890D01*
X236227091Y-51963569D01*
X236216783Y-51929591D01*
X236212698Y-51888110D01*
X236212698Y-51286890D01*
X236216783Y-51245409D01*
X236227091Y-51211431D01*
X236243832Y-51180110D01*
X236266359Y-51152661D01*
X236293808Y-51130134D01*
X236325129Y-51113393D01*
X236359107Y-51103085D01*
X236400588Y-51099000D01*
X237076808Y-51099000D01*
X237118289Y-51103085D01*
X237118289Y-51103085D01*
G37*
G36*
X234936036Y-51103085D02*
G01*
X234970014Y-51113393D01*
X235001335Y-51130134D01*
X235028784Y-51152661D01*
X235051311Y-51180110D01*
X235068052Y-51211431D01*
X235078360Y-51245409D01*
X235082445Y-51286890D01*
X235082445Y-51888110D01*
X235078360Y-51929591D01*
X235068052Y-51963569D01*
X235051311Y-51994890D01*
X235028784Y-52022339D01*
X235001335Y-52044866D01*
X234970014Y-52061607D01*
X234936036Y-52071915D01*
X234894555Y-52076000D01*
X234218335Y-52076000D01*
X234176854Y-52071915D01*
X234142876Y-52061607D01*
X234111555Y-52044866D01*
X234084106Y-52022339D01*
X234061579Y-51994890D01*
X234044838Y-51963569D01*
X234034530Y-51929591D01*
X234030445Y-51888110D01*
X234030445Y-51286890D01*
X234034530Y-51245409D01*
X234044838Y-51211431D01*
X234061579Y-51180110D01*
X234084106Y-51152661D01*
X234111555Y-51130134D01*
X234142876Y-51113393D01*
X234176854Y-51103085D01*
X234218335Y-51099000D01*
X234894555Y-51099000D01*
X234936036Y-51103085D01*
X234936036Y-51103085D01*
G37*
G36*
X232753783Y-51103085D02*
G01*
X232787761Y-51113393D01*
X232819082Y-51130134D01*
X232846531Y-51152661D01*
X232869058Y-51180110D01*
X232885799Y-51211431D01*
X232896107Y-51245409D01*
X232900192Y-51286890D01*
X232900192Y-51888110D01*
X232896107Y-51929591D01*
X232885799Y-51963569D01*
X232869058Y-51994890D01*
X232846531Y-52022339D01*
X232819082Y-52044866D01*
X232787761Y-52061607D01*
X232753783Y-52071915D01*
X232712302Y-52076000D01*
X232036082Y-52076000D01*
X231994601Y-52071915D01*
X231960623Y-52061607D01*
X231929302Y-52044866D01*
X231901853Y-52022339D01*
X231879326Y-51994890D01*
X231862585Y-51963569D01*
X231852277Y-51929591D01*
X231848192Y-51888110D01*
X231848192Y-51286890D01*
X231852277Y-51245409D01*
X231862585Y-51211431D01*
X231879326Y-51180110D01*
X231901853Y-51152661D01*
X231929302Y-51130134D01*
X231960623Y-51113393D01*
X231994601Y-51103085D01*
X232036082Y-51099000D01*
X232712302Y-51099000D01*
X232753783Y-51103085D01*
X232753783Y-51103085D01*
G37*
G36*
X230571530Y-51103085D02*
G01*
X230605508Y-51113393D01*
X230636829Y-51130134D01*
X230664278Y-51152661D01*
X230686805Y-51180110D01*
X230703546Y-51211431D01*
X230713854Y-51245409D01*
X230717939Y-51286890D01*
X230717939Y-51888110D01*
X230713854Y-51929591D01*
X230703546Y-51963569D01*
X230686805Y-51994890D01*
X230664278Y-52022339D01*
X230636829Y-52044866D01*
X230605508Y-52061607D01*
X230571530Y-52071915D01*
X230530049Y-52076000D01*
X229853829Y-52076000D01*
X229812348Y-52071915D01*
X229778370Y-52061607D01*
X229747049Y-52044866D01*
X229719600Y-52022339D01*
X229697073Y-51994890D01*
X229680332Y-51963569D01*
X229670024Y-51929591D01*
X229665939Y-51888110D01*
X229665939Y-51286890D01*
X229670024Y-51245409D01*
X229680332Y-51211431D01*
X229697073Y-51180110D01*
X229719600Y-51152661D01*
X229747049Y-51130134D01*
X229778370Y-51113393D01*
X229812348Y-51103085D01*
X229853829Y-51099000D01*
X230530049Y-51099000D01*
X230571530Y-51103085D01*
X230571530Y-51103085D01*
G37*
G36*
X228389277Y-51103085D02*
G01*
X228423255Y-51113393D01*
X228454576Y-51130134D01*
X228482025Y-51152661D01*
X228504552Y-51180110D01*
X228521293Y-51211431D01*
X228531601Y-51245409D01*
X228535686Y-51286890D01*
X228535686Y-51888110D01*
X228531601Y-51929591D01*
X228521293Y-51963569D01*
X228504552Y-51994890D01*
X228482025Y-52022339D01*
X228454576Y-52044866D01*
X228423255Y-52061607D01*
X228389277Y-52071915D01*
X228347796Y-52076000D01*
X227671576Y-52076000D01*
X227630095Y-52071915D01*
X227596117Y-52061607D01*
X227564796Y-52044866D01*
X227537347Y-52022339D01*
X227514820Y-51994890D01*
X227498079Y-51963569D01*
X227487771Y-51929591D01*
X227483686Y-51888110D01*
X227483686Y-51286890D01*
X227487771Y-51245409D01*
X227498079Y-51211431D01*
X227514820Y-51180110D01*
X227537347Y-51152661D01*
X227564796Y-51130134D01*
X227596117Y-51113393D01*
X227630095Y-51103085D01*
X227671576Y-51099000D01*
X228347796Y-51099000D01*
X228389277Y-51103085D01*
X228389277Y-51103085D01*
G37*
G36*
X226207024Y-51103085D02*
G01*
X226241002Y-51113393D01*
X226272323Y-51130134D01*
X226299772Y-51152661D01*
X226322299Y-51180110D01*
X226339040Y-51211431D01*
X226349348Y-51245409D01*
X226353433Y-51286890D01*
X226353433Y-51888110D01*
X226349348Y-51929591D01*
X226339040Y-51963569D01*
X226322299Y-51994890D01*
X226299772Y-52022339D01*
X226272323Y-52044866D01*
X226241002Y-52061607D01*
X226207024Y-52071915D01*
X226165543Y-52076000D01*
X225489323Y-52076000D01*
X225447842Y-52071915D01*
X225413864Y-52061607D01*
X225382543Y-52044866D01*
X225355094Y-52022339D01*
X225332567Y-51994890D01*
X225315826Y-51963569D01*
X225305518Y-51929591D01*
X225301433Y-51888110D01*
X225301433Y-51286890D01*
X225305518Y-51245409D01*
X225315826Y-51211431D01*
X225332567Y-51180110D01*
X225355094Y-51152661D01*
X225382543Y-51130134D01*
X225413864Y-51113393D01*
X225447842Y-51103085D01*
X225489323Y-51099000D01*
X226165543Y-51099000D01*
X226207024Y-51103085D01*
X226207024Y-51103085D01*
G37*
G36*
X224024771Y-51103085D02*
G01*
X224058749Y-51113393D01*
X224090070Y-51130134D01*
X224117519Y-51152661D01*
X224140046Y-51180110D01*
X224156787Y-51211431D01*
X224167095Y-51245409D01*
X224171180Y-51286890D01*
X224171180Y-51888110D01*
X224167095Y-51929591D01*
X224156787Y-51963569D01*
X224140046Y-51994890D01*
X224117519Y-52022339D01*
X224090070Y-52044866D01*
X224058749Y-52061607D01*
X224024771Y-52071915D01*
X223983290Y-52076000D01*
X223307070Y-52076000D01*
X223265589Y-52071915D01*
X223231611Y-52061607D01*
X223200290Y-52044866D01*
X223172841Y-52022339D01*
X223150314Y-51994890D01*
X223133573Y-51963569D01*
X223123265Y-51929591D01*
X223119180Y-51888110D01*
X223119180Y-51286890D01*
X223123265Y-51245409D01*
X223133573Y-51211431D01*
X223150314Y-51180110D01*
X223172841Y-51152661D01*
X223200290Y-51130134D01*
X223231611Y-51113393D01*
X223265589Y-51103085D01*
X223307070Y-51099000D01*
X223983290Y-51099000D01*
X224024771Y-51103085D01*
X224024771Y-51103085D01*
G37*
G36*
X206566747Y-51103085D02*
G01*
X206600725Y-51113393D01*
X206632046Y-51130134D01*
X206659495Y-51152661D01*
X206682022Y-51180110D01*
X206698763Y-51211431D01*
X206709071Y-51245409D01*
X206713156Y-51286890D01*
X206713156Y-51888110D01*
X206709071Y-51929591D01*
X206698763Y-51963569D01*
X206682022Y-51994890D01*
X206659495Y-52022339D01*
X206632046Y-52044866D01*
X206600725Y-52061607D01*
X206566747Y-52071915D01*
X206525266Y-52076000D01*
X205849046Y-52076000D01*
X205807565Y-52071915D01*
X205773587Y-52061607D01*
X205742266Y-52044866D01*
X205714817Y-52022339D01*
X205692290Y-51994890D01*
X205675549Y-51963569D01*
X205665241Y-51929591D01*
X205661156Y-51888110D01*
X205661156Y-51286890D01*
X205665241Y-51245409D01*
X205675549Y-51211431D01*
X205692290Y-51180110D01*
X205714817Y-51152661D01*
X205742266Y-51130134D01*
X205773587Y-51113393D01*
X205807565Y-51103085D01*
X205849046Y-51099000D01*
X206525266Y-51099000D01*
X206566747Y-51103085D01*
X206566747Y-51103085D01*
G37*
G36*
X169468446Y-49528085D02*
G01*
X169502424Y-49538393D01*
X169533745Y-49555134D01*
X169561194Y-49577661D01*
X169583721Y-49605110D01*
X169600462Y-49636431D01*
X169610770Y-49670409D01*
X169614855Y-49711890D01*
X169614855Y-50313110D01*
X169610770Y-50354591D01*
X169600462Y-50388569D01*
X169583721Y-50419890D01*
X169561194Y-50447339D01*
X169533745Y-50469866D01*
X169502424Y-50486607D01*
X169468446Y-50496915D01*
X169426965Y-50501000D01*
X168750745Y-50501000D01*
X168709264Y-50496915D01*
X168675286Y-50486607D01*
X168643965Y-50469866D01*
X168616516Y-50447339D01*
X168593989Y-50419890D01*
X168577248Y-50388569D01*
X168566940Y-50354591D01*
X168562855Y-50313110D01*
X168562855Y-49711890D01*
X168566940Y-49670409D01*
X168577248Y-49636431D01*
X168593989Y-49605110D01*
X168616516Y-49577661D01*
X168643965Y-49555134D01*
X168675286Y-49538393D01*
X168709264Y-49528085D01*
X168750745Y-49524000D01*
X169426965Y-49524000D01*
X169468446Y-49528085D01*
X169468446Y-49528085D01*
G37*
G36*
X171650699Y-49528085D02*
G01*
X171684677Y-49538393D01*
X171715998Y-49555134D01*
X171743447Y-49577661D01*
X171765974Y-49605110D01*
X171782715Y-49636431D01*
X171793023Y-49670409D01*
X171797108Y-49711890D01*
X171797108Y-50313110D01*
X171793023Y-50354591D01*
X171782715Y-50388569D01*
X171765974Y-50419890D01*
X171743447Y-50447339D01*
X171715998Y-50469866D01*
X171684677Y-50486607D01*
X171650699Y-50496915D01*
X171609218Y-50501000D01*
X170932998Y-50501000D01*
X170891517Y-50496915D01*
X170857539Y-50486607D01*
X170826218Y-50469866D01*
X170798769Y-50447339D01*
X170776242Y-50419890D01*
X170759501Y-50388569D01*
X170749193Y-50354591D01*
X170745108Y-50313110D01*
X170745108Y-49711890D01*
X170749193Y-49670409D01*
X170759501Y-49636431D01*
X170776242Y-49605110D01*
X170798769Y-49577661D01*
X170826218Y-49555134D01*
X170857539Y-49538393D01*
X170891517Y-49528085D01*
X170932998Y-49524000D01*
X171609218Y-49524000D01*
X171650699Y-49528085D01*
X171650699Y-49528085D01*
G37*
G36*
X237118289Y-49528085D02*
G01*
X237152267Y-49538393D01*
X237183588Y-49555134D01*
X237211037Y-49577661D01*
X237233564Y-49605110D01*
X237250305Y-49636431D01*
X237260613Y-49670409D01*
X237264698Y-49711890D01*
X237264698Y-50313110D01*
X237260613Y-50354591D01*
X237250305Y-50388569D01*
X237233564Y-50419890D01*
X237211037Y-50447339D01*
X237183588Y-50469866D01*
X237152267Y-50486607D01*
X237118289Y-50496915D01*
X237076808Y-50501000D01*
X236400588Y-50501000D01*
X236359107Y-50496915D01*
X236325129Y-50486607D01*
X236293808Y-50469866D01*
X236266359Y-50447339D01*
X236243832Y-50419890D01*
X236227091Y-50388569D01*
X236216783Y-50354591D01*
X236212698Y-50313110D01*
X236212698Y-49711890D01*
X236216783Y-49670409D01*
X236227091Y-49636431D01*
X236243832Y-49605110D01*
X236266359Y-49577661D01*
X236293808Y-49555134D01*
X236325129Y-49538393D01*
X236359107Y-49528085D01*
X236400588Y-49524000D01*
X237076808Y-49524000D01*
X237118289Y-49528085D01*
X237118289Y-49528085D01*
G37*
G36*
X224024771Y-49528085D02*
G01*
X224058749Y-49538393D01*
X224090070Y-49555134D01*
X224117519Y-49577661D01*
X224140046Y-49605110D01*
X224156787Y-49636431D01*
X224167095Y-49670409D01*
X224171180Y-49711890D01*
X224171180Y-50313110D01*
X224167095Y-50354591D01*
X224156787Y-50388569D01*
X224140046Y-50419890D01*
X224117519Y-50447339D01*
X224090070Y-50469866D01*
X224058749Y-50486607D01*
X224024771Y-50496915D01*
X223983290Y-50501000D01*
X223307070Y-50501000D01*
X223265589Y-50496915D01*
X223231611Y-50486607D01*
X223200290Y-50469866D01*
X223172841Y-50447339D01*
X223150314Y-50419890D01*
X223133573Y-50388569D01*
X223123265Y-50354591D01*
X223119180Y-50313110D01*
X223119180Y-49711890D01*
X223123265Y-49670409D01*
X223133573Y-49636431D01*
X223150314Y-49605110D01*
X223172841Y-49577661D01*
X223200290Y-49555134D01*
X223231611Y-49538393D01*
X223265589Y-49528085D01*
X223307070Y-49524000D01*
X223983290Y-49524000D01*
X224024771Y-49528085D01*
X224024771Y-49528085D01*
G37*
G36*
X239300542Y-49528085D02*
G01*
X239334520Y-49538393D01*
X239365841Y-49555134D01*
X239393290Y-49577661D01*
X239415817Y-49605110D01*
X239432558Y-49636431D01*
X239442866Y-49670409D01*
X239446951Y-49711890D01*
X239446951Y-50313110D01*
X239442866Y-50354591D01*
X239432558Y-50388569D01*
X239415817Y-50419890D01*
X239393290Y-50447339D01*
X239365841Y-50469866D01*
X239334520Y-50486607D01*
X239300542Y-50496915D01*
X239259061Y-50501000D01*
X238582841Y-50501000D01*
X238541360Y-50496915D01*
X238507382Y-50486607D01*
X238476061Y-50469866D01*
X238448612Y-50447339D01*
X238426085Y-50419890D01*
X238409344Y-50388569D01*
X238399036Y-50354591D01*
X238394951Y-50313110D01*
X238394951Y-49711890D01*
X238399036Y-49670409D01*
X238409344Y-49636431D01*
X238426085Y-49605110D01*
X238448612Y-49577661D01*
X238476061Y-49555134D01*
X238507382Y-49538393D01*
X238541360Y-49528085D01*
X238582841Y-49524000D01*
X239259061Y-49524000D01*
X239300542Y-49528085D01*
X239300542Y-49528085D01*
G37*
G36*
X167286193Y-49528085D02*
G01*
X167320171Y-49538393D01*
X167351492Y-49555134D01*
X167378941Y-49577661D01*
X167401468Y-49605110D01*
X167418209Y-49636431D01*
X167428517Y-49670409D01*
X167432602Y-49711890D01*
X167432602Y-50313110D01*
X167428517Y-50354591D01*
X167418209Y-50388569D01*
X167401468Y-50419890D01*
X167378941Y-50447339D01*
X167351492Y-50469866D01*
X167320171Y-50486607D01*
X167286193Y-50496915D01*
X167244712Y-50501000D01*
X166568492Y-50501000D01*
X166527011Y-50496915D01*
X166493033Y-50486607D01*
X166461712Y-50469866D01*
X166434263Y-50447339D01*
X166411736Y-50419890D01*
X166394995Y-50388569D01*
X166384687Y-50354591D01*
X166380602Y-50313110D01*
X166380602Y-49711890D01*
X166384687Y-49670409D01*
X166394995Y-49636431D01*
X166411736Y-49605110D01*
X166434263Y-49577661D01*
X166461712Y-49555134D01*
X166493033Y-49538393D01*
X166527011Y-49528085D01*
X166568492Y-49524000D01*
X167244712Y-49524000D01*
X167286193Y-49528085D01*
X167286193Y-49528085D01*
G37*
G36*
X182561964Y-49528085D02*
G01*
X182595942Y-49538393D01*
X182627263Y-49555134D01*
X182654712Y-49577661D01*
X182677239Y-49605110D01*
X182693980Y-49636431D01*
X182704288Y-49670409D01*
X182708373Y-49711890D01*
X182708373Y-50313110D01*
X182704288Y-50354591D01*
X182693980Y-50388569D01*
X182677239Y-50419890D01*
X182654712Y-50447339D01*
X182627263Y-50469866D01*
X182595942Y-50486607D01*
X182561964Y-50496915D01*
X182520483Y-50501000D01*
X181844263Y-50501000D01*
X181802782Y-50496915D01*
X181768804Y-50486607D01*
X181737483Y-50469866D01*
X181710034Y-50447339D01*
X181687507Y-50419890D01*
X181670766Y-50388569D01*
X181660458Y-50354591D01*
X181656373Y-50313110D01*
X181656373Y-49711890D01*
X181660458Y-49670409D01*
X181670766Y-49636431D01*
X181687507Y-49605110D01*
X181710034Y-49577661D01*
X181737483Y-49555134D01*
X181768804Y-49538393D01*
X181802782Y-49528085D01*
X181844263Y-49524000D01*
X182520483Y-49524000D01*
X182561964Y-49528085D01*
X182561964Y-49528085D01*
G37*
G36*
X226207024Y-49528085D02*
G01*
X226241002Y-49538393D01*
X226272323Y-49555134D01*
X226299772Y-49577661D01*
X226322299Y-49605110D01*
X226339040Y-49636431D01*
X226349348Y-49670409D01*
X226353433Y-49711890D01*
X226353433Y-50313110D01*
X226349348Y-50354591D01*
X226339040Y-50388569D01*
X226322299Y-50419890D01*
X226299772Y-50447339D01*
X226272323Y-50469866D01*
X226241002Y-50486607D01*
X226207024Y-50496915D01*
X226165543Y-50501000D01*
X225489323Y-50501000D01*
X225447842Y-50496915D01*
X225413864Y-50486607D01*
X225382543Y-50469866D01*
X225355094Y-50447339D01*
X225332567Y-50419890D01*
X225315826Y-50388569D01*
X225305518Y-50354591D01*
X225301433Y-50313110D01*
X225301433Y-49711890D01*
X225305518Y-49670409D01*
X225315826Y-49636431D01*
X225332567Y-49605110D01*
X225355094Y-49577661D01*
X225382543Y-49555134D01*
X225413864Y-49538393D01*
X225447842Y-49528085D01*
X225489323Y-49524000D01*
X226165543Y-49524000D01*
X226207024Y-49528085D01*
X226207024Y-49528085D01*
G37*
G36*
X241482795Y-49528085D02*
G01*
X241516773Y-49538393D01*
X241548094Y-49555134D01*
X241575543Y-49577661D01*
X241598070Y-49605110D01*
X241614811Y-49636431D01*
X241625119Y-49670409D01*
X241629204Y-49711890D01*
X241629204Y-50313110D01*
X241625119Y-50354591D01*
X241614811Y-50388569D01*
X241598070Y-50419890D01*
X241575543Y-50447339D01*
X241548094Y-50469866D01*
X241516773Y-50486607D01*
X241482795Y-50496915D01*
X241441314Y-50501000D01*
X240765094Y-50501000D01*
X240723613Y-50496915D01*
X240689635Y-50486607D01*
X240658314Y-50469866D01*
X240630865Y-50447339D01*
X240608338Y-50419890D01*
X240591597Y-50388569D01*
X240581289Y-50354591D01*
X240577204Y-50313110D01*
X240577204Y-49711890D01*
X240581289Y-49670409D01*
X240591597Y-49636431D01*
X240608338Y-49605110D01*
X240630865Y-49577661D01*
X240658314Y-49555134D01*
X240689635Y-49538393D01*
X240723613Y-49528085D01*
X240765094Y-49524000D01*
X241441314Y-49524000D01*
X241482795Y-49528085D01*
X241482795Y-49528085D01*
G37*
G36*
X221842518Y-49528085D02*
G01*
X221876496Y-49538393D01*
X221907817Y-49555134D01*
X221935266Y-49577661D01*
X221957793Y-49605110D01*
X221974534Y-49636431D01*
X221984842Y-49670409D01*
X221988927Y-49711890D01*
X221988927Y-50313110D01*
X221984842Y-50354591D01*
X221974534Y-50388569D01*
X221957793Y-50419890D01*
X221935266Y-50447339D01*
X221907817Y-50469866D01*
X221876496Y-50486607D01*
X221842518Y-50496915D01*
X221801037Y-50501000D01*
X221124817Y-50501000D01*
X221083336Y-50496915D01*
X221049358Y-50486607D01*
X221018037Y-50469866D01*
X220990588Y-50447339D01*
X220968061Y-50419890D01*
X220951320Y-50388569D01*
X220941012Y-50354591D01*
X220936927Y-50313110D01*
X220936927Y-49711890D01*
X220941012Y-49670409D01*
X220951320Y-49636431D01*
X220968061Y-49605110D01*
X220990588Y-49577661D01*
X221018037Y-49555134D01*
X221049358Y-49538393D01*
X221083336Y-49528085D01*
X221124817Y-49524000D01*
X221801037Y-49524000D01*
X221842518Y-49528085D01*
X221842518Y-49528085D01*
G37*
G36*
X215295759Y-49528085D02*
G01*
X215329737Y-49538393D01*
X215361058Y-49555134D01*
X215388507Y-49577661D01*
X215411034Y-49605110D01*
X215427775Y-49636431D01*
X215438083Y-49670409D01*
X215442168Y-49711890D01*
X215442168Y-50313110D01*
X215438083Y-50354591D01*
X215427775Y-50388569D01*
X215411034Y-50419890D01*
X215388507Y-50447339D01*
X215361058Y-50469866D01*
X215329737Y-50486607D01*
X215295759Y-50496915D01*
X215254278Y-50501000D01*
X214578058Y-50501000D01*
X214536577Y-50496915D01*
X214502599Y-50486607D01*
X214471278Y-50469866D01*
X214443829Y-50447339D01*
X214421302Y-50419890D01*
X214404561Y-50388569D01*
X214394253Y-50354591D01*
X214390168Y-50313110D01*
X214390168Y-49711890D01*
X214394253Y-49670409D01*
X214404561Y-49636431D01*
X214421302Y-49605110D01*
X214443829Y-49577661D01*
X214471278Y-49555134D01*
X214502599Y-49538393D01*
X214536577Y-49528085D01*
X214578058Y-49524000D01*
X215254278Y-49524000D01*
X215295759Y-49528085D01*
X215295759Y-49528085D01*
G37*
G36*
X208749000Y-49528085D02*
G01*
X208782978Y-49538393D01*
X208814299Y-49555134D01*
X208841748Y-49577661D01*
X208864275Y-49605110D01*
X208881016Y-49636431D01*
X208891324Y-49670409D01*
X208895409Y-49711890D01*
X208895409Y-50313110D01*
X208891324Y-50354591D01*
X208881016Y-50388569D01*
X208864275Y-50419890D01*
X208841748Y-50447339D01*
X208814299Y-50469866D01*
X208782978Y-50486607D01*
X208749000Y-50496915D01*
X208707519Y-50501000D01*
X208031299Y-50501000D01*
X207989818Y-50496915D01*
X207955840Y-50486607D01*
X207924519Y-50469866D01*
X207897070Y-50447339D01*
X207874543Y-50419890D01*
X207857802Y-50388569D01*
X207847494Y-50354591D01*
X207843409Y-50313110D01*
X207843409Y-49711890D01*
X207847494Y-49670409D01*
X207857802Y-49636431D01*
X207874543Y-49605110D01*
X207897070Y-49577661D01*
X207924519Y-49555134D01*
X207955840Y-49538393D01*
X207989818Y-49528085D01*
X208031299Y-49524000D01*
X208707519Y-49524000D01*
X208749000Y-49528085D01*
X208749000Y-49528085D01*
G37*
G36*
X234936036Y-49528085D02*
G01*
X234970014Y-49538393D01*
X235001335Y-49555134D01*
X235028784Y-49577661D01*
X235051311Y-49605110D01*
X235068052Y-49636431D01*
X235078360Y-49670409D01*
X235082445Y-49711890D01*
X235082445Y-50313110D01*
X235078360Y-50354591D01*
X235068052Y-50388569D01*
X235051311Y-50419890D01*
X235028784Y-50447339D01*
X235001335Y-50469866D01*
X234970014Y-50486607D01*
X234936036Y-50496915D01*
X234894555Y-50501000D01*
X234218335Y-50501000D01*
X234176854Y-50496915D01*
X234142876Y-50486607D01*
X234111555Y-50469866D01*
X234084106Y-50447339D01*
X234061579Y-50419890D01*
X234044838Y-50388569D01*
X234034530Y-50354591D01*
X234030445Y-50313110D01*
X234030445Y-49711890D01*
X234034530Y-49670409D01*
X234044838Y-49636431D01*
X234061579Y-49605110D01*
X234084106Y-49577661D01*
X234111555Y-49555134D01*
X234142876Y-49538393D01*
X234176854Y-49528085D01*
X234218335Y-49524000D01*
X234894555Y-49524000D01*
X234936036Y-49528085D01*
X234936036Y-49528085D01*
G37*
G36*
X248029591Y-49528085D02*
G01*
X248063569Y-49538393D01*
X248094890Y-49555134D01*
X248122339Y-49577661D01*
X248144866Y-49605110D01*
X248161607Y-49636431D01*
X248171915Y-49670409D01*
X248176000Y-49711890D01*
X248176000Y-50313110D01*
X248171915Y-50354591D01*
X248161607Y-50388569D01*
X248144866Y-50419890D01*
X248122339Y-50447339D01*
X248094890Y-50469866D01*
X248063569Y-50486607D01*
X248029591Y-50496915D01*
X247988110Y-50501000D01*
X247311890Y-50501000D01*
X247270409Y-50496915D01*
X247236431Y-50486607D01*
X247205110Y-50469866D01*
X247177661Y-50447339D01*
X247155134Y-50419890D01*
X247138393Y-50388569D01*
X247128085Y-50354591D01*
X247124000Y-50313110D01*
X247124000Y-49711890D01*
X247128085Y-49670409D01*
X247138393Y-49636431D01*
X247155134Y-49605110D01*
X247177661Y-49577661D01*
X247205110Y-49555134D01*
X247236431Y-49538393D01*
X247270409Y-49528085D01*
X247311890Y-49524000D01*
X247988110Y-49524000D01*
X248029591Y-49528085D01*
X248029591Y-49528085D01*
G37*
G36*
X232753783Y-49528085D02*
G01*
X232787761Y-49538393D01*
X232819082Y-49555134D01*
X232846531Y-49577661D01*
X232869058Y-49605110D01*
X232885799Y-49636431D01*
X232896107Y-49670409D01*
X232900192Y-49711890D01*
X232900192Y-50313110D01*
X232896107Y-50354591D01*
X232885799Y-50388569D01*
X232869058Y-50419890D01*
X232846531Y-50447339D01*
X232819082Y-50469866D01*
X232787761Y-50486607D01*
X232753783Y-50496915D01*
X232712302Y-50501000D01*
X232036082Y-50501000D01*
X231994601Y-50496915D01*
X231960623Y-50486607D01*
X231929302Y-50469866D01*
X231901853Y-50447339D01*
X231879326Y-50419890D01*
X231862585Y-50388569D01*
X231852277Y-50354591D01*
X231848192Y-50313110D01*
X231848192Y-49711890D01*
X231852277Y-49670409D01*
X231862585Y-49636431D01*
X231879326Y-49605110D01*
X231901853Y-49577661D01*
X231929302Y-49555134D01*
X231960623Y-49538393D01*
X231994601Y-49528085D01*
X232036082Y-49524000D01*
X232712302Y-49524000D01*
X232753783Y-49528085D01*
X232753783Y-49528085D01*
G37*
G36*
X245847301Y-49528085D02*
G01*
X245881279Y-49538393D01*
X245912600Y-49555134D01*
X245940049Y-49577661D01*
X245962576Y-49605110D01*
X245979317Y-49636431D01*
X245989625Y-49670409D01*
X245993710Y-49711890D01*
X245993710Y-50313110D01*
X245989625Y-50354591D01*
X245979317Y-50388569D01*
X245962576Y-50419890D01*
X245940049Y-50447339D01*
X245912600Y-50469866D01*
X245881279Y-50486607D01*
X245847301Y-50496915D01*
X245805820Y-50501000D01*
X245129600Y-50501000D01*
X245088119Y-50496915D01*
X245054141Y-50486607D01*
X245022820Y-50469866D01*
X244995371Y-50447339D01*
X244972844Y-50419890D01*
X244956103Y-50388569D01*
X244945795Y-50354591D01*
X244941710Y-50313110D01*
X244941710Y-49711890D01*
X244945795Y-49670409D01*
X244956103Y-49636431D01*
X244972844Y-49605110D01*
X244995371Y-49577661D01*
X245022820Y-49555134D01*
X245054141Y-49538393D01*
X245088119Y-49528085D01*
X245129600Y-49524000D01*
X245805820Y-49524000D01*
X245847301Y-49528085D01*
X245847301Y-49528085D01*
G37*
G36*
X230571530Y-49528085D02*
G01*
X230605508Y-49538393D01*
X230636829Y-49555134D01*
X230664278Y-49577661D01*
X230686805Y-49605110D01*
X230703546Y-49636431D01*
X230713854Y-49670409D01*
X230717939Y-49711890D01*
X230717939Y-50313110D01*
X230713854Y-50354591D01*
X230703546Y-50388569D01*
X230686805Y-50419890D01*
X230664278Y-50447339D01*
X230636829Y-50469866D01*
X230605508Y-50486607D01*
X230571530Y-50496915D01*
X230530049Y-50501000D01*
X229853829Y-50501000D01*
X229812348Y-50496915D01*
X229778370Y-50486607D01*
X229747049Y-50469866D01*
X229719600Y-50447339D01*
X229697073Y-50419890D01*
X229680332Y-50388569D01*
X229670024Y-50354591D01*
X229665939Y-50313110D01*
X229665939Y-49711890D01*
X229670024Y-49670409D01*
X229680332Y-49636431D01*
X229697073Y-49605110D01*
X229719600Y-49577661D01*
X229747049Y-49555134D01*
X229778370Y-49538393D01*
X229812348Y-49528085D01*
X229853829Y-49524000D01*
X230530049Y-49524000D01*
X230571530Y-49528085D01*
X230571530Y-49528085D01*
G37*
G36*
X128005639Y-49528085D02*
G01*
X128039617Y-49538393D01*
X128070938Y-49555134D01*
X128098387Y-49577661D01*
X128120914Y-49605110D01*
X128137655Y-49636431D01*
X128147963Y-49670409D01*
X128152048Y-49711890D01*
X128152048Y-50313110D01*
X128147963Y-50354591D01*
X128137655Y-50388569D01*
X128120914Y-50419890D01*
X128098387Y-50447339D01*
X128070938Y-50469866D01*
X128039617Y-50486607D01*
X128005639Y-50496915D01*
X127964158Y-50501000D01*
X127287938Y-50501000D01*
X127246457Y-50496915D01*
X127212479Y-50486607D01*
X127181158Y-50469866D01*
X127153709Y-50447339D01*
X127131182Y-50419890D01*
X127114441Y-50388569D01*
X127104133Y-50354591D01*
X127100048Y-50313110D01*
X127100048Y-49711890D01*
X127104133Y-49670409D01*
X127114441Y-49636431D01*
X127131182Y-49605110D01*
X127153709Y-49577661D01*
X127181158Y-49555134D01*
X127212479Y-49538393D01*
X127246457Y-49528085D01*
X127287938Y-49524000D01*
X127964158Y-49524000D01*
X128005639Y-49528085D01*
X128005639Y-49528085D01*
G37*
G36*
X93089591Y-49528085D02*
G01*
X93123569Y-49538393D01*
X93154890Y-49555134D01*
X93182339Y-49577661D01*
X93204866Y-49605110D01*
X93221607Y-49636431D01*
X93231915Y-49670409D01*
X93236000Y-49711890D01*
X93236000Y-50313110D01*
X93231915Y-50354591D01*
X93221607Y-50388569D01*
X93204866Y-50419890D01*
X93182339Y-50447339D01*
X93154890Y-50469866D01*
X93123569Y-50486607D01*
X93089591Y-50496915D01*
X93048110Y-50501000D01*
X92371890Y-50501000D01*
X92330409Y-50496915D01*
X92296431Y-50486607D01*
X92265110Y-50469866D01*
X92237661Y-50447339D01*
X92215134Y-50419890D01*
X92198393Y-50388569D01*
X92188085Y-50354591D01*
X92184000Y-50313110D01*
X92184000Y-49711890D01*
X92188085Y-49670409D01*
X92198393Y-49636431D01*
X92215134Y-49605110D01*
X92237661Y-49577661D01*
X92265110Y-49555134D01*
X92296431Y-49538393D01*
X92330409Y-49528085D01*
X92371890Y-49524000D01*
X93048110Y-49524000D01*
X93089591Y-49528085D01*
X93089591Y-49528085D01*
G37*
G36*
X121458880Y-49528085D02*
G01*
X121492858Y-49538393D01*
X121524179Y-49555134D01*
X121551628Y-49577661D01*
X121574155Y-49605110D01*
X121590896Y-49636431D01*
X121601204Y-49670409D01*
X121605289Y-49711890D01*
X121605289Y-50313110D01*
X121601204Y-50354591D01*
X121590896Y-50388569D01*
X121574155Y-50419890D01*
X121551628Y-50447339D01*
X121524179Y-50469866D01*
X121492858Y-50486607D01*
X121458880Y-50496915D01*
X121417399Y-50501000D01*
X120741179Y-50501000D01*
X120699698Y-50496915D01*
X120665720Y-50486607D01*
X120634399Y-50469866D01*
X120606950Y-50447339D01*
X120584423Y-50419890D01*
X120567682Y-50388569D01*
X120557374Y-50354591D01*
X120553289Y-50313110D01*
X120553289Y-49711890D01*
X120557374Y-49670409D01*
X120567682Y-49636431D01*
X120584423Y-49605110D01*
X120606950Y-49577661D01*
X120634399Y-49555134D01*
X120665720Y-49538393D01*
X120699698Y-49528085D01*
X120741179Y-49524000D01*
X121417399Y-49524000D01*
X121458880Y-49528085D01*
X121458880Y-49528085D01*
G37*
G36*
X119276627Y-49528085D02*
G01*
X119310605Y-49538393D01*
X119341926Y-49555134D01*
X119369375Y-49577661D01*
X119391902Y-49605110D01*
X119408643Y-49636431D01*
X119418951Y-49670409D01*
X119423036Y-49711890D01*
X119423036Y-50313110D01*
X119418951Y-50354591D01*
X119408643Y-50388569D01*
X119391902Y-50419890D01*
X119369375Y-50447339D01*
X119341926Y-50469866D01*
X119310605Y-50486607D01*
X119276627Y-50496915D01*
X119235146Y-50501000D01*
X118558926Y-50501000D01*
X118517445Y-50496915D01*
X118483467Y-50486607D01*
X118452146Y-50469866D01*
X118424697Y-50447339D01*
X118402170Y-50419890D01*
X118385429Y-50388569D01*
X118375121Y-50354591D01*
X118371036Y-50313110D01*
X118371036Y-49711890D01*
X118375121Y-49670409D01*
X118385429Y-49636431D01*
X118402170Y-49605110D01*
X118424697Y-49577661D01*
X118452146Y-49555134D01*
X118483467Y-49538393D01*
X118517445Y-49528085D01*
X118558926Y-49524000D01*
X119235146Y-49524000D01*
X119276627Y-49528085D01*
X119276627Y-49528085D01*
G37*
G36*
X99636350Y-49528085D02*
G01*
X99670328Y-49538393D01*
X99701649Y-49555134D01*
X99729098Y-49577661D01*
X99751625Y-49605110D01*
X99768366Y-49636431D01*
X99778674Y-49670409D01*
X99782759Y-49711890D01*
X99782759Y-50313110D01*
X99778674Y-50354591D01*
X99768366Y-50388569D01*
X99751625Y-50419890D01*
X99729098Y-50447339D01*
X99701649Y-50469866D01*
X99670328Y-50486607D01*
X99636350Y-50496915D01*
X99594869Y-50501000D01*
X98918649Y-50501000D01*
X98877168Y-50496915D01*
X98843190Y-50486607D01*
X98811869Y-50469866D01*
X98784420Y-50447339D01*
X98761893Y-50419890D01*
X98745152Y-50388569D01*
X98734844Y-50354591D01*
X98730759Y-50313110D01*
X98730759Y-49711890D01*
X98734844Y-49670409D01*
X98745152Y-49636431D01*
X98761893Y-49605110D01*
X98784420Y-49577661D01*
X98811869Y-49555134D01*
X98843190Y-49538393D01*
X98877168Y-49528085D01*
X98918649Y-49524000D01*
X99594869Y-49524000D01*
X99636350Y-49528085D01*
X99636350Y-49528085D01*
G37*
G36*
X112729868Y-49528085D02*
G01*
X112763846Y-49538393D01*
X112795167Y-49555134D01*
X112822616Y-49577661D01*
X112845143Y-49605110D01*
X112861884Y-49636431D01*
X112872192Y-49670409D01*
X112876277Y-49711890D01*
X112876277Y-50313110D01*
X112872192Y-50354591D01*
X112861884Y-50388569D01*
X112845143Y-50419890D01*
X112822616Y-50447339D01*
X112795167Y-50469866D01*
X112763846Y-50486607D01*
X112729868Y-50496915D01*
X112688387Y-50501000D01*
X112012167Y-50501000D01*
X111970686Y-50496915D01*
X111936708Y-50486607D01*
X111905387Y-50469866D01*
X111877938Y-50447339D01*
X111855411Y-50419890D01*
X111838670Y-50388569D01*
X111828362Y-50354591D01*
X111824277Y-50313110D01*
X111824277Y-49711890D01*
X111828362Y-49670409D01*
X111838670Y-49636431D01*
X111855411Y-49605110D01*
X111877938Y-49577661D01*
X111905387Y-49555134D01*
X111936708Y-49538393D01*
X111970686Y-49528085D01*
X112012167Y-49524000D01*
X112688387Y-49524000D01*
X112729868Y-49528085D01*
X112729868Y-49528085D01*
G37*
G36*
X97454097Y-49528085D02*
G01*
X97488075Y-49538393D01*
X97519396Y-49555134D01*
X97546845Y-49577661D01*
X97569372Y-49605110D01*
X97586113Y-49636431D01*
X97596421Y-49670409D01*
X97600506Y-49711890D01*
X97600506Y-50313110D01*
X97596421Y-50354591D01*
X97586113Y-50388569D01*
X97569372Y-50419890D01*
X97546845Y-50447339D01*
X97519396Y-50469866D01*
X97488075Y-50486607D01*
X97454097Y-50496915D01*
X97412616Y-50501000D01*
X96736396Y-50501000D01*
X96694915Y-50496915D01*
X96660937Y-50486607D01*
X96629616Y-50469866D01*
X96602167Y-50447339D01*
X96579640Y-50419890D01*
X96562899Y-50388569D01*
X96552591Y-50354591D01*
X96548506Y-50313110D01*
X96548506Y-49711890D01*
X96552591Y-49670409D01*
X96562899Y-49636431D01*
X96579640Y-49605110D01*
X96602167Y-49577661D01*
X96629616Y-49555134D01*
X96660937Y-49538393D01*
X96694915Y-49528085D01*
X96736396Y-49524000D01*
X97412616Y-49524000D01*
X97454097Y-49528085D01*
X97454097Y-49528085D01*
G37*
G36*
X110547615Y-49528085D02*
G01*
X110581593Y-49538393D01*
X110612914Y-49555134D01*
X110640363Y-49577661D01*
X110662890Y-49605110D01*
X110679631Y-49636431D01*
X110689939Y-49670409D01*
X110694024Y-49711890D01*
X110694024Y-50313110D01*
X110689939Y-50354591D01*
X110679631Y-50388569D01*
X110662890Y-50419890D01*
X110640363Y-50447339D01*
X110612914Y-50469866D01*
X110581593Y-50486607D01*
X110547615Y-50496915D01*
X110506134Y-50501000D01*
X109829914Y-50501000D01*
X109788433Y-50496915D01*
X109754455Y-50486607D01*
X109723134Y-50469866D01*
X109695685Y-50447339D01*
X109673158Y-50419890D01*
X109656417Y-50388569D01*
X109646109Y-50354591D01*
X109642024Y-50313110D01*
X109642024Y-49711890D01*
X109646109Y-49670409D01*
X109656417Y-49636431D01*
X109673158Y-49605110D01*
X109695685Y-49577661D01*
X109723134Y-49555134D01*
X109754455Y-49538393D01*
X109788433Y-49528085D01*
X109829914Y-49524000D01*
X110506134Y-49524000D01*
X110547615Y-49528085D01*
X110547615Y-49528085D01*
G37*
G36*
X95271844Y-49528085D02*
G01*
X95305822Y-49538393D01*
X95337143Y-49555134D01*
X95364592Y-49577661D01*
X95387119Y-49605110D01*
X95403860Y-49636431D01*
X95414168Y-49670409D01*
X95418253Y-49711890D01*
X95418253Y-50313110D01*
X95414168Y-50354591D01*
X95403860Y-50388569D01*
X95387119Y-50419890D01*
X95364592Y-50447339D01*
X95337143Y-50469866D01*
X95305822Y-50486607D01*
X95271844Y-50496915D01*
X95230363Y-50501000D01*
X94554143Y-50501000D01*
X94512662Y-50496915D01*
X94478684Y-50486607D01*
X94447363Y-50469866D01*
X94419914Y-50447339D01*
X94397387Y-50419890D01*
X94380646Y-50388569D01*
X94370338Y-50354591D01*
X94366253Y-50313110D01*
X94366253Y-49711890D01*
X94370338Y-49670409D01*
X94380646Y-49636431D01*
X94397387Y-49605110D01*
X94419914Y-49577661D01*
X94447363Y-49555134D01*
X94478684Y-49538393D01*
X94512662Y-49528085D01*
X94554143Y-49524000D01*
X95230363Y-49524000D01*
X95271844Y-49528085D01*
X95271844Y-49528085D01*
G37*
G36*
X108365362Y-49528085D02*
G01*
X108399340Y-49538393D01*
X108430661Y-49555134D01*
X108458110Y-49577661D01*
X108480637Y-49605110D01*
X108497378Y-49636431D01*
X108507686Y-49670409D01*
X108511771Y-49711890D01*
X108511771Y-50313110D01*
X108507686Y-50354591D01*
X108497378Y-50388569D01*
X108480637Y-50419890D01*
X108458110Y-50447339D01*
X108430661Y-50469866D01*
X108399340Y-50486607D01*
X108365362Y-50496915D01*
X108323881Y-50501000D01*
X107647661Y-50501000D01*
X107606180Y-50496915D01*
X107572202Y-50486607D01*
X107540881Y-50469866D01*
X107513432Y-50447339D01*
X107490905Y-50419890D01*
X107474164Y-50388569D01*
X107463856Y-50354591D01*
X107459771Y-50313110D01*
X107459771Y-49711890D01*
X107463856Y-49670409D01*
X107474164Y-49636431D01*
X107490905Y-49605110D01*
X107513432Y-49577661D01*
X107540881Y-49555134D01*
X107572202Y-49538393D01*
X107606180Y-49528085D01*
X107647661Y-49524000D01*
X108323881Y-49524000D01*
X108365362Y-49528085D01*
X108365362Y-49528085D01*
G37*
G36*
X228389277Y-49528085D02*
G01*
X228423255Y-49538393D01*
X228454576Y-49555134D01*
X228482025Y-49577661D01*
X228504552Y-49605110D01*
X228521293Y-49636431D01*
X228531601Y-49670409D01*
X228535686Y-49711890D01*
X228535686Y-50313110D01*
X228531601Y-50354591D01*
X228521293Y-50388569D01*
X228504552Y-50419890D01*
X228482025Y-50447339D01*
X228454576Y-50469866D01*
X228423255Y-50486607D01*
X228389277Y-50496915D01*
X228347796Y-50501000D01*
X227671576Y-50501000D01*
X227630095Y-50496915D01*
X227596117Y-50486607D01*
X227564796Y-50469866D01*
X227537347Y-50447339D01*
X227514820Y-50419890D01*
X227498079Y-50388569D01*
X227487771Y-50354591D01*
X227483686Y-50313110D01*
X227483686Y-49711890D01*
X227487771Y-49670409D01*
X227498079Y-49636431D01*
X227514820Y-49605110D01*
X227537347Y-49577661D01*
X227564796Y-49555134D01*
X227596117Y-49538393D01*
X227630095Y-49528085D01*
X227671576Y-49524000D01*
X228347796Y-49524000D01*
X228389277Y-49528085D01*
X228389277Y-49528085D01*
G37*
G36*
X106183109Y-49528085D02*
G01*
X106217087Y-49538393D01*
X106248408Y-49555134D01*
X106275857Y-49577661D01*
X106298384Y-49605110D01*
X106315125Y-49636431D01*
X106325433Y-49670409D01*
X106329518Y-49711890D01*
X106329518Y-50313110D01*
X106325433Y-50354591D01*
X106315125Y-50388569D01*
X106298384Y-50419890D01*
X106275857Y-50447339D01*
X106248408Y-50469866D01*
X106217087Y-50486607D01*
X106183109Y-50496915D01*
X106141628Y-50501000D01*
X105465408Y-50501000D01*
X105423927Y-50496915D01*
X105389949Y-50486607D01*
X105358628Y-50469866D01*
X105331179Y-50447339D01*
X105308652Y-50419890D01*
X105291911Y-50388569D01*
X105281603Y-50354591D01*
X105277518Y-50313110D01*
X105277518Y-49711890D01*
X105281603Y-49670409D01*
X105291911Y-49636431D01*
X105308652Y-49605110D01*
X105331179Y-49577661D01*
X105358628Y-49555134D01*
X105389949Y-49538393D01*
X105423927Y-49528085D01*
X105465408Y-49524000D01*
X106141628Y-49524000D01*
X106183109Y-49528085D01*
X106183109Y-49528085D01*
G37*
G36*
X123641133Y-49528085D02*
G01*
X123675111Y-49538393D01*
X123706432Y-49555134D01*
X123733881Y-49577661D01*
X123756408Y-49605110D01*
X123773149Y-49636431D01*
X123783457Y-49670409D01*
X123787542Y-49711890D01*
X123787542Y-50313110D01*
X123783457Y-50354591D01*
X123773149Y-50388569D01*
X123756408Y-50419890D01*
X123733881Y-50447339D01*
X123706432Y-50469866D01*
X123675111Y-50486607D01*
X123641133Y-50496915D01*
X123599652Y-50501000D01*
X122923432Y-50501000D01*
X122881951Y-50496915D01*
X122847973Y-50486607D01*
X122816652Y-50469866D01*
X122789203Y-50447339D01*
X122766676Y-50419890D01*
X122749935Y-50388569D01*
X122739627Y-50354591D01*
X122735542Y-50313110D01*
X122735542Y-49711890D01*
X122739627Y-49670409D01*
X122749935Y-49636431D01*
X122766676Y-49605110D01*
X122789203Y-49577661D01*
X122816652Y-49555134D01*
X122847973Y-49538393D01*
X122881951Y-49528085D01*
X122923432Y-49524000D01*
X123599652Y-49524000D01*
X123641133Y-49528085D01*
X123641133Y-49528085D01*
G37*
G36*
X114912121Y-49528085D02*
G01*
X114946099Y-49538393D01*
X114977420Y-49555134D01*
X115004869Y-49577661D01*
X115027396Y-49605110D01*
X115044137Y-49636431D01*
X115054445Y-49670409D01*
X115058530Y-49711890D01*
X115058530Y-50313110D01*
X115054445Y-50354591D01*
X115044137Y-50388569D01*
X115027396Y-50419890D01*
X115004869Y-50447339D01*
X114977420Y-50469866D01*
X114946099Y-50486607D01*
X114912121Y-50496915D01*
X114870640Y-50501000D01*
X114194420Y-50501000D01*
X114152939Y-50496915D01*
X114118961Y-50486607D01*
X114087640Y-50469866D01*
X114060191Y-50447339D01*
X114037664Y-50419890D01*
X114020923Y-50388569D01*
X114010615Y-50354591D01*
X114006530Y-50313110D01*
X114006530Y-49711890D01*
X114010615Y-49670409D01*
X114020923Y-49636431D01*
X114037664Y-49605110D01*
X114060191Y-49577661D01*
X114087640Y-49555134D01*
X114118961Y-49538393D01*
X114152939Y-49528085D01*
X114194420Y-49524000D01*
X114870640Y-49524000D01*
X114912121Y-49528085D01*
X114912121Y-49528085D01*
G37*
G36*
X104000856Y-49528085D02*
G01*
X104034834Y-49538393D01*
X104066155Y-49555134D01*
X104093604Y-49577661D01*
X104116131Y-49605110D01*
X104132872Y-49636431D01*
X104143180Y-49670409D01*
X104147265Y-49711890D01*
X104147265Y-50313110D01*
X104143180Y-50354591D01*
X104132872Y-50388569D01*
X104116131Y-50419890D01*
X104093604Y-50447339D01*
X104066155Y-50469866D01*
X104034834Y-50486607D01*
X104000856Y-50496915D01*
X103959375Y-50501000D01*
X103283155Y-50501000D01*
X103241674Y-50496915D01*
X103207696Y-50486607D01*
X103176375Y-50469866D01*
X103148926Y-50447339D01*
X103126399Y-50419890D01*
X103109658Y-50388569D01*
X103099350Y-50354591D01*
X103095265Y-50313110D01*
X103095265Y-49711890D01*
X103099350Y-49670409D01*
X103109658Y-49636431D01*
X103126399Y-49605110D01*
X103148926Y-49577661D01*
X103176375Y-49555134D01*
X103207696Y-49538393D01*
X103241674Y-49528085D01*
X103283155Y-49524000D01*
X103959375Y-49524000D01*
X104000856Y-49528085D01*
X104000856Y-49528085D01*
G37*
G36*
X117094374Y-49528085D02*
G01*
X117128352Y-49538393D01*
X117159673Y-49555134D01*
X117187122Y-49577661D01*
X117209649Y-49605110D01*
X117226390Y-49636431D01*
X117236698Y-49670409D01*
X117240783Y-49711890D01*
X117240783Y-50313110D01*
X117236698Y-50354591D01*
X117226390Y-50388569D01*
X117209649Y-50419890D01*
X117187122Y-50447339D01*
X117159673Y-50469866D01*
X117128352Y-50486607D01*
X117094374Y-50496915D01*
X117052893Y-50501000D01*
X116376673Y-50501000D01*
X116335192Y-50496915D01*
X116301214Y-50486607D01*
X116269893Y-50469866D01*
X116242444Y-50447339D01*
X116219917Y-50419890D01*
X116203176Y-50388569D01*
X116192868Y-50354591D01*
X116188783Y-50313110D01*
X116188783Y-49711890D01*
X116192868Y-49670409D01*
X116203176Y-49636431D01*
X116219917Y-49605110D01*
X116242444Y-49577661D01*
X116269893Y-49555134D01*
X116301214Y-49538393D01*
X116335192Y-49528085D01*
X116376673Y-49524000D01*
X117052893Y-49524000D01*
X117094374Y-49528085D01*
X117094374Y-49528085D01*
G37*
G36*
X101818603Y-49528085D02*
G01*
X101852581Y-49538393D01*
X101883902Y-49555134D01*
X101911351Y-49577661D01*
X101933878Y-49605110D01*
X101950619Y-49636431D01*
X101960927Y-49670409D01*
X101965012Y-49711890D01*
X101965012Y-50313110D01*
X101960927Y-50354591D01*
X101950619Y-50388569D01*
X101933878Y-50419890D01*
X101911351Y-50447339D01*
X101883902Y-50469866D01*
X101852581Y-50486607D01*
X101818603Y-50496915D01*
X101777122Y-50501000D01*
X101100902Y-50501000D01*
X101059421Y-50496915D01*
X101025443Y-50486607D01*
X100994122Y-50469866D01*
X100966673Y-50447339D01*
X100944146Y-50419890D01*
X100927405Y-50388569D01*
X100917097Y-50354591D01*
X100913012Y-50313110D01*
X100913012Y-49711890D01*
X100917097Y-49670409D01*
X100927405Y-49636431D01*
X100944146Y-49605110D01*
X100966673Y-49577661D01*
X100994122Y-49555134D01*
X101025443Y-49538393D01*
X101059421Y-49528085D01*
X101100902Y-49524000D01*
X101777122Y-49524000D01*
X101818603Y-49528085D01*
X101818603Y-49528085D01*
G37*
G36*
X184744217Y-49528085D02*
G01*
X184778195Y-49538393D01*
X184809516Y-49555134D01*
X184836965Y-49577661D01*
X184859492Y-49605110D01*
X184876233Y-49636431D01*
X184886541Y-49670409D01*
X184890626Y-49711890D01*
X184890626Y-50313110D01*
X184886541Y-50354591D01*
X184876233Y-50388569D01*
X184859492Y-50419890D01*
X184836965Y-50447339D01*
X184809516Y-50469866D01*
X184778195Y-50486607D01*
X184744217Y-50496915D01*
X184702736Y-50501000D01*
X184026516Y-50501000D01*
X183985035Y-50496915D01*
X183951057Y-50486607D01*
X183919736Y-50469866D01*
X183892287Y-50447339D01*
X183869760Y-50419890D01*
X183853019Y-50388569D01*
X183842711Y-50354591D01*
X183838626Y-50313110D01*
X183838626Y-49711890D01*
X183842711Y-49670409D01*
X183853019Y-49636431D01*
X183869760Y-49605110D01*
X183892287Y-49577661D01*
X183919736Y-49555134D01*
X183951057Y-49538393D01*
X183985035Y-49528085D01*
X184026516Y-49524000D01*
X184702736Y-49524000D01*
X184744217Y-49528085D01*
X184744217Y-49528085D01*
G37*
G36*
X243665048Y-49528085D02*
G01*
X243699026Y-49538393D01*
X243730347Y-49555134D01*
X243757796Y-49577661D01*
X243780323Y-49605110D01*
X243797064Y-49636431D01*
X243807372Y-49670409D01*
X243811457Y-49711890D01*
X243811457Y-50313110D01*
X243807372Y-50354591D01*
X243797064Y-50388569D01*
X243780323Y-50419890D01*
X243757796Y-50447339D01*
X243730347Y-50469866D01*
X243699026Y-50486607D01*
X243665048Y-50496915D01*
X243623567Y-50501000D01*
X242947347Y-50501000D01*
X242905866Y-50496915D01*
X242871888Y-50486607D01*
X242840567Y-50469866D01*
X242813118Y-50447339D01*
X242790591Y-50419890D01*
X242773850Y-50388569D01*
X242763542Y-50354591D01*
X242759457Y-50313110D01*
X242759457Y-49711890D01*
X242763542Y-49670409D01*
X242773850Y-49636431D01*
X242790591Y-49605110D01*
X242813118Y-49577661D01*
X242840567Y-49555134D01*
X242871888Y-49538393D01*
X242905866Y-49528085D01*
X242947347Y-49524000D01*
X243623567Y-49524000D01*
X243665048Y-49528085D01*
X243665048Y-49528085D01*
G37*
G36*
X200019988Y-49528085D02*
G01*
X200053966Y-49538393D01*
X200085287Y-49555134D01*
X200112736Y-49577661D01*
X200135263Y-49605110D01*
X200152004Y-49636431D01*
X200162312Y-49670409D01*
X200166397Y-49711890D01*
X200166397Y-50313110D01*
X200162312Y-50354591D01*
X200152004Y-50388569D01*
X200135263Y-50419890D01*
X200112736Y-50447339D01*
X200085287Y-50469866D01*
X200053966Y-50486607D01*
X200019988Y-50496915D01*
X199978507Y-50501000D01*
X199302287Y-50501000D01*
X199260806Y-50496915D01*
X199226828Y-50486607D01*
X199195507Y-50469866D01*
X199168058Y-50447339D01*
X199145531Y-50419890D01*
X199128790Y-50388569D01*
X199118482Y-50354591D01*
X199114397Y-50313110D01*
X199114397Y-49711890D01*
X199118482Y-49670409D01*
X199128790Y-49636431D01*
X199145531Y-49605110D01*
X199168058Y-49577661D01*
X199195507Y-49555134D01*
X199226828Y-49538393D01*
X199260806Y-49528085D01*
X199302287Y-49524000D01*
X199978507Y-49524000D01*
X200019988Y-49528085D01*
X200019988Y-49528085D01*
G37*
G36*
X186926470Y-49528085D02*
G01*
X186960448Y-49538393D01*
X186991769Y-49555134D01*
X187019218Y-49577661D01*
X187041745Y-49605110D01*
X187058486Y-49636431D01*
X187068794Y-49670409D01*
X187072879Y-49711890D01*
X187072879Y-50313110D01*
X187068794Y-50354591D01*
X187058486Y-50388569D01*
X187041745Y-50419890D01*
X187019218Y-50447339D01*
X186991769Y-50469866D01*
X186960448Y-50486607D01*
X186926470Y-50496915D01*
X186884989Y-50501000D01*
X186208769Y-50501000D01*
X186167288Y-50496915D01*
X186133310Y-50486607D01*
X186101989Y-50469866D01*
X186074540Y-50447339D01*
X186052013Y-50419890D01*
X186035272Y-50388569D01*
X186024964Y-50354591D01*
X186020879Y-50313110D01*
X186020879Y-49711890D01*
X186024964Y-49670409D01*
X186035272Y-49636431D01*
X186052013Y-49605110D01*
X186074540Y-49577661D01*
X186101989Y-49555134D01*
X186133310Y-49538393D01*
X186167288Y-49528085D01*
X186208769Y-49524000D01*
X186884989Y-49524000D01*
X186926470Y-49528085D01*
X186926470Y-49528085D01*
G37*
G36*
X219660265Y-49528085D02*
G01*
X219694243Y-49538393D01*
X219725564Y-49555134D01*
X219753013Y-49577661D01*
X219775540Y-49605110D01*
X219792281Y-49636431D01*
X219802589Y-49670409D01*
X219806674Y-49711890D01*
X219806674Y-50313110D01*
X219802589Y-50354591D01*
X219792281Y-50388569D01*
X219775540Y-50419890D01*
X219753013Y-50447339D01*
X219725564Y-50469866D01*
X219694243Y-50486607D01*
X219660265Y-50496915D01*
X219618784Y-50501000D01*
X218942564Y-50501000D01*
X218901083Y-50496915D01*
X218867105Y-50486607D01*
X218835784Y-50469866D01*
X218808335Y-50447339D01*
X218785808Y-50419890D01*
X218769067Y-50388569D01*
X218758759Y-50354591D01*
X218754674Y-50313110D01*
X218754674Y-49711890D01*
X218758759Y-49670409D01*
X218769067Y-49636431D01*
X218785808Y-49605110D01*
X218808335Y-49577661D01*
X218835784Y-49555134D01*
X218867105Y-49538393D01*
X218901083Y-49528085D01*
X218942564Y-49524000D01*
X219618784Y-49524000D01*
X219660265Y-49528085D01*
X219660265Y-49528085D01*
G37*
G36*
X160739434Y-49528085D02*
G01*
X160773412Y-49538393D01*
X160804733Y-49555134D01*
X160832182Y-49577661D01*
X160854709Y-49605110D01*
X160871450Y-49636431D01*
X160881758Y-49670409D01*
X160885843Y-49711890D01*
X160885843Y-50313110D01*
X160881758Y-50354591D01*
X160871450Y-50388569D01*
X160854709Y-50419890D01*
X160832182Y-50447339D01*
X160804733Y-50469866D01*
X160773412Y-50486607D01*
X160739434Y-50496915D01*
X160697953Y-50501000D01*
X160021733Y-50501000D01*
X159980252Y-50496915D01*
X159946274Y-50486607D01*
X159914953Y-50469866D01*
X159887504Y-50447339D01*
X159864977Y-50419890D01*
X159848236Y-50388569D01*
X159837928Y-50354591D01*
X159833843Y-50313110D01*
X159833843Y-49711890D01*
X159837928Y-49670409D01*
X159848236Y-49636431D01*
X159864977Y-49605110D01*
X159887504Y-49577661D01*
X159914953Y-49555134D01*
X159946274Y-49538393D01*
X159980252Y-49528085D01*
X160021733Y-49524000D01*
X160697953Y-49524000D01*
X160739434Y-49528085D01*
X160739434Y-49528085D01*
G37*
G36*
X204384494Y-49528085D02*
G01*
X204418472Y-49538393D01*
X204449793Y-49555134D01*
X204477242Y-49577661D01*
X204499769Y-49605110D01*
X204516510Y-49636431D01*
X204526818Y-49670409D01*
X204530903Y-49711890D01*
X204530903Y-50313110D01*
X204526818Y-50354591D01*
X204516510Y-50388569D01*
X204499769Y-50419890D01*
X204477242Y-50447339D01*
X204449793Y-50469866D01*
X204418472Y-50486607D01*
X204384494Y-50496915D01*
X204343013Y-50501000D01*
X203666793Y-50501000D01*
X203625312Y-50496915D01*
X203591334Y-50486607D01*
X203560013Y-50469866D01*
X203532564Y-50447339D01*
X203510037Y-50419890D01*
X203493296Y-50388569D01*
X203482988Y-50354591D01*
X203478903Y-50313110D01*
X203478903Y-49711890D01*
X203482988Y-49670409D01*
X203493296Y-49636431D01*
X203510037Y-49605110D01*
X203532564Y-49577661D01*
X203560013Y-49555134D01*
X203591334Y-49538393D01*
X203625312Y-49528085D01*
X203666793Y-49524000D01*
X204343013Y-49524000D01*
X204384494Y-49528085D01*
X204384494Y-49528085D01*
G37*
G36*
X217478012Y-49528085D02*
G01*
X217511990Y-49538393D01*
X217543311Y-49555134D01*
X217570760Y-49577661D01*
X217593287Y-49605110D01*
X217610028Y-49636431D01*
X217620336Y-49670409D01*
X217624421Y-49711890D01*
X217624421Y-50313110D01*
X217620336Y-50354591D01*
X217610028Y-50388569D01*
X217593287Y-50419890D01*
X217570760Y-50447339D01*
X217543311Y-50469866D01*
X217511990Y-50486607D01*
X217478012Y-50496915D01*
X217436531Y-50501000D01*
X216760311Y-50501000D01*
X216718830Y-50496915D01*
X216684852Y-50486607D01*
X216653531Y-50469866D01*
X216626082Y-50447339D01*
X216603555Y-50419890D01*
X216586814Y-50388569D01*
X216576506Y-50354591D01*
X216572421Y-50313110D01*
X216572421Y-49711890D01*
X216576506Y-49670409D01*
X216586814Y-49636431D01*
X216603555Y-49605110D01*
X216626082Y-49577661D01*
X216653531Y-49555134D01*
X216684852Y-49538393D01*
X216718830Y-49528085D01*
X216760311Y-49524000D01*
X217436531Y-49524000D01*
X217478012Y-49528085D01*
X217478012Y-49528085D01*
G37*
G36*
X158557181Y-49528085D02*
G01*
X158591159Y-49538393D01*
X158622480Y-49555134D01*
X158649929Y-49577661D01*
X158672456Y-49605110D01*
X158689197Y-49636431D01*
X158699505Y-49670409D01*
X158703590Y-49711890D01*
X158703590Y-50313110D01*
X158699505Y-50354591D01*
X158689197Y-50388569D01*
X158672456Y-50419890D01*
X158649929Y-50447339D01*
X158622480Y-50469866D01*
X158591159Y-50486607D01*
X158557181Y-50496915D01*
X158515700Y-50501000D01*
X157839480Y-50501000D01*
X157797999Y-50496915D01*
X157764021Y-50486607D01*
X157732700Y-50469866D01*
X157705251Y-50447339D01*
X157682724Y-50419890D01*
X157665983Y-50388569D01*
X157655675Y-50354591D01*
X157651590Y-50313110D01*
X157651590Y-49711890D01*
X157655675Y-49670409D01*
X157665983Y-49636431D01*
X157682724Y-49605110D01*
X157705251Y-49577661D01*
X157732700Y-49555134D01*
X157764021Y-49538393D01*
X157797999Y-49528085D01*
X157839480Y-49524000D01*
X158515700Y-49524000D01*
X158557181Y-49528085D01*
X158557181Y-49528085D01*
G37*
G36*
X202202241Y-49528085D02*
G01*
X202236219Y-49538393D01*
X202267540Y-49555134D01*
X202294989Y-49577661D01*
X202317516Y-49605110D01*
X202334257Y-49636431D01*
X202344565Y-49670409D01*
X202348650Y-49711890D01*
X202348650Y-50313110D01*
X202344565Y-50354591D01*
X202334257Y-50388569D01*
X202317516Y-50419890D01*
X202294989Y-50447339D01*
X202267540Y-50469866D01*
X202236219Y-50486607D01*
X202202241Y-50496915D01*
X202160760Y-50501000D01*
X201484540Y-50501000D01*
X201443059Y-50496915D01*
X201409081Y-50486607D01*
X201377760Y-50469866D01*
X201350311Y-50447339D01*
X201327784Y-50419890D01*
X201311043Y-50388569D01*
X201300735Y-50354591D01*
X201296650Y-50313110D01*
X201296650Y-49711890D01*
X201300735Y-49670409D01*
X201311043Y-49636431D01*
X201327784Y-49605110D01*
X201350311Y-49577661D01*
X201377760Y-49555134D01*
X201409081Y-49538393D01*
X201443059Y-49528085D01*
X201484540Y-49524000D01*
X202160760Y-49524000D01*
X202202241Y-49528085D01*
X202202241Y-49528085D01*
G37*
G36*
X162921687Y-49528085D02*
G01*
X162955665Y-49538393D01*
X162986986Y-49555134D01*
X163014435Y-49577661D01*
X163036962Y-49605110D01*
X163053703Y-49636431D01*
X163064011Y-49670409D01*
X163068096Y-49711890D01*
X163068096Y-50313110D01*
X163064011Y-50354591D01*
X163053703Y-50388569D01*
X163036962Y-50419890D01*
X163014435Y-50447339D01*
X162986986Y-50469866D01*
X162955665Y-50486607D01*
X162921687Y-50496915D01*
X162880206Y-50501000D01*
X162203986Y-50501000D01*
X162162505Y-50496915D01*
X162128527Y-50486607D01*
X162097206Y-50469866D01*
X162069757Y-50447339D01*
X162047230Y-50419890D01*
X162030489Y-50388569D01*
X162020181Y-50354591D01*
X162016096Y-50313110D01*
X162016096Y-49711890D01*
X162020181Y-49670409D01*
X162030489Y-49636431D01*
X162047230Y-49605110D01*
X162069757Y-49577661D01*
X162097206Y-49555134D01*
X162128527Y-49538393D01*
X162162505Y-49528085D01*
X162203986Y-49524000D01*
X162880206Y-49524000D01*
X162921687Y-49528085D01*
X162921687Y-49528085D01*
G37*
G36*
X143281410Y-49528085D02*
G01*
X143315388Y-49538393D01*
X143346709Y-49555134D01*
X143374158Y-49577661D01*
X143396685Y-49605110D01*
X143413426Y-49636431D01*
X143423734Y-49670409D01*
X143427819Y-49711890D01*
X143427819Y-50313110D01*
X143423734Y-50354591D01*
X143413426Y-50388569D01*
X143396685Y-50419890D01*
X143374158Y-50447339D01*
X143346709Y-50469866D01*
X143315388Y-50486607D01*
X143281410Y-50496915D01*
X143239929Y-50501000D01*
X142563709Y-50501000D01*
X142522228Y-50496915D01*
X142488250Y-50486607D01*
X142456929Y-50469866D01*
X142429480Y-50447339D01*
X142406953Y-50419890D01*
X142390212Y-50388569D01*
X142379904Y-50354591D01*
X142375819Y-50313110D01*
X142375819Y-49711890D01*
X142379904Y-49670409D01*
X142390212Y-49636431D01*
X142406953Y-49605110D01*
X142429480Y-49577661D01*
X142456929Y-49555134D01*
X142488250Y-49538393D01*
X142522228Y-49528085D01*
X142563709Y-49524000D01*
X143239929Y-49524000D01*
X143281410Y-49528085D01*
X143281410Y-49528085D01*
G37*
G36*
X154192675Y-49528085D02*
G01*
X154226653Y-49538393D01*
X154257974Y-49555134D01*
X154285423Y-49577661D01*
X154307950Y-49605110D01*
X154324691Y-49636431D01*
X154334999Y-49670409D01*
X154339084Y-49711890D01*
X154339084Y-50313110D01*
X154334999Y-50354591D01*
X154324691Y-50388569D01*
X154307950Y-50419890D01*
X154285423Y-50447339D01*
X154257974Y-50469866D01*
X154226653Y-50486607D01*
X154192675Y-50496915D01*
X154151194Y-50501000D01*
X153474974Y-50501000D01*
X153433493Y-50496915D01*
X153399515Y-50486607D01*
X153368194Y-50469866D01*
X153340745Y-50447339D01*
X153318218Y-50419890D01*
X153301477Y-50388569D01*
X153291169Y-50354591D01*
X153287084Y-50313110D01*
X153287084Y-49711890D01*
X153291169Y-49670409D01*
X153301477Y-49636431D01*
X153318218Y-49605110D01*
X153340745Y-49577661D01*
X153368194Y-49555134D01*
X153399515Y-49538393D01*
X153433493Y-49528085D01*
X153474974Y-49524000D01*
X154151194Y-49524000D01*
X154192675Y-49528085D01*
X154192675Y-49528085D01*
G37*
G36*
X213113506Y-49528085D02*
G01*
X213147484Y-49538393D01*
X213178805Y-49555134D01*
X213206254Y-49577661D01*
X213228781Y-49605110D01*
X213245522Y-49636431D01*
X213255830Y-49670409D01*
X213259915Y-49711890D01*
X213259915Y-50313110D01*
X213255830Y-50354591D01*
X213245522Y-50388569D01*
X213228781Y-50419890D01*
X213206254Y-50447339D01*
X213178805Y-50469866D01*
X213147484Y-50486607D01*
X213113506Y-50496915D01*
X213072025Y-50501000D01*
X212395805Y-50501000D01*
X212354324Y-50496915D01*
X212320346Y-50486607D01*
X212289025Y-50469866D01*
X212261576Y-50447339D01*
X212239049Y-50419890D01*
X212222308Y-50388569D01*
X212212000Y-50354591D01*
X212207915Y-50313110D01*
X212207915Y-49711890D01*
X212212000Y-49670409D01*
X212222308Y-49636431D01*
X212239049Y-49605110D01*
X212261576Y-49577661D01*
X212289025Y-49555134D01*
X212320346Y-49538393D01*
X212354324Y-49528085D01*
X212395805Y-49524000D01*
X213072025Y-49524000D01*
X213113506Y-49528085D01*
X213113506Y-49528085D01*
G37*
G36*
X152010422Y-49528085D02*
G01*
X152044400Y-49538393D01*
X152075721Y-49555134D01*
X152103170Y-49577661D01*
X152125697Y-49605110D01*
X152142438Y-49636431D01*
X152152746Y-49670409D01*
X152156831Y-49711890D01*
X152156831Y-50313110D01*
X152152746Y-50354591D01*
X152142438Y-50388569D01*
X152125697Y-50419890D01*
X152103170Y-50447339D01*
X152075721Y-50469866D01*
X152044400Y-50486607D01*
X152010422Y-50496915D01*
X151968941Y-50501000D01*
X151292721Y-50501000D01*
X151251240Y-50496915D01*
X151217262Y-50486607D01*
X151185941Y-50469866D01*
X151158492Y-50447339D01*
X151135965Y-50419890D01*
X151119224Y-50388569D01*
X151108916Y-50354591D01*
X151104831Y-50313110D01*
X151104831Y-49711890D01*
X151108916Y-49670409D01*
X151119224Y-49636431D01*
X151135965Y-49605110D01*
X151158492Y-49577661D01*
X151185941Y-49555134D01*
X151217262Y-49538393D01*
X151251240Y-49528085D01*
X151292721Y-49524000D01*
X151968941Y-49524000D01*
X152010422Y-49528085D01*
X152010422Y-49528085D01*
G37*
G36*
X197837735Y-49528085D02*
G01*
X197871713Y-49538393D01*
X197903034Y-49555134D01*
X197930483Y-49577661D01*
X197953010Y-49605110D01*
X197969751Y-49636431D01*
X197980059Y-49670409D01*
X197984144Y-49711890D01*
X197984144Y-50313110D01*
X197980059Y-50354591D01*
X197969751Y-50388569D01*
X197953010Y-50419890D01*
X197930483Y-50447339D01*
X197903034Y-50469866D01*
X197871713Y-50486607D01*
X197837735Y-50496915D01*
X197796254Y-50501000D01*
X197120034Y-50501000D01*
X197078553Y-50496915D01*
X197044575Y-50486607D01*
X197013254Y-50469866D01*
X196985805Y-50447339D01*
X196963278Y-50419890D01*
X196946537Y-50388569D01*
X196936229Y-50354591D01*
X196932144Y-50313110D01*
X196932144Y-49711890D01*
X196936229Y-49670409D01*
X196946537Y-49636431D01*
X196963278Y-49605110D01*
X196985805Y-49577661D01*
X197013254Y-49555134D01*
X197044575Y-49538393D01*
X197078553Y-49528085D01*
X197120034Y-49524000D01*
X197796254Y-49524000D01*
X197837735Y-49528085D01*
X197837735Y-49528085D01*
G37*
G36*
X149828169Y-49528085D02*
G01*
X149862147Y-49538393D01*
X149893468Y-49555134D01*
X149920917Y-49577661D01*
X149943444Y-49605110D01*
X149960185Y-49636431D01*
X149970493Y-49670409D01*
X149974578Y-49711890D01*
X149974578Y-50313110D01*
X149970493Y-50354591D01*
X149960185Y-50388569D01*
X149943444Y-50419890D01*
X149920917Y-50447339D01*
X149893468Y-50469866D01*
X149862147Y-50486607D01*
X149828169Y-50496915D01*
X149786688Y-50501000D01*
X149110468Y-50501000D01*
X149068987Y-50496915D01*
X149035009Y-50486607D01*
X149003688Y-50469866D01*
X148976239Y-50447339D01*
X148953712Y-50419890D01*
X148936971Y-50388569D01*
X148926663Y-50354591D01*
X148922578Y-50313110D01*
X148922578Y-49711890D01*
X148926663Y-49670409D01*
X148936971Y-49636431D01*
X148953712Y-49605110D01*
X148976239Y-49577661D01*
X149003688Y-49555134D01*
X149035009Y-49538393D01*
X149068987Y-49528085D01*
X149110468Y-49524000D01*
X149786688Y-49524000D01*
X149828169Y-49528085D01*
X149828169Y-49528085D01*
G37*
G36*
X206566747Y-49528085D02*
G01*
X206600725Y-49538393D01*
X206632046Y-49555134D01*
X206659495Y-49577661D01*
X206682022Y-49605110D01*
X206698763Y-49636431D01*
X206709071Y-49670409D01*
X206713156Y-49711890D01*
X206713156Y-50313110D01*
X206709071Y-50354591D01*
X206698763Y-50388569D01*
X206682022Y-50419890D01*
X206659495Y-50447339D01*
X206632046Y-50469866D01*
X206600725Y-50486607D01*
X206566747Y-50496915D01*
X206525266Y-50501000D01*
X205849046Y-50501000D01*
X205807565Y-50496915D01*
X205773587Y-50486607D01*
X205742266Y-50469866D01*
X205714817Y-50447339D01*
X205692290Y-50419890D01*
X205675549Y-50388569D01*
X205665241Y-50354591D01*
X205661156Y-50313110D01*
X205661156Y-49711890D01*
X205665241Y-49670409D01*
X205675549Y-49636431D01*
X205692290Y-49605110D01*
X205714817Y-49577661D01*
X205742266Y-49555134D01*
X205773587Y-49538393D01*
X205807565Y-49528085D01*
X205849046Y-49524000D01*
X206525266Y-49524000D01*
X206566747Y-49528085D01*
X206566747Y-49528085D01*
G37*
G36*
X147645916Y-49528085D02*
G01*
X147679894Y-49538393D01*
X147711215Y-49555134D01*
X147738664Y-49577661D01*
X147761191Y-49605110D01*
X147777932Y-49636431D01*
X147788240Y-49670409D01*
X147792325Y-49711890D01*
X147792325Y-50313110D01*
X147788240Y-50354591D01*
X147777932Y-50388569D01*
X147761191Y-50419890D01*
X147738664Y-50447339D01*
X147711215Y-50469866D01*
X147679894Y-50486607D01*
X147645916Y-50496915D01*
X147604435Y-50501000D01*
X146928215Y-50501000D01*
X146886734Y-50496915D01*
X146852756Y-50486607D01*
X146821435Y-50469866D01*
X146793986Y-50447339D01*
X146771459Y-50419890D01*
X146754718Y-50388569D01*
X146744410Y-50354591D01*
X146740325Y-50313110D01*
X146740325Y-49711890D01*
X146744410Y-49670409D01*
X146754718Y-49636431D01*
X146771459Y-49605110D01*
X146793986Y-49577661D01*
X146821435Y-49555134D01*
X146852756Y-49538393D01*
X146886734Y-49528085D01*
X146928215Y-49524000D01*
X147604435Y-49524000D01*
X147645916Y-49528085D01*
X147645916Y-49528085D01*
G37*
G36*
X156374928Y-49528085D02*
G01*
X156408906Y-49538393D01*
X156440227Y-49555134D01*
X156467676Y-49577661D01*
X156490203Y-49605110D01*
X156506944Y-49636431D01*
X156517252Y-49670409D01*
X156521337Y-49711890D01*
X156521337Y-50313110D01*
X156517252Y-50354591D01*
X156506944Y-50388569D01*
X156490203Y-50419890D01*
X156467676Y-50447339D01*
X156440227Y-50469866D01*
X156408906Y-50486607D01*
X156374928Y-50496915D01*
X156333447Y-50501000D01*
X155657227Y-50501000D01*
X155615746Y-50496915D01*
X155581768Y-50486607D01*
X155550447Y-50469866D01*
X155522998Y-50447339D01*
X155500471Y-50419890D01*
X155483730Y-50388569D01*
X155473422Y-50354591D01*
X155469337Y-50313110D01*
X155469337Y-49711890D01*
X155473422Y-49670409D01*
X155483730Y-49636431D01*
X155500471Y-49605110D01*
X155522998Y-49577661D01*
X155550447Y-49555134D01*
X155581768Y-49538393D01*
X155615746Y-49528085D01*
X155657227Y-49524000D01*
X156333447Y-49524000D01*
X156374928Y-49528085D01*
X156374928Y-49528085D01*
G37*
G36*
X136734651Y-49528085D02*
G01*
X136768629Y-49538393D01*
X136799950Y-49555134D01*
X136827399Y-49577661D01*
X136849926Y-49605110D01*
X136866667Y-49636431D01*
X136876975Y-49670409D01*
X136881060Y-49711890D01*
X136881060Y-50313110D01*
X136876975Y-50354591D01*
X136866667Y-50388569D01*
X136849926Y-50419890D01*
X136827399Y-50447339D01*
X136799950Y-50469866D01*
X136768629Y-50486607D01*
X136734651Y-50496915D01*
X136693170Y-50501000D01*
X136016950Y-50501000D01*
X135975469Y-50496915D01*
X135941491Y-50486607D01*
X135910170Y-50469866D01*
X135882721Y-50447339D01*
X135860194Y-50419890D01*
X135843453Y-50388569D01*
X135833145Y-50354591D01*
X135829060Y-50313110D01*
X135829060Y-49711890D01*
X135833145Y-49670409D01*
X135843453Y-49636431D01*
X135860194Y-49605110D01*
X135882721Y-49577661D01*
X135910170Y-49555134D01*
X135941491Y-49538393D01*
X135975469Y-49528085D01*
X136016950Y-49524000D01*
X136693170Y-49524000D01*
X136734651Y-49528085D01*
X136734651Y-49528085D01*
G37*
G36*
X145463663Y-49528085D02*
G01*
X145497641Y-49538393D01*
X145528962Y-49555134D01*
X145556411Y-49577661D01*
X145578938Y-49605110D01*
X145595679Y-49636431D01*
X145605987Y-49670409D01*
X145610072Y-49711890D01*
X145610072Y-50313110D01*
X145605987Y-50354591D01*
X145595679Y-50388569D01*
X145578938Y-50419890D01*
X145556411Y-50447339D01*
X145528962Y-50469866D01*
X145497641Y-50486607D01*
X145463663Y-50496915D01*
X145422182Y-50501000D01*
X144745962Y-50501000D01*
X144704481Y-50496915D01*
X144670503Y-50486607D01*
X144639182Y-50469866D01*
X144611733Y-50447339D01*
X144589206Y-50419890D01*
X144572465Y-50388569D01*
X144562157Y-50354591D01*
X144558072Y-50313110D01*
X144558072Y-49711890D01*
X144562157Y-49670409D01*
X144572465Y-49636431D01*
X144589206Y-49605110D01*
X144611733Y-49577661D01*
X144639182Y-49555134D01*
X144670503Y-49538393D01*
X144704481Y-49528085D01*
X144745962Y-49524000D01*
X145422182Y-49524000D01*
X145463663Y-49528085D01*
X145463663Y-49528085D01*
G37*
G36*
X195655482Y-49528085D02*
G01*
X195689460Y-49538393D01*
X195720781Y-49555134D01*
X195748230Y-49577661D01*
X195770757Y-49605110D01*
X195787498Y-49636431D01*
X195797806Y-49670409D01*
X195801891Y-49711890D01*
X195801891Y-50313110D01*
X195797806Y-50354591D01*
X195787498Y-50388569D01*
X195770757Y-50419890D01*
X195748230Y-50447339D01*
X195720781Y-50469866D01*
X195689460Y-50486607D01*
X195655482Y-50496915D01*
X195614001Y-50501000D01*
X194937781Y-50501000D01*
X194896300Y-50496915D01*
X194862322Y-50486607D01*
X194831001Y-50469866D01*
X194803552Y-50447339D01*
X194781025Y-50419890D01*
X194764284Y-50388569D01*
X194753976Y-50354591D01*
X194749891Y-50313110D01*
X194749891Y-49711890D01*
X194753976Y-49670409D01*
X194764284Y-49636431D01*
X194781025Y-49605110D01*
X194803552Y-49577661D01*
X194831001Y-49555134D01*
X194862322Y-49538393D01*
X194896300Y-49528085D01*
X194937781Y-49524000D01*
X195614001Y-49524000D01*
X195655482Y-49528085D01*
X195655482Y-49528085D01*
G37*
G36*
X141099157Y-49528085D02*
G01*
X141133135Y-49538393D01*
X141164456Y-49555134D01*
X141191905Y-49577661D01*
X141214432Y-49605110D01*
X141231173Y-49636431D01*
X141241481Y-49670409D01*
X141245566Y-49711890D01*
X141245566Y-50313110D01*
X141241481Y-50354591D01*
X141231173Y-50388569D01*
X141214432Y-50419890D01*
X141191905Y-50447339D01*
X141164456Y-50469866D01*
X141133135Y-50486607D01*
X141099157Y-50496915D01*
X141057676Y-50501000D01*
X140381456Y-50501000D01*
X140339975Y-50496915D01*
X140305997Y-50486607D01*
X140274676Y-50469866D01*
X140247227Y-50447339D01*
X140224700Y-50419890D01*
X140207959Y-50388569D01*
X140197651Y-50354591D01*
X140193566Y-50313110D01*
X140193566Y-49711890D01*
X140197651Y-49670409D01*
X140207959Y-49636431D01*
X140224700Y-49605110D01*
X140247227Y-49577661D01*
X140274676Y-49555134D01*
X140305997Y-49538393D01*
X140339975Y-49528085D01*
X140381456Y-49524000D01*
X141057676Y-49524000D01*
X141099157Y-49528085D01*
X141099157Y-49528085D01*
G37*
G36*
X180379711Y-49528085D02*
G01*
X180413689Y-49538393D01*
X180445010Y-49555134D01*
X180472459Y-49577661D01*
X180494986Y-49605110D01*
X180511727Y-49636431D01*
X180522035Y-49670409D01*
X180526120Y-49711890D01*
X180526120Y-50313110D01*
X180522035Y-50354591D01*
X180511727Y-50388569D01*
X180494986Y-50419890D01*
X180472459Y-50447339D01*
X180445010Y-50469866D01*
X180413689Y-50486607D01*
X180379711Y-50496915D01*
X180338230Y-50501000D01*
X179662010Y-50501000D01*
X179620529Y-50496915D01*
X179586551Y-50486607D01*
X179555230Y-50469866D01*
X179527781Y-50447339D01*
X179505254Y-50419890D01*
X179488513Y-50388569D01*
X179478205Y-50354591D01*
X179474120Y-50313110D01*
X179474120Y-49711890D01*
X179478205Y-49670409D01*
X179488513Y-49636431D01*
X179505254Y-49605110D01*
X179527781Y-49577661D01*
X179555230Y-49555134D01*
X179586551Y-49538393D01*
X179620529Y-49528085D01*
X179662010Y-49524000D01*
X180338230Y-49524000D01*
X180379711Y-49528085D01*
X180379711Y-49528085D01*
G37*
G36*
X138916904Y-49528085D02*
G01*
X138950882Y-49538393D01*
X138982203Y-49555134D01*
X139009652Y-49577661D01*
X139032179Y-49605110D01*
X139048920Y-49636431D01*
X139059228Y-49670409D01*
X139063313Y-49711890D01*
X139063313Y-50313110D01*
X139059228Y-50354591D01*
X139048920Y-50388569D01*
X139032179Y-50419890D01*
X139009652Y-50447339D01*
X138982203Y-50469866D01*
X138950882Y-50486607D01*
X138916904Y-50496915D01*
X138875423Y-50501000D01*
X138199203Y-50501000D01*
X138157722Y-50496915D01*
X138123744Y-50486607D01*
X138092423Y-50469866D01*
X138064974Y-50447339D01*
X138042447Y-50419890D01*
X138025706Y-50388569D01*
X138015398Y-50354591D01*
X138011313Y-50313110D01*
X138011313Y-49711890D01*
X138015398Y-49670409D01*
X138025706Y-49636431D01*
X138042447Y-49605110D01*
X138064974Y-49577661D01*
X138092423Y-49555134D01*
X138123744Y-49538393D01*
X138157722Y-49528085D01*
X138199203Y-49524000D01*
X138875423Y-49524000D01*
X138916904Y-49528085D01*
X138916904Y-49528085D01*
G37*
G36*
X193473229Y-49528085D02*
G01*
X193507207Y-49538393D01*
X193538528Y-49555134D01*
X193565977Y-49577661D01*
X193588504Y-49605110D01*
X193605245Y-49636431D01*
X193615553Y-49670409D01*
X193619638Y-49711890D01*
X193619638Y-50313110D01*
X193615553Y-50354591D01*
X193605245Y-50388569D01*
X193588504Y-50419890D01*
X193565977Y-50447339D01*
X193538528Y-50469866D01*
X193507207Y-50486607D01*
X193473229Y-50496915D01*
X193431748Y-50501000D01*
X192755528Y-50501000D01*
X192714047Y-50496915D01*
X192680069Y-50486607D01*
X192648748Y-50469866D01*
X192621299Y-50447339D01*
X192598772Y-50419890D01*
X192582031Y-50388569D01*
X192571723Y-50354591D01*
X192567638Y-50313110D01*
X192567638Y-49711890D01*
X192571723Y-49670409D01*
X192582031Y-49636431D01*
X192598772Y-49605110D01*
X192621299Y-49577661D01*
X192648748Y-49555134D01*
X192680069Y-49538393D01*
X192714047Y-49528085D01*
X192755528Y-49524000D01*
X193431748Y-49524000D01*
X193473229Y-49528085D01*
X193473229Y-49528085D01*
G37*
G36*
X178197458Y-49528085D02*
G01*
X178231436Y-49538393D01*
X178262757Y-49555134D01*
X178290206Y-49577661D01*
X178312733Y-49605110D01*
X178329474Y-49636431D01*
X178339782Y-49670409D01*
X178343867Y-49711890D01*
X178343867Y-50313110D01*
X178339782Y-50354591D01*
X178329474Y-50388569D01*
X178312733Y-50419890D01*
X178290206Y-50447339D01*
X178262757Y-50469866D01*
X178231436Y-50486607D01*
X178197458Y-50496915D01*
X178155977Y-50501000D01*
X177479757Y-50501000D01*
X177438276Y-50496915D01*
X177404298Y-50486607D01*
X177372977Y-50469866D01*
X177345528Y-50447339D01*
X177323001Y-50419890D01*
X177306260Y-50388569D01*
X177295952Y-50354591D01*
X177291867Y-50313110D01*
X177291867Y-49711890D01*
X177295952Y-49670409D01*
X177306260Y-49636431D01*
X177323001Y-49605110D01*
X177345528Y-49577661D01*
X177372977Y-49555134D01*
X177404298Y-49538393D01*
X177438276Y-49528085D01*
X177479757Y-49524000D01*
X178155977Y-49524000D01*
X178197458Y-49528085D01*
X178197458Y-49528085D01*
G37*
G36*
X210931253Y-49528085D02*
G01*
X210965231Y-49538393D01*
X210996552Y-49555134D01*
X211024001Y-49577661D01*
X211046528Y-49605110D01*
X211063269Y-49636431D01*
X211073577Y-49670409D01*
X211077662Y-49711890D01*
X211077662Y-50313110D01*
X211073577Y-50354591D01*
X211063269Y-50388569D01*
X211046528Y-50419890D01*
X211024001Y-50447339D01*
X210996552Y-50469866D01*
X210965231Y-50486607D01*
X210931253Y-50496915D01*
X210889772Y-50501000D01*
X210213552Y-50501000D01*
X210172071Y-50496915D01*
X210138093Y-50486607D01*
X210106772Y-50469866D01*
X210079323Y-50447339D01*
X210056796Y-50419890D01*
X210040055Y-50388569D01*
X210029747Y-50354591D01*
X210025662Y-50313110D01*
X210025662Y-49711890D01*
X210029747Y-49670409D01*
X210040055Y-49636431D01*
X210056796Y-49605110D01*
X210079323Y-49577661D01*
X210106772Y-49555134D01*
X210138093Y-49538393D01*
X210172071Y-49528085D01*
X210213552Y-49524000D01*
X210889772Y-49524000D01*
X210931253Y-49528085D01*
X210931253Y-49528085D01*
G37*
G36*
X134552398Y-49528085D02*
G01*
X134586376Y-49538393D01*
X134617697Y-49555134D01*
X134645146Y-49577661D01*
X134667673Y-49605110D01*
X134684414Y-49636431D01*
X134694722Y-49670409D01*
X134698807Y-49711890D01*
X134698807Y-50313110D01*
X134694722Y-50354591D01*
X134684414Y-50388569D01*
X134667673Y-50419890D01*
X134645146Y-50447339D01*
X134617697Y-50469866D01*
X134586376Y-50486607D01*
X134552398Y-50496915D01*
X134510917Y-50501000D01*
X133834697Y-50501000D01*
X133793216Y-50496915D01*
X133759238Y-50486607D01*
X133727917Y-50469866D01*
X133700468Y-50447339D01*
X133677941Y-50419890D01*
X133661200Y-50388569D01*
X133650892Y-50354591D01*
X133646807Y-50313110D01*
X133646807Y-49711890D01*
X133650892Y-49670409D01*
X133661200Y-49636431D01*
X133677941Y-49605110D01*
X133700468Y-49577661D01*
X133727917Y-49555134D01*
X133759238Y-49538393D01*
X133793216Y-49528085D01*
X133834697Y-49524000D01*
X134510917Y-49524000D01*
X134552398Y-49528085D01*
X134552398Y-49528085D01*
G37*
G36*
X191290976Y-49528085D02*
G01*
X191324954Y-49538393D01*
X191356275Y-49555134D01*
X191383724Y-49577661D01*
X191406251Y-49605110D01*
X191422992Y-49636431D01*
X191433300Y-49670409D01*
X191437385Y-49711890D01*
X191437385Y-50313110D01*
X191433300Y-50354591D01*
X191422992Y-50388569D01*
X191406251Y-50419890D01*
X191383724Y-50447339D01*
X191356275Y-50469866D01*
X191324954Y-50486607D01*
X191290976Y-50496915D01*
X191249495Y-50501000D01*
X190573275Y-50501000D01*
X190531794Y-50496915D01*
X190497816Y-50486607D01*
X190466495Y-50469866D01*
X190439046Y-50447339D01*
X190416519Y-50419890D01*
X190399778Y-50388569D01*
X190389470Y-50354591D01*
X190385385Y-50313110D01*
X190385385Y-49711890D01*
X190389470Y-49670409D01*
X190399778Y-49636431D01*
X190416519Y-49605110D01*
X190439046Y-49577661D01*
X190466495Y-49555134D01*
X190497816Y-49538393D01*
X190531794Y-49528085D01*
X190573275Y-49524000D01*
X191249495Y-49524000D01*
X191290976Y-49528085D01*
X191290976Y-49528085D01*
G37*
G36*
X132370145Y-49528085D02*
G01*
X132404123Y-49538393D01*
X132435444Y-49555134D01*
X132462893Y-49577661D01*
X132485420Y-49605110D01*
X132502161Y-49636431D01*
X132512469Y-49670409D01*
X132516554Y-49711890D01*
X132516554Y-50313110D01*
X132512469Y-50354591D01*
X132502161Y-50388569D01*
X132485420Y-50419890D01*
X132462893Y-50447339D01*
X132435444Y-50469866D01*
X132404123Y-50486607D01*
X132370145Y-50496915D01*
X132328664Y-50501000D01*
X131652444Y-50501000D01*
X131610963Y-50496915D01*
X131576985Y-50486607D01*
X131545664Y-50469866D01*
X131518215Y-50447339D01*
X131495688Y-50419890D01*
X131478947Y-50388569D01*
X131468639Y-50354591D01*
X131464554Y-50313110D01*
X131464554Y-49711890D01*
X131468639Y-49670409D01*
X131478947Y-49636431D01*
X131495688Y-49605110D01*
X131518215Y-49577661D01*
X131545664Y-49555134D01*
X131576985Y-49538393D01*
X131610963Y-49528085D01*
X131652444Y-49524000D01*
X132328664Y-49524000D01*
X132370145Y-49528085D01*
X132370145Y-49528085D01*
G37*
G36*
X176015205Y-49528085D02*
G01*
X176049183Y-49538393D01*
X176080504Y-49555134D01*
X176107953Y-49577661D01*
X176130480Y-49605110D01*
X176147221Y-49636431D01*
X176157529Y-49670409D01*
X176161614Y-49711890D01*
X176161614Y-50313110D01*
X176157529Y-50354591D01*
X176147221Y-50388569D01*
X176130480Y-50419890D01*
X176107953Y-50447339D01*
X176080504Y-50469866D01*
X176049183Y-50486607D01*
X176015205Y-50496915D01*
X175973724Y-50501000D01*
X175297504Y-50501000D01*
X175256023Y-50496915D01*
X175222045Y-50486607D01*
X175190724Y-50469866D01*
X175163275Y-50447339D01*
X175140748Y-50419890D01*
X175124007Y-50388569D01*
X175113699Y-50354591D01*
X175109614Y-50313110D01*
X175109614Y-49711890D01*
X175113699Y-49670409D01*
X175124007Y-49636431D01*
X175140748Y-49605110D01*
X175163275Y-49577661D01*
X175190724Y-49555134D01*
X175222045Y-49538393D01*
X175256023Y-49528085D01*
X175297504Y-49524000D01*
X175973724Y-49524000D01*
X176015205Y-49528085D01*
X176015205Y-49528085D01*
G37*
G36*
X130187892Y-49528085D02*
G01*
X130221870Y-49538393D01*
X130253191Y-49555134D01*
X130280640Y-49577661D01*
X130303167Y-49605110D01*
X130319908Y-49636431D01*
X130330216Y-49670409D01*
X130334301Y-49711890D01*
X130334301Y-50313110D01*
X130330216Y-50354591D01*
X130319908Y-50388569D01*
X130303167Y-50419890D01*
X130280640Y-50447339D01*
X130253191Y-50469866D01*
X130221870Y-50486607D01*
X130187892Y-50496915D01*
X130146411Y-50501000D01*
X129470191Y-50501000D01*
X129428710Y-50496915D01*
X129394732Y-50486607D01*
X129363411Y-50469866D01*
X129335962Y-50447339D01*
X129313435Y-50419890D01*
X129296694Y-50388569D01*
X129286386Y-50354591D01*
X129282301Y-50313110D01*
X129282301Y-49711890D01*
X129286386Y-49670409D01*
X129296694Y-49636431D01*
X129313435Y-49605110D01*
X129335962Y-49577661D01*
X129363411Y-49555134D01*
X129394732Y-49538393D01*
X129428710Y-49528085D01*
X129470191Y-49524000D01*
X130146411Y-49524000D01*
X130187892Y-49528085D01*
X130187892Y-49528085D01*
G37*
G36*
X189108723Y-49528085D02*
G01*
X189142701Y-49538393D01*
X189174022Y-49555134D01*
X189201471Y-49577661D01*
X189223998Y-49605110D01*
X189240739Y-49636431D01*
X189251047Y-49670409D01*
X189255132Y-49711890D01*
X189255132Y-50313110D01*
X189251047Y-50354591D01*
X189240739Y-50388569D01*
X189223998Y-50419890D01*
X189201471Y-50447339D01*
X189174022Y-50469866D01*
X189142701Y-50486607D01*
X189108723Y-50496915D01*
X189067242Y-50501000D01*
X188391022Y-50501000D01*
X188349541Y-50496915D01*
X188315563Y-50486607D01*
X188284242Y-50469866D01*
X188256793Y-50447339D01*
X188234266Y-50419890D01*
X188217525Y-50388569D01*
X188207217Y-50354591D01*
X188203132Y-50313110D01*
X188203132Y-49711890D01*
X188207217Y-49670409D01*
X188217525Y-49636431D01*
X188234266Y-49605110D01*
X188256793Y-49577661D01*
X188284242Y-49555134D01*
X188315563Y-49538393D01*
X188349541Y-49528085D01*
X188391022Y-49524000D01*
X189067242Y-49524000D01*
X189108723Y-49528085D01*
X189108723Y-49528085D01*
G37*
G36*
X173832952Y-49528085D02*
G01*
X173866930Y-49538393D01*
X173898251Y-49555134D01*
X173925700Y-49577661D01*
X173948227Y-49605110D01*
X173964968Y-49636431D01*
X173975276Y-49670409D01*
X173979361Y-49711890D01*
X173979361Y-50313110D01*
X173975276Y-50354591D01*
X173964968Y-50388569D01*
X173948227Y-50419890D01*
X173925700Y-50447339D01*
X173898251Y-50469866D01*
X173866930Y-50486607D01*
X173832952Y-50496915D01*
X173791471Y-50501000D01*
X173115251Y-50501000D01*
X173073770Y-50496915D01*
X173039792Y-50486607D01*
X173008471Y-50469866D01*
X172981022Y-50447339D01*
X172958495Y-50419890D01*
X172941754Y-50388569D01*
X172931446Y-50354591D01*
X172927361Y-50313110D01*
X172927361Y-49711890D01*
X172931446Y-49670409D01*
X172941754Y-49636431D01*
X172958495Y-49605110D01*
X172981022Y-49577661D01*
X173008471Y-49555134D01*
X173039792Y-49538393D01*
X173073770Y-49528085D01*
X173115251Y-49524000D01*
X173791471Y-49524000D01*
X173832952Y-49528085D01*
X173832952Y-49528085D01*
G37*
G36*
X125823386Y-49528085D02*
G01*
X125857364Y-49538393D01*
X125888685Y-49555134D01*
X125916134Y-49577661D01*
X125938661Y-49605110D01*
X125955402Y-49636431D01*
X125965710Y-49670409D01*
X125969795Y-49711890D01*
X125969795Y-50313110D01*
X125965710Y-50354591D01*
X125955402Y-50388569D01*
X125938661Y-50419890D01*
X125916134Y-50447339D01*
X125888685Y-50469866D01*
X125857364Y-50486607D01*
X125823386Y-50496915D01*
X125781905Y-50501000D01*
X125105685Y-50501000D01*
X125064204Y-50496915D01*
X125030226Y-50486607D01*
X124998905Y-50469866D01*
X124971456Y-50447339D01*
X124948929Y-50419890D01*
X124932188Y-50388569D01*
X124921880Y-50354591D01*
X124917795Y-50313110D01*
X124917795Y-49711890D01*
X124921880Y-49670409D01*
X124932188Y-49636431D01*
X124948929Y-49605110D01*
X124971456Y-49577661D01*
X124998905Y-49555134D01*
X125030226Y-49538393D01*
X125064204Y-49528085D01*
X125105685Y-49524000D01*
X125781905Y-49524000D01*
X125823386Y-49528085D01*
X125823386Y-49528085D01*
G37*
G36*
X165103940Y-49528085D02*
G01*
X165137918Y-49538393D01*
X165169239Y-49555134D01*
X165196688Y-49577661D01*
X165219215Y-49605110D01*
X165235956Y-49636431D01*
X165246264Y-49670409D01*
X165250349Y-49711890D01*
X165250349Y-50313110D01*
X165246264Y-50354591D01*
X165235956Y-50388569D01*
X165219215Y-50419890D01*
X165196688Y-50447339D01*
X165169239Y-50469866D01*
X165137918Y-50486607D01*
X165103940Y-50496915D01*
X165062459Y-50501000D01*
X164386239Y-50501000D01*
X164344758Y-50496915D01*
X164310780Y-50486607D01*
X164279459Y-50469866D01*
X164252010Y-50447339D01*
X164229483Y-50419890D01*
X164212742Y-50388569D01*
X164202434Y-50354591D01*
X164198349Y-50313110D01*
X164198349Y-49711890D01*
X164202434Y-49670409D01*
X164212742Y-49636431D01*
X164229483Y-49605110D01*
X164252010Y-49577661D01*
X164279459Y-49555134D01*
X164310780Y-49538393D01*
X164344758Y-49528085D01*
X164386239Y-49524000D01*
X165062459Y-49524000D01*
X165103940Y-49528085D01*
X165103940Y-49528085D01*
G37*
G36*
X250706842Y-47822718D02*
G01*
X250773027Y-47829237D01*
X250942866Y-47880757D01*
X251099391Y-47964422D01*
X251135129Y-47993752D01*
X251236586Y-48077014D01*
X251319848Y-48178471D01*
X251349178Y-48214209D01*
X251432843Y-48370734D01*
X251484363Y-48540573D01*
X251501759Y-48717200D01*
X251484363Y-48893827D01*
X251432843Y-49063666D01*
X251349178Y-49220191D01*
X251319848Y-49255929D01*
X251236586Y-49357386D01*
X251135129Y-49440648D01*
X251099391Y-49469978D01*
X250942866Y-49553643D01*
X250773027Y-49605163D01*
X250706843Y-49611681D01*
X250640660Y-49618200D01*
X250552140Y-49618200D01*
X250485958Y-49611682D01*
X250419773Y-49605163D01*
X250249934Y-49553643D01*
X250093409Y-49469978D01*
X250057671Y-49440648D01*
X249956214Y-49357386D01*
X249872952Y-49255929D01*
X249843622Y-49220191D01*
X249759957Y-49063666D01*
X249708437Y-48893827D01*
X249691041Y-48717200D01*
X249708437Y-48540573D01*
X249759957Y-48370734D01*
X249843622Y-48214209D01*
X249872952Y-48178471D01*
X249956214Y-48077014D01*
X250057671Y-47993752D01*
X250093409Y-47964422D01*
X250249934Y-47880757D01*
X250419773Y-47829237D01*
X250485958Y-47822718D01*
X250552140Y-47816200D01*
X250640660Y-47816200D01*
X250706842Y-47822718D01*
X250706842Y-47822718D01*
G37*
G36*
X250706843Y-45282719D02*
G01*
X250773027Y-45289237D01*
X250942866Y-45340757D01*
X251099391Y-45424422D01*
X251135129Y-45453752D01*
X251236586Y-45537014D01*
X251319848Y-45638471D01*
X251349178Y-45674209D01*
X251432843Y-45830734D01*
X251484363Y-46000573D01*
X251501759Y-46177200D01*
X251484363Y-46353827D01*
X251432843Y-46523666D01*
X251349178Y-46680191D01*
X251319848Y-46715929D01*
X251236586Y-46817386D01*
X251135129Y-46900648D01*
X251099391Y-46929978D01*
X250942866Y-47013643D01*
X250773027Y-47065163D01*
X250706843Y-47071681D01*
X250640660Y-47078200D01*
X250552140Y-47078200D01*
X250485957Y-47071681D01*
X250419773Y-47065163D01*
X250249934Y-47013643D01*
X250093409Y-46929978D01*
X250057671Y-46900648D01*
X249956214Y-46817386D01*
X249872952Y-46715929D01*
X249843622Y-46680191D01*
X249759957Y-46523666D01*
X249708437Y-46353827D01*
X249691041Y-46177200D01*
X249708437Y-46000573D01*
X249759957Y-45830734D01*
X249843622Y-45674209D01*
X249872952Y-45638471D01*
X249956214Y-45537014D01*
X250057671Y-45453752D01*
X250093409Y-45424422D01*
X250249934Y-45340757D01*
X250419773Y-45289237D01*
X250485958Y-45282718D01*
X250552140Y-45276200D01*
X250640660Y-45276200D01*
X250706843Y-45282719D01*
X250706843Y-45282719D01*
G37*
G36*
X241774121Y-40334240D02*
G01*
X242283869Y-40545385D01*
X242283871Y-40545386D01*
X242742634Y-40851921D01*
X243132779Y-41242066D01*
X243439314Y-41700829D01*
X243439315Y-41700831D01*
X243650460Y-42210579D01*
X243758100Y-42751724D01*
X243758100Y-43303476D01*
X243650460Y-43844621D01*
X243439315Y-44354369D01*
X243439314Y-44354371D01*
X243132779Y-44813134D01*
X242742634Y-45203279D01*
X242283871Y-45509814D01*
X242283870Y-45509815D01*
X242283869Y-45509815D01*
X241774121Y-45720960D01*
X241232976Y-45828600D01*
X240681224Y-45828600D01*
X240140079Y-45720960D01*
X239630331Y-45509815D01*
X239630330Y-45509815D01*
X239630329Y-45509814D01*
X239171566Y-45203279D01*
X238781421Y-44813134D01*
X238474886Y-44354371D01*
X238474885Y-44354369D01*
X238263740Y-43844621D01*
X238156100Y-43303476D01*
X238156100Y-42751724D01*
X238263740Y-42210579D01*
X238474885Y-41700831D01*
X238474886Y-41700829D01*
X238781421Y-41242066D01*
X239171566Y-40851921D01*
X239630329Y-40545386D01*
X239630331Y-40545385D01*
X240140079Y-40334240D01*
X240681224Y-40226600D01*
X241232976Y-40226600D01*
X241774121Y-40334240D01*
X241774121Y-40334240D01*
G37*
G36*
X255604421Y-40334240D02*
G01*
X256114169Y-40545385D01*
X256114171Y-40545386D01*
X256572934Y-40851921D01*
X256963079Y-41242066D01*
X257269614Y-41700829D01*
X257269615Y-41700831D01*
X257480760Y-42210579D01*
X257588400Y-42751724D01*
X257588400Y-43303476D01*
X257480760Y-43844621D01*
X257269615Y-44354369D01*
X257269614Y-44354371D01*
X256963079Y-44813134D01*
X256572934Y-45203279D01*
X256114171Y-45509814D01*
X256114170Y-45509815D01*
X256114169Y-45509815D01*
X255604421Y-45720960D01*
X255063276Y-45828600D01*
X254511524Y-45828600D01*
X253970379Y-45720960D01*
X253460631Y-45509815D01*
X253460630Y-45509815D01*
X253460629Y-45509814D01*
X253001866Y-45203279D01*
X252611721Y-44813134D01*
X252305186Y-44354371D01*
X252305185Y-44354369D01*
X252094040Y-43844621D01*
X251986400Y-43303476D01*
X251986400Y-42751724D01*
X252094040Y-42210579D01*
X252305185Y-41700831D01*
X252305186Y-41700829D01*
X252611721Y-41242066D01*
X253001866Y-40851921D01*
X253460629Y-40545386D01*
X253460631Y-40545385D01*
X253970379Y-40334240D01*
X254511524Y-40226600D01*
X255063276Y-40226600D01*
X255604421Y-40334240D01*
X255604421Y-40334240D01*
G37*
M02*
