M48
; DRILL file {KiCad (5.1.4)-1} date 11/18/2019 3:59:22 PM
; FORMAT={-:-/ absolute / inch / decimal}
; #@! TF.CreationDate,2019-11-18T15:59:22-05:00
; #@! TF.GenerationSoftware,Kicad,Pcbnew,(5.1.4)-1
FMAT,2
INCH
T1C0.0157
T2C0.0394
T3C0.1417
%
G90
G05
T1
X3.65Y-1.9
X3.775Y-1.8
X4.0134Y-2.4524
X4.05Y-1.9
X4.1Y-2.12
X4.12Y-2.08
X4.1634Y-2.185
X4.2Y-1.825
X4.2671Y-2.1729
X4.56Y-2.32
X4.575Y-1.925
X4.64Y-2.36
X4.73Y-2.33
X4.75Y-1.8
X5.025Y-1.85
X5.0475Y-2.4524
X5.14Y-2.12
X5.16Y-2.08
X5.18Y-2.2
X5.225Y-1.925
X5.24Y-2.16
X5.45Y-1.9
X5.575Y-1.8
X5.59Y-2.32
X5.67Y-2.34
X5.82Y-2.33
X6.0Y-1.825
X6.0816Y-2.4524
X6.16Y-2.08
X6.18Y-2.12
X6.2Y-1.925
X6.2Y-2.2
X6.2705Y-2.16
X6.425Y-1.85
X6.62Y-2.34
X6.65Y-1.9
X6.73Y-2.36
X6.85Y-2.34
X7.0Y-1.925
X7.1157Y-2.4524
X7.15Y-1.775
X7.18Y-2.08
X7.18Y-2.12
X7.24Y-2.2
X7.3Y-2.16
X7.6Y-1.75
X7.6Y-2.33
X7.7Y-1.8
X7.78Y-2.33
X7.91Y-2.33
X7.975Y-1.875
X8.1498Y-2.4524
X8.225Y-2.075
X8.225Y-2.125
X8.275Y-2.2
X8.35Y-1.85
X8.375Y-2.175
X8.61Y-2.32
X8.72Y-2.32
X8.82Y-2.32
X8.85Y-1.8
X9.0244Y-2.4524
X9.15Y-2.2
X9.2Y-1.8
X9.25Y-2.15
X9.425Y-1.85
X9.74Y-2.35
X9.78Y-2.31
X9.89Y-2.34
X8.2259Y-2.2772
X8.2259Y-2.3172
X8.2259Y-2.3572
X8.2259Y-2.3972
X8.2659Y-2.2772
X8.2659Y-2.3172
X8.2659Y-2.3572
X8.2659Y-2.3972
X8.3059Y-2.2772
X8.3059Y-2.3172
X8.3059Y-2.3572
X8.3059Y-2.3972
X4.0895Y-2.2772
X4.0895Y-2.3172
X4.0895Y-2.3572
X4.0895Y-2.3972
X4.1295Y-2.2772
X4.1295Y-2.3172
X4.1295Y-2.3572
X4.1295Y-2.3972
X4.1695Y-2.2772
X4.1695Y-2.3172
X4.1695Y-2.3572
X4.1695Y-2.3972
X5.1236Y-2.2772
X5.1236Y-2.3172
X5.1236Y-2.3572
X5.1236Y-2.3972
X5.1636Y-2.2772
X5.1636Y-2.3172
X5.1636Y-2.3572
X5.1636Y-2.3972
X5.2036Y-2.2772
X5.2036Y-2.3172
X5.2036Y-2.3572
X5.2036Y-2.3972
X7.1918Y-2.2772
X7.1918Y-2.3172
X7.1918Y-2.3572
X7.1918Y-2.3972
X7.2318Y-2.2772
X7.2318Y-2.3172
X7.2318Y-2.3572
X7.2318Y-2.3972
X7.2718Y-2.2772
X7.2718Y-2.3172
X7.2718Y-2.3572
X7.2718Y-2.3972
X9.1005Y-2.2772
X9.1005Y-2.3172
X9.1005Y-2.3572
X9.1005Y-2.3972
X9.1405Y-2.2772
X9.1405Y-2.3172
X9.1405Y-2.3572
X9.1405Y-2.3972
X9.1805Y-2.2772
X9.1805Y-2.3172
X9.1805Y-2.3572
X9.1805Y-2.3972
X6.1577Y-2.2772
X6.1577Y-2.3172
X6.1577Y-2.3572
X6.1577Y-2.3972
X6.1977Y-2.2772
X6.1977Y-2.3172
X6.1977Y-2.3572
X6.1977Y-2.3972
X6.2377Y-2.2772
X6.2377Y-2.3172
X6.2377Y-2.3572
X6.2377Y-2.3972
T2
X9.866Y-1.818
X9.866Y-1.918
X9.866Y-2.018
X9.866Y-2.118
T3
X9.4865Y-1.694
X9.4865Y-2.2385
X10.031Y-1.694
X10.031Y-2.2385
T0
M30
